Urbanist-BoldItalic.ufo
<glyph name="exclam" format="2">
  <advance width="446.0"/>
  <unicode hex="0021"/>
  <outline>
    <contour>
      <point x="91.0" y="420.0" type="line"/>
      <point x="293.4" y="420.0" type="line"/>
      <point x="430.4" y="1400.0" type="line"/>
      <point x="228.0" y="1400.0" type="line"/>
    </contour>
    <contour>
      <point x="143.4" y="-26.0" type="curve" smooth="yes"/>
      <point x="204.00000000000003" y="-26.0"/>
      <point x="258.8" y="22.0"/>
      <point x="267.8" y="86.19999999999999" type="curve" smooth="yes"/>
      <point x="278.4" y="160.39999999999998"/>
      <point x="225.60000000000002" y="221.6"/>
      <point x="151.0" y="221.6" type="curve" smooth="yes"/>
      <point x="88.80000000000001" y="221.6"/>
      <point x="34.0" y="173.6"/>
      <point x="25.6" y="113.0" type="curve" smooth="yes"/>
      <point x="15.0" y="35.199999999999996"/>
      <point x="67.2" y="-26.0"/>
    </contour>
  </outline>
</glyph>
<glyph name="numbersign" format="2">
  <advance width="1570.5"/>
  <unicode hex="0023"/>
  <outline>
    <contour>
      <point x="1482.6" y="879.6" type="line"/>
      <point x="1578.0" y="1111.6" type="line"/>
      <point x="1410.0" y="1111.6" type="line"/>
      <point x="1526.4" y="1400.0" type="line"/>
      <point x="1283.8000000000002" y="1400.0" type="line"/>
      <point x="1167.2" y="1111.6" type="line"/>
      <point x="796.4000000000001" y="1111.6" type="line"/>
      <point x="914.4" y="1400.0" type="line"/>
      <point x="671.1999999999999" y="1400.0" type="line"/>
      <point x="553.6" y="1111.6" type="line"/>
      <point x="385.2" y="1111.6" type="line"/>
      <point x="289.4" y="879.6" type="line"/>
      <point x="459.4" y="879.6" type="line"/>
      <point x="311.79999999999995" y="521.2" type="line"/>
      <point x="143.8" y="521.2" type="line"/>
      <point x="48.4" y="289.2" type="line"/>
      <point x="217.20000000000002" y="289.2" type="line"/>
      <point x="100.4" y="0.0" type="line"/>
      <point x="343.6" y="0.0" type="line"/>
      <point x="460.4" y="289.2" type="line"/>
      <point x="830.4" y="289.2" type="line"/>
      <point x="712.4" y="0.0" type="line"/>
      <point x="955.6" y="0.0" type="line"/>
      <point x="1073.6" y="289.2" type="line"/>
      <point x="1241.6" y="289.2" type="line"/>
      <point x="1337.0" y="521.2" type="line"/>
      <point x="1167.0" y="521.2" type="line"/>
      <point x="1314.6" y="879.6" type="line"/>
    </contour>
    <contour>
      <point x="923.8" y="521.2" type="line"/>
      <point x="555.0" y="521.2" type="line"/>
      <point x="702.6" y="879.6" type="line"/>
      <point x="1071.4" y="879.6" type="line"/>
    </contour>
  </outline>
</glyph>
<glyph name="dollar" format="2">
  <advance width="1207.5"/>
  <unicode hex="0024"/>
  <outline>
    <contour>
      <point x="712.4" y="1182.4" type="curve"/>
      <point x="849.1999999999999" y="1182.4"/>
      <point x="962.1999999999999" y="1125.2"/>
      <point x="979.8000000000001" y="1042.0" type="curve"/>
      <point x="1212.1999999999998" y="1110.4" type="line"/>
      <point x="1173.6" y="1281.1999999999998"/>
      <point x="1002.2" y="1395.4"/>
      <point x="809.0" y="1418.2" type="curve"/>
      <point x="844.4" y="1624.0" type="line"/>
      <point x="679.6" y="1624.0" type="line"/>
      <point x="644.2" y="1419.8" type="line"/>
      <point x="398.4" y="1390.1999999999998"/>
      <point x="185.6" y="1237.2"/>
      <point x="155.0" y="1015.0" type="curve"/>
      <point x="116.2" y="739.6"/>
      <point x="330.4" y="625.8000000000001"/>
      <point x="628.4" y="581.4000000000001" type="curve"/>
      <point x="756.2" y="557.8000000000001"/>
      <point x="887.4000000000001" y="515.1999999999999"/>
      <point x="872.4000000000001" y="410.2" type="curve"/>
      <point x="855.8000000000001" y="293.59999999999997"/>
      <point x="703.2" y="214.0"/>
      <point x="549.4" y="214.0" type="curve"/>
      <point x="413.59999999999997" y="214.0"/>
      <point x="300.59999999999997" y="273.20000000000005"/>
      <point x="283.0" y="356.0" type="curve"/>
      <point x="51.4" y="285.59999999999997" type="line"/>
      <point x="90.19999999999999" y="118.0"/>
      <point x="257.59999999999997" y="3.799999999999999"/>
      <point x="455.6" y="-19.4" type="curve"/>
      <point x="419.6" y="-224.0" type="line"/>
      <point x="584.4" y="-224.0" type="line"/>
      <point x="619.8" y="-20.6" type="line"/>
      <point x="865.2" y="9.4"/>
      <point x="1077.2" y="162.0"/>
      <point x="1108.2" y="383.0" type="curve"/>
      <point x="1144.6000000000001" y="640.0"/>
      <point x="916.2" y="775.8"/>
      <point x="634.8000000000001" y="817.4" type="curve"/>
      <point x="489.0" y="844.2"/>
      <point x="373.2" y="860.0"/>
      <point x="391.2" y="988.2" type="curve"/>
      <point x="406.79999999999995" y="1101.1999999999998"/>
      <point x="562.0" y="1184.0"/>
    </contour>
  </outline>
</glyph>
<glyph name="percent" format="2">
  <advance width="1499.5"/>
  <unicode hex="0025"/>
  <outline>
    <contour>
      <point x="134.6" y="0.0" type="line"/>
      <point x="416.2" y="0.0" type="line"/>
      <point x="1421.2" y="1400.0" type="line"/>
      <point x="1138.6000000000001" y="1400.0" type="line"/>
    </contour>
    <contour>
      <point x="433.4" y="795.2" type="curve" smooth="yes"/>
      <point x="585.4000000000001" y="795.2"/>
      <point x="733.8000000000001" y="916.4000000000001"/>
      <point x="757.0" y="1078.6" type="curve" smooth="yes"/>
      <point x="781.2" y="1251.6"/>
      <point x="659.4" y="1389.6"/>
      <point x="490.2" y="1389.6" type="curve" smooth="yes"/>
      <point x="336.59999999999997" y="1389.6"/>
      <point x="187.8" y="1269.2"/>
      <point x="165.6" y="1105.4" type="curve" smooth="yes"/>
      <point x="140.8" y="932.4"/>
      <point x="263.8" y="795.2"/>
    </contour>
    <contour>
      <point x="429.59999999999997" y="960.0" type="curve" smooth="yes"/>
      <point x="362.4" y="960.0"/>
      <point x="317.2" y="1012.0"/>
      <point x="326.59999999999997" y="1078.6" type="curve" smooth="yes"/>
      <point x="337.2" y="1159.6"/>
      <point x="413.2" y="1224.4"/>
      <point x="494.2" y="1224.4" type="curve" smooth="yes"/>
      <point x="559.6" y="1224.4"/>
      <point x="605.4" y="1172.4"/>
      <point x="596.0" y="1105.4" type="curve" smooth="yes"/>
      <point x="584.4" y="1025.2"/>
      <point x="508.8" y="960.0"/>
    </contour>
    <contour>
      <point x="1065.4" y="9.200000000000003" type="curve" smooth="yes"/>
      <point x="1222.8" y="9.200000000000003"/>
      <point x="1368.3999999999999" y="137.2"/>
      <point x="1390.3999999999999" y="293.0" type="curve" smooth="yes"/>
      <point x="1413.6" y="458.4"/>
      <point x="1299.3999999999999" y="605.2"/>
      <point x="1122.6000000000001" y="605.2" type="curve" smooth="yes"/>
      <point x="970.1999999999999" y="605.2"/>
      <point x="821.4" y="482.0"/>
      <point x="798.2" y="320.2" type="curve" smooth="yes"/>
      <point x="774.6" y="156.0"/>
      <point x="892.4000000000001" y="9.200000000000003"/>
    </contour>
    <contour>
      <point x="1061.4" y="174.0" type="curve" smooth="yes"/>
      <point x="996.4000000000001" y="174.0"/>
      <point x="949.8" y="227.6"/>
      <point x="959.1999999999999" y="293.0" type="curve" smooth="yes"/>
      <point x="970.8" y="373.6"/>
      <point x="1046.8000000000002" y="440.0"/>
      <point x="1125.6000000000001" y="440.0" type="curve" smooth="yes"/>
      <point x="1192.8000000000002" y="440.0"/>
      <point x="1238.4" y="386.4"/>
      <point x="1229.0" y="320.2" type="curve" smooth="yes"/>
      <point x="1218.4" y="240.4"/>
      <point x="1142.4" y="174.0"/>
    </contour>
  </outline>
</glyph>
<glyph name="ampersand" format="2">
  <advance width="1430.0"/>
  <unicode hex="0026"/>
  <outline>
    <contour>
      <point x="449.0" y="-26.0" type="curve" smooth="yes"/>
      <point x="610.0" y="-26.0"/>
      <point x="676.4000000000001" y="20.4"/>
      <point x="913.6" y="228.39999999999998" type="curve"/>
      <point x="1115.2" y="0.0" type="line"/>
      <point x="1304.0" y="169.6" type="line"/>
      <point x="1102.0" y="403.2" type="line"/>
      <point x="1199.2" y="485.6" type="line"/>
      <point x="1241.4" y="824.4" type="line"/>
      <point x="952.4000000000001" y="573.6" type="line"/>
      <point x="729.0" y="836.4000000000001" type="line"/>
      <point x="856.6" y="945.6"/>
      <point x="899.6" y="1000.4000000000001"/>
      <point x="914.6" y="1108.1999999999998" type="curve" smooth="yes"/>
      <point x="940.6" y="1294.0"/>
      <point x="810.6" y="1441.2"/>
      <point x="628.4" y="1441.2" type="curve" smooth="yes"/>
      <point x="464.59999999999997" y="1441.2"/>
      <point x="306.0" y="1311.2"/>
      <point x="281.0" y="1135.0" type="curve" smooth="yes"/>
      <point x="264.4" y="1016.0"/>
      <point x="297.0" y="958.8"/>
      <point x="389.4" y="850.4000000000001" type="curve"/>
      <point x="151.4" y="641.6"/>
      <point x="91.4" y="580.4"/>
      <point x="68.6" y="417.4" type="curve" smooth="yes"/>
      <point x="35.2" y="182.4"/>
      <point x="196.4" y="-26.0"/>
    </contour>
    <contour>
      <point x="455.40000000000003" y="214.0" type="curve" smooth="yes"/>
      <point x="363.2" y="214.0"/>
      <point x="290.59999999999997" y="287.20000000000005"/>
      <point x="305.2" y="389.4" type="curve" smooth="yes"/>
      <point x="318.59999999999997" y="490.0"/>
      <point x="362.4" y="512.8000000000001"/>
      <point x="537.6" y="666.8000000000001" type="curve"/>
      <point x="762.0" y="408.40000000000003" type="line"/>
      <point x="591.6" y="260.40000000000003"/>
      <point x="557.2" y="214.0"/>
    </contour>
    <contour>
      <point x="566.4" y="976.0" type="curve"/>
      <point x="500.20000000000005" y="1052.4"/>
      <point x="481.4" y="1064.4"/>
      <point x="487.8" y="1112.6" type="curve" smooth="yes"/>
      <point x="497.4" y="1179.1999999999998"/>
      <point x="561.4" y="1234.0"/>
      <point x="626.4" y="1234.0" type="curve" smooth="yes"/>
      <point x="671.0" y="1234.0"/>
      <point x="715.6" y="1199.6000000000001"/>
      <point x="707.2" y="1139.4" type="curve" smooth="yes"/>
      <point x="698.6" y="1078.0"/>
      <point x="674.0" y="1068.3999999999999"/>
    </contour>
  </outline>
</glyph>
<glyph name="quotesingle" format="2">
  <advance width="295.0"/>
  <unicode hex="0027"/>
  <outline>
    <contour>
      <point x="118.2" y="878.0" type="line"/>
      <point x="283.0" y="878.0" type="line"/>
      <point x="356.0" y="1400.0" type="line"/>
      <point x="191.2" y="1400.0" type="line"/>
    </contour>
  </outline>
</glyph>
<glyph name="parenleft" format="2">
  <advance width="753.5"/>
  <unicode hex="0028"/>
  <outline>
    <contour>
      <point x="333.0" y="-107.2" type="curve"/>
      <point x="562.8000000000001" y="-116.8" type="line"/>
      <point x="439.8" y="46.800000000000004"/>
      <point x="338.2" y="324.4"/>
      <point x="378.4" y="630.6" type="curve" smooth="yes"/>
      <point x="418.59999999999997" y="893.6"/>
      <point x="632.2" y="1297.2"/>
      <point x="785.0" y="1396.8" type="curve"/>
      <point x="534.2" y="1402.6" type="line"/>
      <point x="350.20000000000005" y="1314.1999999999998"/>
      <point x="175.0" y="893.6"/>
      <point x="142.6" y="657.4" type="curve" smooth="yes"/>
      <point x="98.2" y="342.0"/>
      <point x="154.0" y="94.8"/>
    </contour>
  </outline>
</glyph>
<glyph name="parenright" format="2">
  <advance width="753.5"/>
  <unicode hex="0029"/>
  <outline>
    <contour>
      <point x="10.2" y="-107.2" type="curve"/>
      <point x="258.2" y="-116.8" type="line"/>
      <point x="493.80000000000007" y="85.2"/>
      <point x="609.2" y="329.20000000000005"/>
      <point x="652.0" y="630.6" type="curve" smooth="yes"/>
      <point x="686.6" y="880.4000000000001"/>
      <point x="619.6" y="1309.0"/>
      <point x="459.6" y="1397.4" type="curve"/>
      <point x="232.4" y="1403.2" type="line"/>
      <point x="358.40000000000003" y="1303.6000000000001"/>
      <point x="447.79999999999995" y="906.4"/>
      <point x="416.20000000000005" y="657.4" type="curve" smooth="yes"/>
      <point x="368.0" y="337.59999999999997"/>
      <point x="179.0" y="56.4"/>
    </contour>
  </outline>
</glyph>
<glyph name="asterisk" format="2">
  <advance width="723.0"/>
  <unicode hex="002A"/>
  <outline>
    <contour>
      <point x="296.2" y="836.0" type="line"/>
      <point x="418.59999999999997" y="975.6" type="line"/>
      <point x="498.2" y="836.0" type="line"/>
      <point x="641.1999999999999" y="933.6" type="line"/>
      <point x="557.4" y="1072.4" type="line"/>
      <point x="729.6" y="1124.4" type="line"/>
      <point x="699.4" y="1282.4" type="line"/>
      <point x="530.6" y="1229.6" type="line"/>
      <point x="555.8000000000001" y="1400.0" type="line"/>
      <point x="390.0" y="1400.0" type="line"/>
      <point x="365.8" y="1229.6" type="line"/>
      <point x="206.6" y="1282.4" type="line"/>
      <point x="136.4" y="1124.4" type="line"/>
      <point x="291.4" y="1072.4" type="line"/>
      <point x="170.6" y="933.6" type="line"/>
    </contour>
  </outline>
</glyph>
<glyph name="plus" format="2">
  <advance width="1160.0"/>
  <unicode hex="002B"/>
  <outline>
    <contour>
      <point x="404.0" y="100.0" type="line"/>
      <point x="644.0" y="100.0" type="line"/>
      <point x="697.4" y="480.0" type="line"/>
      <point x="1077.4" y="480.0" type="line"/>
      <point x="1110.6" y="720.0" type="line"/>
      <point x="730.6" y="720.0" type="line"/>
      <point x="784.0" y="1100.0" type="line"/>
      <point x="544.0" y="1100.0" type="line"/>
      <point x="490.6" y="720.0" type="line"/>
      <point x="110.6" y="720.0" type="line"/>
      <point x="77.4" y="480.0" type="line"/>
      <point x="457.4" y="480.0" type="line"/>
    </contour>
  </outline>
</glyph>
<glyph name="comma" format="2">
  <advance width="502.0"/>
  <unicode hex="002C"/>
  <outline>
    <contour>
      <point x="-6.6" y="-112.0" type="line"/>
      <point x="156.2" y="-112.0" type="line"/>
      <point x="345.6" y="226.0" type="line"/>
      <point x="102.4" y="226.0" type="line"/>
    </contour>
  </outline>
</glyph>
<glyph name="hyphen" format="2">
  <advance width="880.0"/>
  <unicode hex="002D"/>
  <outline>
    <contour>
      <point x="150.6" y="720.0" type="line"/>
      <point x="117.4" y="480.0" type="line"/>
      <point x="757.4" y="480.0" type="line"/>
      <point x="790.6" y="720.0" type="line"/>
    </contour>
  </outline>
</glyph>
<glyph name="period" format="2">
  <advance width="447.5"/>
  <unicode hex="002E"/>
  <outline>
    <contour>
      <point x="143.0" y="-26.0" type="curve" smooth="yes"/>
      <point x="204.00000000000003" y="-26.0"/>
      <point x="260.40000000000003" y="22.0"/>
      <point x="269.40000000000003" y="84.6" type="curve" smooth="yes"/>
      <point x="280.0" y="159.2"/>
      <point x="225.60000000000002" y="221.6"/>
      <point x="150.6" y="221.6" type="curve" smooth="yes"/>
      <point x="88.80000000000001" y="221.6"/>
      <point x="34.0" y="172.0"/>
      <point x="25.6" y="111.4" type="curve" smooth="yes"/>
      <point x="15.0" y="35.199999999999996"/>
      <point x="67.2" y="-26.0"/>
    </contour>
  </outline>
</glyph>
<glyph name="slash" format="2">
  <advance width="805.5"/>
  <unicode hex="002F"/>
  <outline>
    <contour>
      <point x="854.2" y="1400.0" type="line"/>
      <point x="610.0" y="1400.0" type="line"/>
      <point x="-7.6" y="-112.0" type="line"/>
      <point x="235.6" y="-112.0" type="line"/>
    </contour>
  </outline>
</glyph>
<glyph name="zero" format="2">
  <advance width="1208.0"/>
  <unicode hex="0030"/>
  <outline>
    <contour>
      <point x="544.6" y="-26.0" type="curve" smooth="yes"/>
      <point x="862.4" y="-26.0"/>
      <point x="1119.4" y="293.6"/>
      <point x="1174.4" y="686.6" type="curve" smooth="yes"/>
      <point x="1231.4" y="1094.0"/>
      <point x="1053.6" y="1426.0"/>
      <point x="721.4000000000001" y="1426.0" type="curve" smooth="yes"/>
      <point x="403.20000000000005" y="1426.0"/>
      <point x="145.6" y="1107.2"/>
      <point x="89.6" y="713.4" type="curve" smooth="yes"/>
      <point x="32.6" y="306.4"/>
      <point x="212.00000000000003" y="-26.0"/>
    </contour>
    <contour>
      <point x="551.0" y="214.0" type="curve" smooth="yes"/>
      <point x="344.4" y="214.0"/>
      <point x="276.59999999999997" y="439.6"/>
      <point x="311.59999999999997" y="686.6" type="curve" smooth="yes"/>
      <point x="348.0" y="946.4000000000001"/>
      <point x="489.59999999999997" y="1186.0"/>
      <point x="715.0" y="1186.0" type="curve" smooth="yes"/>
      <point x="915.6" y="1186.0"/>
      <point x="990.0" y="974.4"/>
      <point x="952.8000000000001" y="713.4" type="curve" smooth="yes"/>
      <point x="916.6" y="452.0"/>
      <point x="773.6" y="214.0"/>
    </contour>
  </outline>
</glyph>
<glyph name="one" format="2">
  <advance width="655.0"/>
  <unicode hex="0031"/>
  <outline>
    <contour>
      <point x="185.2" y="0.0" type="line"/>
      <point x="425.2" y="0.0" type="line"/>
      <point x="621.2" y="1400.0" type="line"/>
      <point x="269.59999999999997" y="1400.0" type="line"/>
      <point x="171.2" y="1160.0" type="line"/>
      <point x="347.59999999999997" y="1160.0" type="line"/>
    </contour>
  </outline>
</glyph>
<glyph name="two" format="2">
  <advance width="1141.0"/>
  <unicode hex="0032"/>
  <outline>
    <contour>
      <point x="10.0" y="0.0" type="line"/>
      <point x="951.2" y="0.0" type="line"/>
      <point x="984.4000000000001" y="240.0" type="line"/>
      <point x="486.2" y="235.2" type="line"/>
      <point x="792.8" y="493.59999999999997"/>
      <point x="1044.6000000000001" y="727.2"/>
      <point x="1075.4" y="948.2" type="curve" smooth="yes"/>
      <point x="1113.4" y="1212.4"/>
      <point x="928.4000000000001" y="1426.0"/>
      <point x="667.4000000000001" y="1426.0" type="curve" smooth="yes"/>
      <point x="423.20000000000005" y="1426.0"/>
      <point x="189.6" y="1230.0"/>
      <point x="152.6" y="968.0" type="curve"/>
      <point x="391.4" y="955.2" type="line"/>
      <point x="408.2" y="1078.0"/>
      <point x="530.8" y="1186.0"/>
      <point x="661.0" y="1186.0" type="curve" smooth="yes"/>
      <point x="776.8" y="1186.0"/>
      <point x="855.8000000000001" y="1091.2"/>
      <point x="839.6" y="975.0" type="curve" smooth="yes"/>
      <point x="812.2" y="781.1999999999999"/>
      <point x="277.40000000000003" y="384.4"/>
      <point x="34.6" y="217.2" type="curve"/>
    </contour>
  </outline>
</glyph>
<glyph name="three" format="2">
  <advance width="1021.0"/>
  <unicode hex="0033"/>
  <outline>
    <contour>
      <point x="450.2" y="-26.0" type="curve" smooth="yes"/>
      <point x="688.0" y="-26.0"/>
      <point x="914.4000000000001" y="168.0"/>
      <point x="948.2" y="406.20000000000005" type="curve" smooth="yes"/>
      <point x="967.8000000000001" y="547.2"/>
      <point x="917.1999999999999" y="695.0"/>
      <point x="806.2" y="737.0" type="curve"/>
      <point x="913.4" y="782.4"/>
      <point x="977.0" y="896.4000000000001"/>
      <point x="991.4" y="1000.2" type="curve" smooth="yes"/>
      <point x="1024.8" y="1236.4"/>
      <point x="849.6" y="1427.6"/>
      <point x="618.4000000000001" y="1427.6" type="curve" smooth="yes"/>
      <point x="396.0" y="1427.6"/>
      <point x="171.6" y="1248.0"/>
      <point x="139.8" y="1020.0" type="curve"/>
      <point x="378.2" y="1007.2" type="line"/>
      <point x="391.4" y="1102.0"/>
      <point x="510.6" y="1187.6"/>
      <point x="614.2" y="1187.6" type="curve" smooth="yes"/>
      <point x="702.6" y="1187.6"/>
      <point x="768.2" y="1115.2"/>
      <point x="755.6" y="1027.0" type="curve" smooth="yes"/>
      <point x="737.4" y="896.0"/>
      <point x="615.2" y="826.0"/>
      <point x="449.59999999999997" y="826.0" type="curve"/>
      <point x="437.0" y="640.0" type="line"/>
      <point x="621.4000000000001" y="640.0"/>
      <point x="731.0" y="573.6"/>
      <point x="711.4000000000001" y="433.0" type="curve" smooth="yes"/>
      <point x="695.2" y="313.59999999999997"/>
      <point x="575.6" y="214.0"/>
      <point x="456.59999999999997" y="214.0" type="curve" smooth="yes"/>
      <point x="341.2" y="214.0"/>
      <point x="271.4" y="300.4"/>
      <point x="287.6" y="413.20000000000005" type="curve"/>
      <point x="49.6" y="426.0" type="line"/>
      <point x="14.8" y="179.6"/>
      <point x="189.6" y="-26.0"/>
    </contour>
  </outline>
</glyph>
<glyph name="four" format="2">
  <advance width="1155.5"/>
  <unicode hex="0034"/>
  <outline>
    <contour>
      <point x="606.4" y="0.0" type="line"/>
      <point x="846.4" y="0.0" type="line"/>
      <point x="894.1999999999999" y="341.2" type="line"/>
      <point x="1012.9999999999999" y="341.2" type="line"/>
      <point x="1046.6" y="581.2" type="line"/>
      <point x="927.4" y="581.2" type="line"/>
      <point x="1042.4" y="1400.0" type="line"/>
      <point x="744.1999999999999" y="1400.0" type="line"/>
      <point x="88.8" y="582.0" type="line"/>
      <point x="57.4" y="341.2" type="line"/>
      <point x="654.1999999999999" y="341.2" type="line"/>
    </contour>
    <contour>
      <point x="372.59999999999997" y="582.0" type="line"/>
      <point x="758.6" y="1072.4" type="line"/>
      <point x="687.4" y="581.2" type="line"/>
    </contour>
  </outline>
</glyph>
<glyph name="five" format="2">
  <advance width="1147.5"/>
  <unicode hex="0035"/>
  <outline>
    <contour>
      <point x="489.0" y="-26.0" type="curve" smooth="yes"/>
      <point x="746.4" y="-26.0"/>
      <point x="983.1999999999999" y="183.6"/>
      <point x="1019.3999999999999" y="438.6" type="curve" smooth="yes"/>
      <point x="1057.0" y="713.2"/>
      <point x="881.1999999999999" y="924.0"/>
      <point x="598.4" y="933.2" type="curve"/>
      <point x="505.2" y="934.4" type="line"/>
      <point x="583.2" y="1160.0" type="line"/>
      <point x="1073.6000000000001" y="1160.0" type="line"/>
      <point x="1107.2" y="1400.0" type="line"/>
      <point x="419.4" y="1400.0" type="line"/>
      <point x="173.39999999999998" y="694.4" type="line"/>
      <point x="540.2" y="694.4" type="line" smooth="yes"/>
      <point x="742.6" y="694.4"/>
      <point x="800.2" y="590.4"/>
      <point x="782.6" y="465.4" type="curve" smooth="yes"/>
      <point x="763.0" y="326.4"/>
      <point x="633.2" y="214.0"/>
      <point x="495.40000000000003" y="214.0" type="curve" smooth="yes"/>
      <point x="370.4" y="214.0"/>
      <point x="283.8" y="313.6"/>
      <point x="302.4" y="445.6" type="curve"/>
      <point x="64.0" y="458.4" type="line"/>
      <point x="27.8" y="199.6"/>
      <point x="212.00000000000003" y="-26.0"/>
    </contour>
  </outline>
</glyph>
<glyph name="six" format="2">
  <advance width="1097.5"/>
  <unicode hex="0036"/>
  <outline>
    <contour>
      <point x="481.4" y="-26.0" type="curve" smooth="yes"/>
      <point x="748.4" y="-26.0"/>
      <point x="994.1999999999999" y="190.39999999999998"/>
      <point x="1031.1999999999998" y="454.6" type="curve" smooth="yes"/>
      <point x="1072.1999999999998" y="746.0"/>
      <point x="852.8000000000001" y="967.0"/>
      <point x="580.8000000000001" y="943.0" type="curve"/>
      <point x="918.4000000000001" y="1400.0" type="line"/>
      <point x="634.1999999999999" y="1400.0" type="line"/>
      <point x="143.8" y="724.6" type="line" smooth="yes"/>
      <point x="88.8" y="642.6"/>
      <point x="59.6" y="566.4"/>
      <point x="47.4" y="481.4" type="curve" smooth="yes"/>
      <point x="8.2" y="202.0"/>
      <point x="205.6" y="-26.0"/>
    </contour>
    <contour>
      <point x="488.2" y="214.0" type="curve" smooth="yes"/>
      <point x="363.2" y="214.0"/>
      <point x="264.2" y="316.0"/>
      <point x="283.6" y="453.4" type="curve" smooth="yes"/>
      <point x="303.6" y="593.6"/>
      <point x="433.0" y="721.6"/>
      <point x="588.6" y="721.6" type="curve" smooth="yes"/>
      <point x="724.6" y="721.6"/>
      <point x="813.8000000000001" y="613.1999999999999"/>
      <point x="794.4" y="480.59999999999997" type="curve" smooth="yes"/>
      <point x="775.4" y="343.59999999999997"/>
      <point x="642.8000000000001" y="214.0"/>
    </contour>
  </outline>
</glyph>
<glyph name="seven" format="2">
  <advance width="1098.5"/>
  <unicode hex="0037"/>
  <outline>
    <contour>
      <point x="38.99999999999999" y="0.0" type="line"/>
      <point x="320.2" y="0.0" type="line"/>
      <point x="1153.4" y="1160.0" type="line"/>
      <point x="1184.4" y="1400.0" type="line"/>
      <point x="166.0" y="1400.0" type="line"/>
      <point x="132.4" y="1160.0" type="line"/>
      <point x="870.2" y="1160.0" type="line"/>
    </contour>
  </outline>
</glyph>
<glyph name="eight" format="2">
  <advance width="1088.5"/>
  <unicode hex="0038"/>
  <outline>
    <contour>
      <point x="483.0" y="-26.0" type="curve" smooth="yes"/>
      <point x="733.6" y="-26.0"/>
      <point x="961.0" y="163.6"/>
      <point x="994.1999999999999" y="398.6" type="curve" smooth="yes"/>
      <point x="1013.4" y="534.0"/>
      <point x="963.0" y="653.6"/>
      <point x="875.0" y="727.1999999999999" type="curve"/>
      <point x="970.4" y="801.2"/>
      <point x="1032.6000000000001" y="900.0"/>
      <point x="1047.2" y="1004.6" type="curve" smooth="yes"/>
      <point x="1079.6000000000001" y="1236.4"/>
      <point x="905.6" y="1426.0"/>
      <point x="660.2" y="1426.0" type="curve" smooth="yes"/>
      <point x="428.4" y="1426.0"/>
      <point x="216.20000000000002" y="1249.6000000000001"/>
      <point x="185.4" y="1031.4" type="curve" smooth="yes"/>
      <point x="168.8" y="913.1999999999999"/>
      <point x="211.6" y="810.8"/>
      <point x="277.6" y="745.6" type="curve"/>
      <point x="161.2" y="663.1999999999999"/>
      <point x="86.6" y="547.1999999999999"/>
      <point x="69.6" y="425.4" type="curve" smooth="yes"/>
      <point x="34.2" y="175.20000000000002"/>
      <point x="218.4" y="-26.0"/>
    </contour>
    <contour>
      <point x="489.40000000000003" y="214.0" type="curve" smooth="yes"/>
      <point x="380.8" y="214.0"/>
      <point x="303.4" y="296.0"/>
      <point x="317.4" y="398.6" type="curve" smooth="yes"/>
      <point x="334.0" y="515.2"/>
      <point x="449.40000000000003" y="610.0"/>
      <point x="572.4" y="610.0" type="curve" smooth="yes"/>
      <point x="682.6" y="610.0"/>
      <point x="759.4000000000001" y="528.0"/>
      <point x="744.4000000000001" y="425.4" type="curve" smooth="yes"/>
      <point x="728.2" y="309.2"/>
      <point x="613.6" y="214.0"/>
    </contour>
    <contour>
      <point x="579.2" y="850.0" type="curve" smooth="yes"/>
      <point x="486.6" y="850.0"/>
      <point x="423.2" y="919.2"/>
      <point x="434.8" y="1004.6" type="curve" smooth="yes"/>
      <point x="449.0" y="1104.0"/>
      <point x="546.8" y="1186.0"/>
      <point x="653.4" y="1186.0" type="curve" smooth="yes"/>
      <point x="745.6" y="1186.0"/>
      <point x="809.4000000000001" y="1117.2"/>
      <point x="797.8000000000001" y="1031.4" type="curve" smooth="yes"/>
      <point x="783.6" y="932.0"/>
      <point x="685.8000000000001" y="850.0"/>
    </contour>
  </outline>
</glyph>
<glyph name="nine" format="2">
  <advance width="1095.0"/>
  <unicode hex="0039"/>
  <outline>
    <contour>
      <point x="219.4" y="0.0" type="line"/>
      <point x="502.2" y="0.0" type="line"/>
      <point x="999.4" y="685.0" type="line" smooth="yes"/>
      <point x="1054.1999999999998" y="766.2"/>
      <point x="1083.4" y="841.2"/>
      <point x="1095.2" y="924.6" type="curve" smooth="yes"/>
      <point x="1133.0" y="1200.4"/>
      <point x="938.0" y="1426.0"/>
      <point x="665.4000000000001" y="1426.0" type="curve" smooth="yes"/>
      <point x="402.0" y="1426.0"/>
      <point x="160.4" y="1212.0"/>
      <point x="123.2" y="951.4" type="curve" smooth="yes"/>
      <point x="83.4" y="665.1999999999999"/>
      <point x="298.2" y="447.0"/>
      <point x="565.2" y="468.6" type="curve"/>
    </contour>
    <contour>
      <point x="560.2" y="690.0" type="curve" smooth="yes"/>
      <point x="427.40000000000003" y="690.0"/>
      <point x="341.2" y="796.0"/>
      <point x="359.2" y="925.4000000000001" type="curve" smooth="yes"/>
      <point x="377.8" y="1060.0"/>
      <point x="507.59999999999997" y="1186.4"/>
      <point x="659.0" y="1186.4" type="curve" smooth="yes"/>
      <point x="781.2" y="1186.4"/>
      <point x="877.8000000000001" y="1087.2"/>
      <point x="859.4" y="952.6" type="curve" smooth="yes"/>
      <point x="840.2" y="815.6"/>
      <point x="712.6" y="690.0"/>
    </contour>
  </outline>
</glyph>
<glyph name="colon" format="2">
  <advance width="447.5"/>
  <unicode hex="003A"/>
  <outline>
    <contour>
      <point x="252.60000000000002" y="752.4" type="curve" smooth="yes"/>
      <point x="313.20000000000005" y="752.4"/>
      <point x="369.6" y="800.4000000000001"/>
      <point x="378.6" y="863.0" type="curve" smooth="yes"/>
      <point x="389.20000000000005" y="937.6"/>
      <point x="335.20000000000005" y="1000.0"/>
      <point x="260.8" y="1000.0" type="curve" smooth="yes"/>
      <point x="198.4" y="1000.0"/>
      <point x="143.6" y="950.4"/>
      <point x="135.2" y="890.1999999999999" type="curve" smooth="yes"/>
      <point x="124.6" y="813.6"/>
      <point x="176.4" y="752.4"/>
    </contour>
    <contour>
      <point x="143.0" y="-26.0" type="curve" smooth="yes"/>
      <point x="204.00000000000003" y="-26.0"/>
      <point x="260.40000000000003" y="22.0"/>
      <point x="269.40000000000003" y="84.6" type="curve" smooth="yes"/>
      <point x="280.0" y="159.2"/>
      <point x="225.60000000000002" y="221.6"/>
      <point x="150.6" y="221.6" type="curve" smooth="yes"/>
      <point x="88.80000000000001" y="221.6"/>
      <point x="34.0" y="172.0"/>
      <point x="25.6" y="111.4" type="curve" smooth="yes"/>
      <point x="15.0" y="35.199999999999996"/>
      <point x="67.2" y="-26.0"/>
    </contour>
  </outline>
</glyph>
<glyph name="semicolon" format="2">
  <advance width="505.0"/>
  <unicode hex="003B"/>
  <outline>
    <contour>
      <point x="-6.6" y="-112.0" type="line"/>
      <point x="156.2" y="-112.0" type="line"/>
      <point x="345.6" y="226.0" type="line"/>
      <point x="102.4" y="226.0" type="line"/>
    </contour>
    <contour>
      <point x="310.6" y="752.4" type="curve" smooth="yes"/>
      <point x="370.8" y="752.4"/>
      <point x="427.2" y="800.4000000000001"/>
      <point x="436.2" y="862.6" type="curve" smooth="yes"/>
      <point x="446.8" y="937.6"/>
      <point x="392.8" y="1000.0"/>
      <point x="318.8" y="1000.0" type="curve" smooth="yes"/>
      <point x="255.6" y="1000.0"/>
      <point x="201.2" y="950.4"/>
      <point x="192.4" y="889.4" type="curve" smooth="yes"/>
      <point x="182.2" y="813.6"/>
      <point x="233.6" y="752.4"/>
    </contour>
  </outline>
</glyph>
<glyph name="less" format="2">
  <advance width="1160.0"/>
  <unicode hex="003C"/>
  <outline>
    <contour>
      <point x="1026.2" y="115.2" type="line"/>
      <point x="1060.4" y="364.4" type="line"/>
      <point x="268.0" y="600.0" type="line"/>
      <point x="1127.6" y="835.2" type="line"/>
      <point x="1162.2" y="1085.2" type="line"/>
      <point x="121.8" y="799.2" type="line"/>
      <point x="66.2" y="399.2" type="line"/>
    </contour>
  </outline>
</glyph>
<glyph name="equal" format="2">
  <advance width="1160.0"/>
  <unicode hex="003D"/>
  <outline>
    <contour>
      <point x="47.2" y="265.6" type="line"/>
      <point x="1047.2" y="265.6" type="line"/>
      <point x="1080.8" y="505.6" type="line"/>
      <point x="80.8" y="505.6" type="line"/>
    </contour>
    <contour>
      <point x="107.2" y="694.4" type="line"/>
      <point x="1107.2" y="694.4" type="line"/>
      <point x="1140.8" y="934.4" type="line"/>
      <point x="140.8" y="934.4" type="line"/>
    </contour>
  </outline>
</glyph>
<glyph name="greater" format="2">
  <advance width="1160.0"/>
  <unicode hex="003E"/>
  <outline>
    <contour>
      <point x="27.8" y="124.0" type="line"/>
      <point x="1066.2" y="399.2" type="line"/>
      <point x="1121.8" y="799.2" type="line"/>
      <point x="160.6" y="1076.0" type="line"/>
      <point x="126.0" y="826.0" type="line"/>
      <point x="920.0" y="600.0" type="line"/>
      <point x="62.0" y="373.6" type="line"/>
    </contour>
  </outline>
</glyph>
<glyph name="question" format="2">
  <advance width="1103.5"/>
  <unicode hex="003F"/>
  <outline>
    <contour>
      <point x="416.6" y="437.2" type="curve"/>
      <point x="655.0" y="424.0" type="line"/>
      <point x="663.6" y="486.20000000000005"/>
      <point x="709.6" y="543.4"/>
      <point x="772.8000000000001" y="568.4000000000001" type="curve" smooth="yes"/>
      <point x="922.6" y="648.8"/>
      <point x="1025.6" y="799.2"/>
      <point x="1048.3999999999999" y="962.6" type="curve" smooth="yes"/>
      <point x="1084.6" y="1217.6"/>
      <point x="904.8000000000001" y="1426.4"/>
      <point x="648.2" y="1426.4" type="curve" smooth="yes"/>
      <point x="406.4" y="1426.4"/>
      <point x="182.6" y="1230.4"/>
      <point x="148.0" y="982.4" type="curve"/>
      <point x="386.4" y="969.6" type="line"/>
      <point x="402.8" y="1086.4"/>
      <point x="518.0" y="1186.4"/>
      <point x="641.4" y="1186.4" type="curve" smooth="yes"/>
      <point x="751.2" y="1186.4"/>
      <point x="827.6" y="1099.6000000000001"/>
      <point x="812.2" y="989.4" type="curve" smooth="yes"/>
      <point x="800.0" y="900.0"/>
      <point x="743.4" y="824.8000000000001"/>
      <point x="667.2" y="793.1999999999999" type="curve" smooth="yes"/>
      <point x="530.4" y="717.8000000000001"/>
      <point x="438.0" y="587.0"/>
    </contour>
    <contour>
      <point x="493.4" y="-26.0" type="curve" smooth="yes"/>
      <point x="554.4" y="-26.0"/>
      <point x="609.1999999999999" y="22.4"/>
      <point x="618.1999999999999" y="86.19999999999999" type="curve" smooth="yes"/>
      <point x="629.1999999999999" y="160.39999999999998"/>
      <point x="576.4" y="221.6"/>
      <point x="501.0" y="221.6" type="curve" smooth="yes"/>
      <point x="439.2" y="221.6"/>
      <point x="384.4" y="173.6"/>
      <point x="376.4" y="113.0" type="curve" smooth="yes"/>
      <point x="365.4" y="35.6"/>
      <point x="417.59999999999997" y="-26.0"/>
    </contour>
  </outline>
</glyph>
<glyph name="at" format="2">
  <advance width="1830.25"/>
  <unicode hex="0040"/>
  <outline>
    <contour>
      <point x="816.6" y="-248.4" type="curve"/>
      <point x="836.8" y="-8.399999999999999" type="line"/>
      <point x="506.79999999999995" y="-8.399999999999999"/>
      <point x="280.0" y="214.6"/>
      <point x="325.4" y="536.6" type="curve" smooth="yes"/>
      <point x="372.4" y="874.4"/>
      <point x="686.4" y="1146.0"/>
      <point x="1019.1999999999999" y="1146.0" type="curve" smooth="yes"/>
      <point x="1338.3999999999999" y="1146.0"/>
      <point x="1564.4" y="887.4"/>
      <point x="1519.0" y="563.8" type="curve" smooth="yes"/>
      <point x="1503.4" y="454.59999999999997"/>
      <point x="1435.8" y="278.4"/>
      <point x="1336.4" y="278.4" type="curve" smooth="yes"/>
      <point x="1295.6" y="278.4"/>
      <point x="1271.6000000000001" y="304.20000000000005"/>
      <point x="1278.8000000000002" y="355.20000000000005" type="curve" smooth="yes"/>
      <point x="1354.0" y="889.8" type="line"/>
      <point x="1179.4" y="927.4" type="line"/>
      <point x="1166.2" y="870.1999999999999" type="line"/>
      <point x="1123.1999999999998" y="916.4"/>
      <point x="1030.4" y="948.0"/>
      <point x="942.2" y="948.0" type="curve" smooth="yes"/>
      <point x="730.2" y="948.0"/>
      <point x="534.2" y="776.4"/>
      <point x="504.20000000000005" y="563.8" type="curve" smooth="yes"/>
      <point x="472.20000000000005" y="337.4"/>
      <point x="631.0" y="152.4"/>
      <point x="857.4" y="152.4" type="curve" smooth="yes"/>
      <point x="939.1999999999999" y="152.4"/>
      <point x="1015.1999999999999" y="180.4"/>
      <point x="1077.4" y="240.20000000000002" type="curve"/>
      <point x="1077.1999999999998" y="134.6"/>
      <point x="1215.2" y="38.4"/>
      <point x="1344.8" y="38.4" type="curve" smooth="yes"/>
      <point x="1564.8" y="38.4"/>
      <point x="1720.6000000000001" y="290.20000000000005"/>
      <point x="1755.8000000000002" y="536.6" type="curve" smooth="yes"/>
      <point x="1821.0" y="1002.2"/>
      <point x="1497.6" y="1386.0"/>
      <point x="1026.6000000000001" y="1386.0" type="curve" smooth="yes"/>
      <point x="571.4" y="1386.0"/>
      <point x="153.2" y="1018.6"/>
      <point x="88.6" y="563.8" type="curve" smooth="yes"/>
      <point x="23.4" y="95.0"/>
      <point x="354.8" y="-248.4"/>
    </contour>
    <contour>
      <point x="874.8000000000001" y="331.4" type="curve" smooth="yes"/>
      <point x="762.4" y="331.4"/>
      <point x="682.4" y="422.4"/>
      <point x="699.0" y="536.6" type="curve" smooth="yes"/>
      <point x="716.8000000000001" y="665.6"/>
      <point x="836.4" y="768.6"/>
      <point x="963.2" y="768.6" type="curve" smooth="yes"/>
      <point x="1081.2" y="768.6"/>
      <point x="1144.3999999999999" y="677.1999999999999"/>
      <point x="1129.0" y="568.1999999999999" type="curve" smooth="yes"/>
      <point x="1111.6" y="444.40000000000003"/>
      <point x="1001.5999999999999" y="331.4"/>
    </contour>
  </outline>
</glyph>
<glyph name="A" format="2">
  <advance width="1453.5"/>
  <unicode hex="0041"/>
  <outline>
    <contour>
      <point x="713.1999999999999" y="1400.0" type="line"/>
      <point x="7.4" y="0.0" type="line"/>
      <point x="266.0" y="0.0" type="line"/>
      <point x="392.20000000000005" y="250.0" type="line"/>
      <point x="994.6" y="250.0" type="line"/>
      <point x="1050.4" y="0.0" type="line"/>
      <point x="1301.0" y="0.0" type="line"/>
      <point x="989.6" y="1400.0" type="line"/>
    </contour>
    <contour>
      <point x="513.8000000000001" y="490.0" type="line"/>
      <point x="810.6" y="1075.6" type="line"/>
      <point x="940.2" y="490.0" type="line"/>
    </contour>
  </outline>
</glyph>
<glyph name="B" format="2">
  <advance width="1172.0"/>
  <unicode hex="0042"/>
  <outline>
    <contour>
      <point x="50.0" y="0.0" type="line"/>
      <point x="621.6" y="0.0" type="line" smooth="yes"/>
      <point x="845.2" y="0.0"/>
      <point x="1043.6" y="159.2"/>
      <point x="1074.2" y="373.4" type="curve" smooth="yes"/>
      <point x="1094.4" y="514.4000000000001"/>
      <point x="1079.0" y="722.1999999999999"/>
      <point x="917.1999999999999" y="763.5999999999999" type="curve"/>
      <point x="1026.2" y="804.4"/>
      <point x="1081.8" y="916.0"/>
      <point x="1095.2" y="1012.1999999999999" type="curve" smooth="yes"/>
      <point x="1128.4" y="1250.0"/>
      <point x="968.8000000000001" y="1399.6"/>
      <point x="748.4" y="1399.6" type="curve" smooth="yes"/>
      <point x="246.0" y="1399.6" type="line"/>
    </contour>
    <contour>
      <point x="318.2" y="205.6" type="line"/>
      <point x="382.0" y="653.8" type="line"/>
      <point x="689.6" y="653.8" type="line" smooth="yes"/>
      <point x="809.2" y="653.8"/>
      <point x="884.8000000000001" y="553.1999999999999"/>
      <point x="869.6" y="447.0" type="curve" smooth="yes"/>
      <point x="850.8000000000001" y="308.4"/>
      <point x="732.6" y="205.6"/>
      <point x="613.4" y="205.6" type="curve" smooth="yes"/>
    </contour>
    <contour>
      <point x="410.2" y="856.2" type="line"/>
      <point x="457.8" y="1192.4" type="line"/>
      <point x="705.4" y="1192.4" type="line" smooth="yes"/>
      <point x="805.0" y="1192.4"/>
      <point x="873.4000000000001" y="1142.4"/>
      <point x="859.0" y="1040.6000000000001" type="curve" smooth="yes"/>
      <point x="843.2" y="929.6"/>
      <point x="744.0" y="856.2"/>
      <point x="644.4" y="856.2" type="curve" smooth="yes"/>
    </contour>
  </outline>
</glyph>
<glyph name="C" format="2">
  <advance width="1398.0"/>
  <unicode hex="0043"/>
  <outline>
    <contour>
      <point x="687.4" y="-26.0" type="curve"/>
      <point x="906.4" y="-26.0"/>
      <point x="1117.2" y="82.19999999999999"/>
      <point x="1268.2" y="256.6" type="curve"/>
      <point x="1062.2" y="383.2" type="line"/>
      <point x="969.4" y="283.59999999999997"/>
      <point x="836.4000000000001" y="214.0"/>
      <point x="694.2" y="214.0" type="curve"/>
      <point x="454.4" y="214.0"/>
      <point x="289.6" y="426.0"/>
      <point x="326.4" y="686.6" type="curve"/>
      <point x="364.4" y="960.0"/>
      <point x="602.4" y="1186.0"/>
      <point x="858.2" y="1186.0" type="curve"/>
      <point x="983.1999999999999" y="1186.0"/>
      <point x="1095.4" y="1126.8"/>
      <point x="1162.8" y="1027.2" type="curve"/>
      <point x="1384.2" y="1132.1999999999998" type="line"/>
      <point x="1281.2" y="1306.6"/>
      <point x="1097.6" y="1426.0"/>
      <point x="864.6" y="1426.0" type="curve"/>
      <point x="491.6" y="1426.0"/>
      <point x="145.6" y="1108.0"/>
      <point x="89.6" y="713.4" type="curve"/>
      <point x="32.6" y="306.0"/>
      <point x="300.4" y="-26.0"/>
    </contour>
  </outline>
</glyph>
<glyph name="D" format="2">
  <advance width="1343.5"/>
  <unicode hex="0044"/>
  <outline>
    <contour>
      <point x="50.0" y="0.0" type="line"/>
      <point x="519.6" y="0.0" type="line" smooth="yes"/>
      <point x="906.4" y="0.0"/>
      <point x="1256.6" y="307.6"/>
      <point x="1310.0" y="686.6" type="curve" smooth="yes"/>
      <point x="1364.6" y="1079.6"/>
      <point x="1089.6" y="1400.0"/>
      <point x="703.2" y="1400.0" type="curve" smooth="yes"/>
      <point x="246.0" y="1400.0" type="line"/>
    </contour>
    <contour>
      <point x="323.6" y="240.0" type="line"/>
      <point x="452.4" y="1160.0" type="line"/>
      <point x="683.4" y="1160.0" type="line" smooth="yes"/>
      <point x="935.4" y="1160.0"/>
      <point x="1108.0" y="960.0"/>
      <point x="1073.1999999999998" y="713.4" type="curve" smooth="yes"/>
      <point x="1036.8" y="451.59999999999997"/>
      <point x="791.6" y="240.0"/>
      <point x="540.4" y="240.0" type="curve" smooth="yes"/>
    </contour>
  </outline>
</glyph>
<glyph name="E" format="2">
  <advance width="1097.0"/>
  <unicode hex="0045"/>
  <outline>
    <contour>
      <point x="50.0" y="0.0" type="line"/>
      <point x="927.2" y="0.0" type="line"/>
      <point x="960.4000000000001" y="240.0" type="line"/>
      <point x="323.6" y="240.0" type="line"/>
      <point x="378.4" y="630.0" type="line"/>
      <point x="884.4" y="630.0" type="line"/>
      <point x="917.6" y="870.0" type="line"/>
      <point x="411.6" y="870.0" type="line"/>
      <point x="452.4" y="1160.0" type="line"/>
      <point x="1089.6000000000001" y="1160.0" type="line"/>
      <point x="1123.2" y="1400.0" type="line"/>
      <point x="246.0" y="1400.0" type="line"/>
    </contour>
  </outline>
</glyph>
<glyph name="F" format="2">
  <advance width="967.0"/>
  <unicode hex="0046"/>
  <outline>
    <contour>
      <point x="50.0" y="0.0" type="line"/>
      <point x="290.0" y="0.0" type="line"/>
      <point x="378.4" y="630.0" type="line"/>
      <point x="869.2" y="630.0" type="line"/>
      <point x="902.8000000000001" y="870.0" type="line"/>
      <point x="411.6" y="870.0" type="line"/>
      <point x="452.4" y="1160.0" type="line"/>
      <point x="1039.6000000000001" y="1160.0" type="line"/>
      <point x="1073.2" y="1400.0" type="line"/>
      <point x="246.0" y="1400.0" type="line"/>
    </contour>
  </outline>
</glyph>
<glyph name="G" format="2">
  <advance width="1496.75"/>
  <unicode hex="0047"/>
  <outline>
    <contour>
      <point x="688.1999999999999" y="-26.0" type="curve" smooth="yes"/>
      <point x="1068.0" y="-26.0"/>
      <point x="1416.6000000000001" y="303.20000000000005"/>
      <point x="1465.2" y="709.2" type="curve"/>
      <point x="925.1999999999999" y="715.6" type="line"/>
      <point x="895.4" y="505.6" type="line"/>
      <point x="1152.0" y="511.40000000000003" type="line"/>
      <point x="1053.2" y="329.8"/>
      <point x="874.8000000000001" y="214.0"/>
      <point x="697.4" y="214.0" type="curve" smooth="yes"/>
      <point x="455.59999999999997" y="214.0"/>
      <point x="289.0" y="422.4"/>
      <point x="325.8" y="683.4000000000001" type="curve" smooth="yes"/>
      <point x="366.0" y="972.0"/>
      <point x="614.8" y="1186.0"/>
      <point x="860.2" y="1186.0" type="curve" smooth="yes"/>
      <point x="973.6" y="1186.0"/>
      <point x="1086.6000000000001" y="1135.6000000000001"/>
      <point x="1162.8" y="1025.6000000000001" type="curve"/>
      <point x="1384.6000000000001" y="1131.0" type="line"/>
      <point x="1265.2" y="1326.1999999999998"/>
      <point x="1077.4" y="1424.4"/>
      <point x="869.4000000000001" y="1424.4" type="curve" smooth="yes"/>
      <point x="513.4" y="1424.4"/>
      <point x="148.8" y="1129.2"/>
      <point x="90.6" y="715.0" type="curve" smooth="yes"/>
      <point x="33.6" y="309.59999999999997"/>
      <point x="291.59999999999997" y="-26.0"/>
    </contour>
  </outline>
</glyph>
<glyph name="H" format="2">
  <advance width="1305.5"/>
  <unicode hex="0048"/>
  <outline>
    <contour>
      <point x="1071.6" y="1400.0" type="line"/>
      <point x="997.2" y="870.0" type="line"/>
      <point x="411.6" y="870.0" type="line"/>
      <point x="486.0" y="1400.0" type="line"/>
      <point x="246.0" y="1400.0" type="line"/>
      <point x="50.0" y="0.0" type="line"/>
      <point x="290.0" y="0.0" type="line"/>
      <point x="378.4" y="630.0" type="line"/>
      <point x="963.6" y="630.0" type="line"/>
      <point x="875.6" y="0.0" type="line"/>
      <point x="1115.6" y="0.0" type="line"/>
      <point x="1311.6" y="1400.0" type="line"/>
    </contour>
  </outline>
</glyph>
<glyph name="J" format="2">
  <advance width="885.0"/>
  <unicode hex="004A"/>
  <outline>
    <contour>
      <point x="262.2" y="-26.0" type="curve" smooth="yes"/>
      <point x="499.2" y="-26.0"/>
      <point x="719.0" y="171.2"/>
      <point x="752.6" y="414.4" type="curve" smooth="yes"/>
      <point x="891.2" y="1400.0" type="line"/>
      <point x="651.2" y="1400.0" type="line"/>
      <point x="515.2" y="427.59999999999997" type="line" smooth="yes"/>
      <point x="499.20000000000005" y="316.4"/>
      <point x="386.8" y="214.0"/>
      <point x="268.59999999999997" y="214.0" type="curve" smooth="yes"/>
      <point x="219.59999999999997" y="214.0"/>
      <point x="180.0" y="232.59999999999997"/>
      <point x="154.6" y="257.0" type="curve"/>
      <point x="-16.0" y="81.0" type="line"/>
      <point x="55.400000000000006" y="13.399999999999999"/>
      <point x="152.0" y="-26.0"/>
    </contour>
  </outline>
</glyph>
<glyph name="K" format="2">
  <advance width="1168.5"/>
  <unicode hex="004B"/>
  <outline>
    <contour>
      <point x="1066.2" y="0.0" type="line"/>
      <point x="620.4" y="739.6" type="line"/>
      <point x="1270.4" y="1400.0" type="line"/>
      <point x="951.4" y="1400.0" type="line"/>
      <point x="405.2" y="841.6" type="line"/>
      <point x="486.6" y="1400.0" type="line"/>
      <point x="246.0" y="1400.0" type="line"/>
      <point x="50.0" y="0.0" type="line"/>
      <point x="290.0" y="0.0" type="line"/>
      <point x="358.2" y="468.4" type="line"/>
      <point x="441.8" y="552.0" type="line"/>
      <point x="757.8000000000001" y="0.0" type="line"/>
    </contour>
  </outline>
</glyph>
<glyph name="L" format="2">
  <advance width="1045.0"/>
  <unicode hex="004C"/>
  <outline>
    <contour>
      <point x="50.0" y="0.0" type="line"/>
      <point x="875.2" y="0.0" type="line"/>
      <point x="908.4000000000001" y="240.0" type="line"/>
      <point x="323.6" y="240.0" type="line"/>
      <point x="486.0" y="1400.0" type="line"/>
      <point x="246.0" y="1400.0" type="line"/>
    </contour>
  </outline>
</glyph>
<glyph name="M" format="2">
  <advance width="1866.0"/>
  <unicode hex="004D"/>
  <outline>
    <contour>
      <point x="48.4" y="0.0" type="line"/>
      <point x="295.4" y="0.0" type="line"/>
      <point x="589.2" y="874.0" type="line"/>
      <point x="787.6" y="34.4" type="line"/>
      <point x="951.1999999999999" y="34.4" type="line"/>
      <point x="1387.6" y="874.0" type="line"/>
      <point x="1431.8" y="0.0" type="line"/>
      <point x="1674.4" y="0.0" type="line"/>
      <point x="1599.4" y="1400.0" type="line"/>
      <point x="1400.0" y="1400.0" type="line"/>
      <point x="928.2" y="497.6" type="line"/>
      <point x="714.4" y="1400.0" type="line"/>
      <point x="516.6" y="1400.0" type="line"/>
    </contour>
  </outline>
</glyph>
<glyph name="N" format="2">
  <advance width="1351.5"/>
  <unicode hex="004E"/>
  <outline>
    <contour>
      <point x="57.599999999999994" y="0.0" type="line"/>
      <point x="297.6" y="0.0" type="line"/>
      <point x="435.40000000000003" y="966.4" type="line"/>
      <point x="897.4000000000001" y="0.0" type="line"/>
      <point x="1154.0" y="0.0" type="line"/>
      <point x="1350.0" y="1400.0" type="line"/>
      <point x="1110.0" y="1400.0" type="line"/>
      <point x="972.2" y="433.6" type="line"/>
      <point x="510.59999999999997" y="1400.0" type="line"/>
      <point x="253.6" y="1400.0" type="line"/>
    </contour>
  </outline>
</glyph>
<glyph name="O" format="2">
  <advance width="1540.0"/>
  <unicode hex="004F"/>
  <outline>
    <contour>
      <point x="709.4" y="-26.0" type="curve" smooth="yes"/>
      <point x="1082.4" y="-26.0"/>
      <point x="1431.4" y="293.6"/>
      <point x="1486.4" y="686.6" type="curve" smooth="yes"/>
      <point x="1543.4" y="1093.6"/>
      <point x="1273.6" y="1426.0"/>
      <point x="886.6" y="1426.0" type="curve" smooth="yes"/>
      <point x="513.6" y="1426.0"/>
      <point x="165.6" y="1106.4"/>
      <point x="109.6" y="713.4" type="curve" smooth="yes"/>
      <point x="52.6" y="306.4"/>
      <point x="322.4" y="-26.0"/>
    </contour>
    <contour>
      <point x="716.2" y="214.0" type="curve" smooth="yes"/>
      <point x="475.59999999999997" y="214.0"/>
      <point x="309.6" y="426.4"/>
      <point x="346.4" y="686.6" type="curve" smooth="yes"/>
      <point x="384.4" y="959.2"/>
      <point x="624.4" y="1186.0"/>
      <point x="880.2" y="1186.0" type="curve" smooth="yes"/>
      <point x="1120.3999999999999" y="1186.0"/>
      <point x="1286.4" y="973.1999999999999"/>
      <point x="1249.6" y="713.4" type="curve" smooth="yes"/>
      <point x="1211.6" y="441.2"/>
      <point x="971.6" y="214.0"/>
    </contour>
  </outline>
</glyph>
<glyph name="P" format="2">
  <advance width="1105.0"/>
  <unicode hex="0050"/>
  <outline>
    <contour>
      <point x="50.0" y="0.0" type="line"/>
      <point x="290.0" y="0.0" type="line"/>
      <point x="368.0" y="558.0" type="line"/>
      <point x="633.4" y="558.0" type="line" smooth="yes"/>
      <point x="853.4" y="558.0"/>
      <point x="1058.4" y="738.0"/>
      <point x="1090.4" y="965.4000000000001" type="curve" smooth="yes"/>
      <point x="1124.0" y="1203.6"/>
      <point x="965.2" y="1400.0"/>
      <point x="737.6" y="1400.0" type="curve" smooth="yes"/>
      <point x="246.0" y="1400.0" type="line"/>
    </contour>
    <contour>
      <point x="401.6" y="798.0" type="line"/>
      <point x="457.8" y="1193.2" type="line"/>
      <point x="696.6" y="1193.2" type="line" smooth="yes"/>
      <point x="802.2" y="1193.2"/>
      <point x="871.2" y="1112.4"/>
      <point x="856.8000000000001" y="1009.0" type="curve" smooth="yes"/>
      <point x="840.2" y="891.6"/>
      <point x="733.2" y="798.0"/>
      <point x="627.6" y="798.0" type="curve" smooth="yes"/>
    </contour>
  </outline>
</glyph>
<glyph name="Q" format="2">
  <advance width="1572.5"/>
  <unicode hex="0051"/>
  <outline>
    <contour>
      <point x="1250.4" y="-41.6" type="line"/>
      <point x="1439.1999999999998" y="128.0" type="line"/>
      <point x="1301.6" y="282.20000000000005" type="line"/>
      <point x="1400.2" y="400.20000000000005"/>
      <point x="1465.6" y="542.4000000000001"/>
      <point x="1486.6" y="692.6" type="curve" smooth="yes"/>
      <point x="1543.6" y="1099.6"/>
      <point x="1274.2" y="1432.0"/>
      <point x="888.2" y="1432.0" type="curve" smooth="yes"/>
      <point x="513.8000000000001" y="1432.0"/>
      <point x="166.6" y="1112.4"/>
      <point x="111.2" y="719.4" type="curve" smooth="yes"/>
      <point x="53.6" y="311.2"/>
      <point x="323.6" y="-20.0"/>
      <point x="710.4" y="-20.0" type="curve" smooth="yes"/>
      <point x="852.0" y="-20.0"/>
      <point x="993.4000000000001" y="25.400000000000002"/>
      <point x="1115.8" y="109.39999999999999" type="curve"/>
    </contour>
    <contour>
      <point x="717.4" y="220.0" type="curve" smooth="yes"/>
      <point x="477.00000000000006" y="220.0"/>
      <point x="310.2" y="431.20000000000005"/>
      <point x="347.4" y="692.6" type="curve" smooth="yes"/>
      <point x="385.4" y="964.4000000000001"/>
      <point x="625.0" y="1192.0"/>
      <point x="880.8" y="1192.0" type="curve" smooth="yes"/>
      <point x="1120.2" y="1192.0"/>
      <point x="1286.6" y="979.6"/>
      <point x="1250.8" y="719.4" type="curve" smooth="yes"/>
      <point x="1237.1999999999998" y="626.4"/>
      <point x="1199.2" y="542.8"/>
      <point x="1146.2" y="472.79999999999995" type="curve"/>
      <point x="1038.4" y="589.2" type="line"/>
      <point x="849.6" y="419.2" type="line"/>
      <point x="958.4000000000001" y="291.4" type="line"/>
      <point x="886.0" y="247.39999999999998"/>
      <point x="803.0" y="220.0"/>
    </contour>
  </outline>
</glyph>
<glyph name="R" format="2">
  <advance width="1217.0"/>
  <unicode hex="0052"/>
  <outline>
    <contour>
      <point x="57.599999999999994" y="0.0" type="line"/>
      <point x="297.6" y="0.0" type="line"/>
      <point x="375.6" y="558.0" type="line"/>
      <point x="539.0" y="558.0" type="line"/>
      <point x="784.6" y="0.0" type="line"/>
      <point x="1057.0" y="0.0" type="line"/>
      <point x="807.6" y="576.4" type="line"/>
      <point x="980.2" y="634.4"/>
      <point x="1107.1999999999998" y="783.2"/>
      <point x="1133.1999999999998" y="965.4000000000001" type="curve" smooth="yes"/>
      <point x="1166.3999999999999" y="1205.1999999999998"/>
      <point x="1009.2" y="1400.0"/>
      <point x="781.6" y="1400.0" type="curve" smooth="yes"/>
      <point x="253.6" y="1400.0" type="line"/>
    </contour>
    <contour>
      <point x="409.20000000000005" y="798.0" type="line"/>
      <point x="465.40000000000003" y="1193.2" type="line"/>
      <point x="739.4000000000001" y="1193.2" type="line" smooth="yes"/>
      <point x="844.6" y="1193.2"/>
      <point x="913.6" y="1112.4"/>
      <point x="899.2" y="1009.0" type="curve" smooth="yes"/>
      <point x="882.6" y="891.6"/>
      <point x="775.6" y="798.0"/>
      <point x="670.4000000000001" y="798.0" type="curve" smooth="yes"/>
    </contour>
  </outline>
</glyph>
<glyph name="S" format="2">
  <advance width="1247.5"/>
  <unicode hex="0053"/>
  <outline>
    <contour>
      <point x="563.0" y="-26.0" type="curve" smooth="yes"/>
      <point x="835.6" y="-26.0"/>
      <point x="1094.0" y="136.0"/>
      <point x="1128.2" y="383.0" type="curve" smooth="yes"/>
      <point x="1164.6000000000001" y="640.0"/>
      <point x="936.2" y="775.8"/>
      <point x="654.8000000000001" y="817.4" type="curve" smooth="yes"/>
      <point x="509.0" y="844.2"/>
      <point x="393.2" y="860.0"/>
      <point x="411.2" y="988.2" type="curve" smooth="yes"/>
      <point x="426.79999999999995" y="1101.1999999999998"/>
      <point x="582.0" y="1184.0"/>
      <point x="732.4" y="1182.4" type="curve" smooth="yes"/>
      <point x="869.1999999999999" y="1182.4"/>
      <point x="982.1999999999999" y="1125.2"/>
      <point x="999.8000000000001" y="1042.0" type="curve"/>
      <point x="1232.1999999999998" y="1110.4" type="line"/>
      <point x="1188.3999999999999" y="1304.4"/>
      <point x="975.6" y="1424.0"/>
      <point x="739.8000000000001" y="1424.0" type="curve" smooth="yes"/>
      <point x="470.8" y="1424.0"/>
      <point x="210.20000000000002" y="1262.0"/>
      <point x="175.0" y="1015.0" type="curve" smooth="yes"/>
      <point x="136.20000000000002" y="739.6"/>
      <point x="350.4" y="625.8000000000001"/>
      <point x="648.4" y="581.4000000000001" type="curve" smooth="yes"/>
      <point x="776.2" y="557.8000000000001"/>
      <point x="907.4000000000001" y="515.1999999999999"/>
      <point x="892.4000000000001" y="410.2" type="curve" smooth="yes"/>
      <point x="875.8000000000001" y="293.59999999999997"/>
      <point x="723.2" y="214.0"/>
      <point x="569.4" y="214.0" type="curve" smooth="yes"/>
      <point x="433.59999999999997" y="214.0"/>
      <point x="320.59999999999997" y="273.20000000000005"/>
      <point x="303.0" y="356.0" type="curve"/>
      <point x="71.4" y="285.59999999999997" type="line"/>
      <point x="114.6" y="95.2"/>
      <point x="324.4" y="-26.0"/>
    </contour>
  </outline>
</glyph>
<glyph name="T" format="2">
  <advance width="1259.5"/>
  <unicode hex="0054"/>
  <outline>
    <contour>
      <point x="1305.6" y="1400.0" type="line"/>
      <point x="206.0" y="1400.0" type="line"/>
      <point x="172.4" y="1160.0" type="line"/>
      <point x="602.0" y="1160.0" type="line"/>
      <point x="439.6" y="0.0" type="line"/>
      <point x="679.6" y="0.0" type="line"/>
      <point x="842.0" y="1160.0" type="line"/>
      <point x="1272.0" y="1160.0" type="line"/>
    </contour>
  </outline>
</glyph>
<glyph name="U" format="2">
  <advance width="1358.5"/>
  <unicode hex="0055"/>
  <outline>
    <contour>
      <point x="619.4" y="-26.0" type="curve" smooth="yes"/>
      <point x="948.4" y="-26.0"/>
      <point x="1201.8000000000002" y="239.6"/>
      <point x="1249.8000000000002" y="577.6" type="curve" smooth="yes"/>
      <point x="1364.4" y="1400.0" type="line"/>
      <point x="1124.4" y="1400.0" type="line"/>
      <point x="1011.4" y="590.4" type="line" smooth="yes"/>
      <point x="982.6" y="387.59999999999997"/>
      <point x="839.2" y="214.0"/>
      <point x="626.2" y="214.0" type="curve" smooth="yes"/>
      <point x="429.59999999999997" y="214.0"/>
      <point x="342.6" y="375.20000000000005"/>
      <point x="371.4" y="577.6" type="curve" smooth="yes"/>
      <point x="486.0" y="1400.0" type="line"/>
      <point x="246.0" y="1400.0" type="line"/>
      <point x="132.6" y="590.4" type="line" smooth="yes"/>
      <point x="85.0" y="252.4"/>
      <point x="276.4" y="-26.0"/>
    </contour>
  </outline>
</glyph>
<glyph name="V" format="2">
  <advance width="1362.5"/>
  <unicode hex="0056"/>
  <outline>
    <contour>
      <point x="459.6" y="0.0" type="line"/>
      <point x="765.6" y="0.0" type="line"/>
      <point x="1471.0" y="1400.0" type="line"/>
      <point x="1212.4" y="1400.0" type="line"/>
      <point x="646.2" y="281.2" type="line"/>
      <point x="399.2" y="1400.0" type="line"/>
      <point x="148.6" y="1400.0" type="line"/>
    </contour>
  </outline>
</glyph>
<glyph name="W" format="2">
  <advance width="1898.0"/>
  <unicode hex="0057"/>
  <outline>
    <contour>
      <point x="389.6" y="0.0" type="line"/>
      <point x="662.4000000000001" y="0.0" type="line"/>
      <point x="1002.4000000000001" y="857.2" type="line"/>
      <point x="1100.0" y="0.0" type="line"/>
      <point x="1373.6" y="0.0" type="line"/>
      <point x="1925.6" y="1400.0" type="line"/>
      <point x="1675.4" y="1400.0" type="line"/>
      <point x="1292.2" y="435.6" type="line"/>
      <point x="1183.8000000000002" y="1400.0" type="line"/>
      <point x="964.6" y="1400.0" type="line"/>
      <point x="581.4" y="435.6" type="line"/>
      <point x="473.4" y="1400.0" type="line"/>
      <point x="227.6" y="1400.0" type="line"/>
    </contour>
  </outline>
</glyph>
<glyph name="X" format="2">
  <advance width="1442.0"/>
  <unicode hex="0058"/>
  <outline>
    <contour>
      <point x="-12.6" y="0.0" type="line"/>
      <point x="290.2" y="0.0" type="line"/>
      <point x="726.2" y="499.2" type="line"/>
      <point x="1016.6000000000001" y="0.0" type="line"/>
      <point x="1309.4" y="0.0" type="line"/>
      <point x="899.0" y="704.0" type="line"/>
      <point x="1507.2" y="1402.0" type="line"/>
      <point x="1206.4" y="1402.0" type="line"/>
      <point x="773.2" y="907.2" type="line"/>
      <point x="484.4" y="1402.0" type="line"/>
      <point x="193.2" y="1402.0" type="line"/>
      <point x="601.4" y="704.0" type="line"/>
    </contour>
  </outline>
</glyph>
<glyph name="Y" format="2">
  <advance width="1321.0"/>
  <unicode hex="0059"/>
  <outline>
    <contour>
      <point x="1101.8" y="1400.0" type="line"/>
      <point x="710.8" y="892.4" type="line"/>
      <point x="466.59999999999997" y="1400.0" type="line"/>
      <point x="189.2" y="1400.0" type="line"/>
      <point x="561.4" y="631.6" type="line"/>
      <point x="470.4" y="0.0" type="line"/>
      <point x="710.4" y="0.0" type="line"/>
      <point x="801.4" y="631.6" type="line"/>
      <point x="1390.4" y="1400.0" type="line"/>
    </contour>
  </outline>
</glyph>
<glyph name="Z" format="2">
  <advance width="1372.0"/>
  <unicode hex="005A"/>
  <outline>
    <contour>
      <point x="50.0" y="0.0" type="line"/>
      <point x="1182.0" y="0.0" type="line"/>
      <point x="1215.6" y="240.0" type="line"/>
      <point x="410.2" y="240.0" type="line"/>
      <point x="1347.0" y="1160.0" type="line"/>
      <point x="1378.0" y="1400.0" type="line"/>
      <point x="246.0" y="1400.0" type="line"/>
      <point x="212.4" y="1160.0" type="line"/>
      <point x="1018.2" y="1160.0" type="line"/>
      <point x="81.4" y="240.0" type="line"/>
    </contour>
  </outline>
</glyph>
<glyph name="bracketleft" format="2">
  <advance width="637.0"/>
  <unicode hex="005B"/>
  <outline>
    <contour>
      <point x="484.40000000000003" y="128.0" type="line"/>
      <point x="307.6" y="128.0" type="line"/>
      <point x="452.4" y="1160.0" type="line"/>
      <point x="629.6" y="1160.0" type="line"/>
      <point x="663.2" y="1400.0" type="line"/>
      <point x="246.0" y="1400.0" type="line"/>
      <point x="34.0" y="-112.0" type="line"/>
      <point x="451.20000000000005" y="-112.0" type="line"/>
    </contour>
  </outline>
</glyph>
<glyph name="backslash" format="2">
  <advance width="804.5"/>
  <unicode hex="005C"/>
  <outline>
    <contour>
      <point x="400.0" y="-112.0" type="line"/>
      <point x="637.1999999999999" y="-112.0" type="line"/>
      <point x="444.4" y="1400.0" type="line"/>
      <point x="208.6" y="1400.0" type="line"/>
    </contour>
  </outline>
</glyph>
<glyph name="bracketright" format="2">
  <advance width="638.5"/>
  <unicode hex="005D"/>
  <outline>
    <contour>
      <point x="14.0" y="-112.0" type="line"/>
      <point x="432.4" y="-112.0" type="line"/>
      <point x="644.4" y="1400.0" type="line"/>
      <point x="226.0" y="1400.0" type="line"/>
      <point x="192.4" y="1160.0" type="line"/>
      <point x="371.2" y="1160.0" type="line"/>
      <point x="225.99999999999997" y="128.0" type="line"/>
      <point x="47.6" y="128.0" type="line"/>
    </contour>
  </outline>
</glyph>
<glyph name="asciicircum" format="2">
  <advance width="952.0"/>
  <unicode hex="005E"/>
  <outline>
    <contour>
      <point x="148.4" y="1000.0" type="line"/>
      <point x="408.20000000000005" y="1000.0" type="line"/>
      <point x="604.4" y="1386.4" type="line"/>
      <point x="688.6" y="1000.0" type="line"/>
      <point x="940.4" y="1000.0" type="line"/>
      <point x="795.4" y="1650.0" type="line"/>
      <point x="475.4" y="1650.0" type="line"/>
    </contour>
  </outline>
</glyph>
<glyph name="underscore" format="2">
  <advance width="1240.0"/>
  <unicode hex="005F"/>
  <outline>
    <contour>
      <point x="67.6" y="128.0" type="line"/>
      <point x="34.0" y="-112.0" type="line"/>
      <point x="1034.0" y="-112.0" type="line"/>
      <point x="1067.6" y="128.0" type="line"/>
    </contour>
  </outline>
</glyph>
<glyph name="grave" format="2">
  <advance width="1120.0"/>
  <unicode hex="0060"/>
  <outline>
    <contour>
      <point x="452.6" y="1426.0" type="line"/>
      <point x="607.4000000000001" y="1138.0" type="line"/>
      <point x="728.4" y="1138.0" type="line"/>
      <point x="688.4" y="1426.0" type="line"/>
    </contour>
  </outline>
</glyph>
<glyph name="a" format="2">
  <advance width="1248.5"/>
  <unicode hex="0061"/>
  <outline>
    <contour>
      <point x="958.4" y="1000.0" type="line"/>
      <point x="936.2" y="868.0" type="line"/>
      <point x="884.6" y="959.6"/>
      <point x="793.2" y="1028.0"/>
      <point x="656.6" y="1028.0" type="curve"/>
      <point x="373.6" y="1028.0"/>
      <point x="111.6" y="798.4"/>
      <point x="71.6" y="513.4" type="curve"/>
      <point x="29.599999999999994" y="216.4"/>
      <point x="238.39999999999998" y="-26.0"/>
      <point x="535.4" y="-26.0" type="curve"/>
      <point x="658.0" y="-26.0"/>
      <point x="762.8" y="32.400000000000006"/>
      <point x="840.4" y="124.0" type="curve"/>
      <point x="817.8" y="0.0" type="line"/>
      <point x="1058.4" y="0.0" type="line"/>
      <point x="1198.4" y="1000.0" type="line"/>
    </contour>
    <contour>
      <point x="544.4" y="205.2" type="curve"/>
      <point x="396.8" y="205.2"/>
      <point x="292.6" y="330.4"/>
      <point x="314.4" y="486.6" type="curve"/>
      <point x="337.8" y="657.2"/>
      <point x="491.2" y="795.6"/>
      <point x="653.6" y="795.6" type="curve"/>
      <point x="803.6" y="795.6"/>
      <point x="892.4" y="671.2"/>
      <point x="869.6" y="513.4" type="curve"/>
      <point x="846.2" y="345.2"/>
      <point x="708.4" y="205.2"/>
    </contour>
  </outline>
</glyph>
<glyph name="b" format="2">
  <advance width="1238.5"/>
  <unicode hex="0062"/>
  <outline>
    <contour>
      <point x="711.4000000000001" y="1028.0" type="curve"/>
      <point x="590.8000000000001" y="1028.0"/>
      <point x="486.59999999999997" y="969.6"/>
      <point x="409.0" y="878.0" type="curve"/>
      <point x="501.0" y="1500.0" type="line"/>
      <point x="261.0" y="1500.0" type="line"/>
      <point x="50.0" y="0.0" type="line"/>
      <point x="290.0" y="0.0" type="line"/>
      <point x="312.6" y="134.0" type="line"/>
      <point x="365.2" y="42.4"/>
      <point x="455.6" y="-26.0"/>
      <point x="590.6" y="-26.0" type="curve"/>
      <point x="875.1999999999999" y="-26.0"/>
      <point x="1136.8000000000002" y="203.6"/>
      <point x="1177.2" y="488.20000000000005" type="curve"/>
      <point x="1218.8000000000002" y="785.6"/>
      <point x="1010.4" y="1028.0"/>
    </contour>
    <contour>
      <point x="593.2" y="206.39999999999998" type="curve"/>
      <point x="444.8" y="206.39999999999998"/>
      <point x="357.0" y="331.20000000000005"/>
      <point x="379.2" y="488.20000000000005" type="curve"/>
      <point x="402.2" y="656.4000000000001"/>
      <point x="540.4" y="797.2"/>
      <point x="702.8" y="797.2" type="curve"/>
      <point x="851.6" y="797.2"/>
      <point x="956.8" y="671.6"/>
      <point x="934.6" y="515.0" type="curve"/>
      <point x="910.6" y="345.2"/>
      <point x="757.2" y="206.39999999999998"/>
    </contour>
  </outline>
</glyph>
<glyph name="c" format="2">
  <advance width="1019.5"/>
  <unicode hex="0063"/>
  <outline>
    <contour>
      <point x="710.2" y="303.59999999999997" type="line"/>
      <point x="658.0" y="252.4"/>
      <point x="584.4000000000001" y="214.0"/>
      <point x="506.2" y="214.0" type="curve"/>
      <point x="367.2" y="214.0"/>
      <point x="277.6" y="340.4"/>
      <point x="298.4" y="486.6" type="curve"/>
      <point x="320.8" y="647.2"/>
      <point x="459.2" y="788.0"/>
      <point x="614.2" y="788.0" type="curve"/>
      <point x="674.8" y="788.0"/>
      <point x="737.2" y="761.6"/>
      <point x="777.8" y="706.4" type="curve"/>
      <point x="1000.4" y="812.6" type="line"/>
      <point x="926.2" y="940.6"/>
      <point x="791.2" y="1028.0"/>
      <point x="620.6" y="1028.0" type="curve"/>
      <point x="351.6" y="1028.0"/>
      <point x="101.6" y="798.4"/>
      <point x="61.6" y="513.4" type="curve"/>
      <point x="19.6" y="216.4"/>
      <point x="216.4" y="-26.0"/>
      <point x="499.4" y="-26.0" type="curve"/>
      <point x="656.0" y="-26.0"/>
      <point x="809.2" y="50.6"/>
      <point x="917.8000000000001" y="177.0" type="curve"/>
    </contour>
  </outline>
</glyph>
<glyph name="d" format="2">
  <advance width="1231.0"/>
  <unicode hex="0064"/>
  <outline>
    <contour>
      <point x="1018.8" y="1500.0" type="line"/>
      <point x="926.1999999999999" y="868.0" type="line"/>
      <point x="874.6" y="959.6"/>
      <point x="783.2" y="1026.4"/>
      <point x="646.6" y="1026.4" type="curve"/>
      <point x="363.6" y="1026.4"/>
      <point x="101.6" y="797.1999999999999"/>
      <point x="61.6" y="513.4" type="curve"/>
      <point x="19.6" y="216.4"/>
      <point x="228.4" y="-26.0"/>
      <point x="525.4" y="-26.0" type="curve"/>
      <point x="648.0" y="-26.0"/>
      <point x="752.2" y="31.2"/>
      <point x="829.4" y="122.39999999999999" type="curve"/>
      <point x="807.8" y="0.0" type="line"/>
      <point x="1048.4" y="0.0" type="line"/>
      <point x="1259.4" y="1500.0" type="line"/>
    </contour>
    <contour>
      <point x="534.4000000000001" y="205.2" type="curve"/>
      <point x="386.8" y="205.2"/>
      <point x="281.6" y="329.20000000000005"/>
      <point x="304.4" y="486.6" type="curve"/>
      <point x="327.8" y="657.2"/>
      <point x="481.6" y="795.6"/>
      <point x="643.6" y="795.6" type="curve"/>
      <point x="793.6" y="795.6"/>
      <point x="882.4" y="671.1999999999999"/>
      <point x="859.6" y="513.4" type="curve"/>
      <point x="836.2" y="343.59999999999997"/>
      <point x="698.4" y="205.2"/>
    </contour>
  </outline>
</glyph>
<glyph name="e" format="2">
  <advance width="1119.5"/>
  <unicode hex="0065"/>
  <outline>
    <contour>
      <point x="499.4" y="-26.0" type="curve" smooth="yes"/>
      <point x="692.4" y="-26.0"/>
      <point x="877.6" y="91.6"/>
      <point x="983.2" y="269.6" type="curve"/>
      <point x="741.4000000000001" y="337.40000000000003" type="line"/>
      <point x="683.1999999999999" y="263.59999999999997"/>
      <point x="599.2" y="213.39999999999998"/>
      <point x="506.2" y="214.0" type="curve" smooth="yes"/>
      <point x="386.20000000000005" y="215.6"/>
      <point x="313.2" y="296.0"/>
      <point x="303.2" y="411.8" type="curve"/>
      <point x="1041.3999999999999" y="411.8" type="line"/>
      <point x="1130.0" y="733.8000000000001"/>
      <point x="938.6" y="1028.0"/>
      <point x="620.6" y="1028.0" type="curve" smooth="yes"/>
      <point x="351.6" y="1028.0"/>
      <point x="101.6" y="798.4"/>
      <point x="61.6" y="514.4" type="curve" smooth="yes"/>
      <point x="19.6" y="216.4"/>
      <point x="216.4" y="-26.0"/>
    </contour>
    <contour>
      <point x="325.2" y="591.8000000000001" type="line"/>
      <point x="368.20000000000005" y="716.6"/>
      <point x="488.20000000000005" y="818.0"/>
      <point x="617.6" y="818.0" type="curve" smooth="yes"/>
      <point x="734.8000000000001" y="818.0"/>
      <point x="820.8000000000001" y="727.8"/>
      <point x="827.4" y="604.6" type="curve"/>
    </contour>
  </outline>
</glyph>
<glyph name="f" format="2">
  <advance width="726.5"/>
  <unicode hex="0066"/>
  <outline>
    <contour>
      <point x="499.4" y="1205.6" type="line"/>
      <point x="505.2" y="1246.0"/>
      <point x="550.0" y="1284.0"/>
      <point x="597.4" y="1284.0" type="curve"/>
      <point x="613.6" y="1284.0"/>
      <point x="633.0" y="1278.0"/>
      <point x="642.6" y="1255.6" type="curve"/>
      <point x="833.6" y="1414.4" type="line"/>
      <point x="777.4" y="1485.8"/>
      <point x="696.0" y="1524.0"/>
      <point x="605.4" y="1524.0" type="curve"/>
      <point x="438.4" y="1524.0"/>
      <point x="284.6" y="1389.6"/>
      <point x="261.0" y="1217.6" type="curve"/>
      <point x="230.4" y="1000.0" type="line"/>
      <point x="120.4" y="1000.0" type="line"/>
      <point x="86.4" y="760.0" type="line"/>
      <point x="196.4" y="760.0" type="line"/>
      <point x="90.0" y="0.0" type="line"/>
      <point x="330.0" y="0.0" type="line"/>
      <point x="436.4" y="760.0" type="line"/>
      <point x="710.4" y="760.0" type="line"/>
      <point x="744.4" y="1000.0" type="line"/>
      <point x="470.4" y="1000.0" type="line"/>
    </contour>
  </outline>
</glyph>
<glyph name="g" format="2">
  <advance width="1224.5"/>
  <unicode hex="0067"/>
  <outline>
    <contour>
      <point x="934.4" y="1000.0" type="line"/>
      <point x="912.1999999999999" y="871.6" type="line"/>
      <point x="861.4000000000001" y="961.2"/>
      <point x="772.4" y="1026.4"/>
      <point x="640.2" y="1026.4" type="curve" smooth="yes"/>
      <point x="360.8" y="1026.4"/>
      <point x="101.6" y="797.1999999999999"/>
      <point x="61.6" y="513.4" type="curve" smooth="yes"/>
      <point x="19.6" y="216.4"/>
      <point x="225.6" y="-26.0"/>
      <point x="519.0" y="-26.0" type="curve" smooth="yes"/>
      <point x="637.1999999999999" y="-26.0"/>
      <point x="739.0" y="29.600000000000005"/>
      <point x="815.4" y="119.2" type="curve"/>
      <point x="792.1999999999999" y="-13.6" type="line" smooth="yes"/>
      <point x="771.4" y="-161.2"/>
      <point x="603.6" y="-258.4"/>
      <point x="441.40000000000003" y="-258.4" type="curve" smooth="yes"/>
      <point x="333.59999999999997" y="-258.4"/>
      <point x="235.39999999999998" y="-188.4"/>
      <point x="210.59999999999997" y="-76.0" type="curve"/>
      <point x="-16.4" y="-162.39999999999998" type="line"/>
      <point x="35.2" y="-353.6"/>
      <point x="216.79999999999998" y="-500.0"/>
      <point x="434.40000000000003" y="-500.0" type="curve" smooth="yes"/>
      <point x="714.8" y="-500.0"/>
      <point x="990.0000000000001" y="-312.4"/>
      <point x="1030.2" y="-26.4" type="curve" smooth="yes"/>
      <point x="1174.4" y="1000.0" type="line"/>
    </contour>
    <contour>
      <point x="527.6" y="205.2" type="curve" smooth="yes"/>
      <point x="382.8" y="205.2"/>
      <point x="281.6" y="329.6"/>
      <point x="304.4" y="486.6" type="curve" smooth="yes"/>
      <point x="327.8" y="657.2"/>
      <point x="477.6" y="795.6"/>
      <point x="637.1999999999999" y="795.6" type="curve" smooth="yes"/>
      <point x="784.8" y="795.6"/>
      <point x="873.2" y="669.1999999999999"/>
      <point x="850.4000000000001" y="513.4" type="curve" smooth="yes"/>
      <point x="827.4000000000001" y="345.59999999999997"/>
      <point x="689.2" y="205.2"/>
    </contour>
  </outline>
</glyph>
<glyph name="h" format="2">
  <advance width="1143.0"/>
  <unicode hex="0068"/>
  <outline>
    <contour>
      <point x="1064.2" y="510.0" type="line"/>
      <point x="1099.6000000000001" y="789.2"/>
      <point x="952.4" y="1026.4"/>
      <point x="669.0" y="1026.4" type="curve"/>
      <point x="564.4" y="1026.4"/>
      <point x="478.4" y="1006.8"/>
      <point x="414.6" y="908.8" type="curve"/>
      <point x="501.0" y="1500.0" type="line"/>
      <point x="261.0" y="1500.0" type="line"/>
      <point x="50.0" y="0.0" type="line"/>
      <point x="291.6" y="0.0" type="line"/>
      <point x="362.6" y="506.0" type="line"/>
      <point x="384.20000000000005" y="662.4000000000001"/>
      <point x="484.79999999999995" y="795.6"/>
      <point x="639.1999999999999" y="795.6" type="curve"/>
      <point x="764.8" y="795.6"/>
      <point x="848.0" y="675.6"/>
      <point x="825.4000000000001" y="519.1999999999999" type="curve"/>
      <point x="753.2" y="0.0" type="line"/>
      <point x="993.2" y="0.0" type="line"/>
    </contour>
  </outline>
</glyph>
<glyph name="i" format="2">
  <advance width="489.0"/>
  <unicode hex="0069"/>
  <outline>
    <contour>
      <point x="193.2" y="1000.0" type="line"/>
      <point x="53.2" y="0.0" type="line"/>
      <point x="293.2" y="0.0" type="line"/>
      <point x="433.2" y="1000.0" type="line"/>
    </contour>
    <contour>
      <point x="344.6" y="1125.2" type="curve"/>
      <point x="407.4" y="1125.2"/>
      <point x="462.0" y="1174.0"/>
      <point x="470.6" y="1235.0" type="curve"/>
      <point x="481.6" y="1309.6"/>
      <point x="428.4" y="1372.4"/>
      <point x="353.20000000000005" y="1372.4" type="curve"/>
      <point x="291.6" y="1372.4"/>
      <point x="235.6" y="1322.4"/>
      <point x="227.2" y="1262.2" type="curve"/>
      <point x="216.6" y="1187.2"/>
      <point x="270.6" y="1125.2"/>
    </contour>
  </outline>
</glyph>
<glyph name="j" format="2">
  <advance width="519.5"/>
  <unicode hex="006A"/>
  <outline>
    <contour>
      <point x="-221.0" y="-500.0" type="curve"/>
      <point x="35.599999999999994" y="-500.0"/>
      <point x="251.60000000000002" y="-308.4"/>
      <point x="286.6" y="-64.4" type="curve"/>
      <point x="435.6" y="1000.0" type="line"/>
      <point x="195.6" y="1000.0" type="line"/>
      <point x="48.199999999999996" y="-51.6" type="line"/>
      <point x="31.799999999999994" y="-165.20000000000002"/>
      <point x="-79.39999999999999" y="-260.0"/>
      <point x="-186.4" y="-260.0" type="curve"/>
      <point x="-180.0" y="-260.0"/>
      <point x="-227.4" y="-500.0"/>
    </contour>
    <contour>
      <point x="346.6" y="1125.2" type="curve"/>
      <point x="407.8" y="1125.2"/>
      <point x="464.6" y="1174.4"/>
      <point x="472.6" y="1235.0" type="curve"/>
      <point x="483.6" y="1311.1999999999998"/>
      <point x="428.8" y="1372.4"/>
      <point x="355.20000000000005" y="1372.4" type="curve"/>
      <point x="292.4" y="1372.4"/>
      <point x="237.6" y="1324.0"/>
      <point x="229.2" y="1262.2" type="curve"/>
      <point x="218.6" y="1187.6000000000001"/>
      <point x="271.4" y="1125.2"/>
    </contour>
  </outline>
</glyph>
<glyph name="k" format="2">
  <advance width="1074.5"/>
  <unicode hex="006B"/>
  <outline>
    <contour>
      <point x="944.1999999999999" y="0.0" type="line"/>
      <point x="687.1999999999999" y="591.6" type="line"/>
      <point x="1089.0" y="1000.0" type="line"/>
      <point x="770.6" y="1000.0" type="line"/>
      <point x="378.8" y="599.6" type="line"/>
      <point x="508.6" y="1500.0" type="line"/>
      <point x="268.6" y="1500.0" type="line"/>
      <point x="57.599999999999994" y="0.0" type="line"/>
      <point x="297.6" y="0.0" type="line"/>
      <point x="331.40000000000003" y="226.4" type="line"/>
      <point x="500.4" y="396.0" type="line"/>
      <point x="672.2" y="0.0" type="line"/>
    </contour>
  </outline>
</glyph>
<glyph name="l" format="2">
  <advance width="495.0"/>
  <unicode hex="006C"/>
  <outline>
    <contour>
      <point x="57.599999999999994" y="0.4" type="line"/>
      <point x="297.6" y="0.4" type="line"/>
      <point x="508.6" y="1500.0" type="line"/>
      <point x="268.6" y="1500.0" type="line"/>
    </contour>
  </outline>
</glyph>
<glyph name="m" format="2">
  <advance width="1732.5"/>
  <unicode hex="006D"/>
  <outline>
    <contour>
      <point x="15.200000000000003" y="0.0" type="line"/>
      <point x="255.2" y="0.0" type="line"/>
      <point x="328.2" y="525.2" type="line" smooth="yes"/>
      <point x="346.59999999999997" y="653.8000000000001"/>
      <point x="459.20000000000005" y="769.4"/>
      <point x="584.6" y="769.4" type="curve" smooth="yes"/>
      <point x="700.6" y="769.4"/>
      <point x="770.4000000000001" y="671.8"/>
      <point x="752.6" y="543.1999999999999" type="curve" smooth="yes"/>
      <point x="676.2" y="0.0" type="line"/>
      <point x="916.2" y="0.0" type="line"/>
      <point x="990.4000000000001" y="530.0" type="line" smooth="yes"/>
      <point x="1008.8000000000001" y="658.6"/>
      <point x="1121.0" y="769.4"/>
      <point x="1250.2" y="769.4" type="curve" smooth="yes"/>
      <point x="1366.8" y="769.4"/>
      <point x="1431.8" y="671.8"/>
      <point x="1413.6" y="543.1999999999999" type="curve" smooth="yes"/>
      <point x="1337.6" y="0.0" type="line"/>
      <point x="1577.6" y="0.0" type="line"/>
      <point x="1651.3999999999999" y="530.0" type="line" smooth="yes"/>
      <point x="1688.3999999999999" y="789.2"/>
      <point x="1521.3999999999999" y="1009.4"/>
      <point x="1257.2" y="1009.4" type="curve" smooth="yes"/>
      <point x="1127.6000000000001" y="1009.4"/>
      <point x="1006.8" y="954.1999999999999"/>
      <point x="905.2" y="843.8" type="curve"/>
      <point x="843.6" y="943.4000000000001"/>
      <point x="735.6" y="1009.4"/>
      <point x="591.6" y="1009.4" type="curve" smooth="yes"/>
      <point x="513.1999999999999" y="1009.4"/>
      <point x="446.59999999999997" y="981.4"/>
      <point x="377.8" y="915.1999999999999" type="curve"/>
      <point x="396.4" y="1000.0" type="line"/>
      <point x="155.2" y="1000.0" type="line"/>
    </contour>
  </outline>
</glyph>
<glyph name="n" format="2">
  <advance width="1171.5"/>
  <unicode hex="006E"/>
  <outline>
    <contour>
      <point x="1073.1999999999998" y="511.6" type="line"/>
      <point x="1109.6000000000001" y="790.4000000000001"/>
      <point x="962.4" y="1028.0"/>
      <point x="679.0" y="1028.0" type="curve"/>
      <point x="568.4" y="1028.0"/>
      <point x="469.8" y="975.1999999999999"/>
      <point x="390.2" y="884.8" type="curve"/>
      <point x="410.6" y="1000.0" type="line"/>
      <point x="170.0" y="1000.0" type="line"/>
      <point x="30.0" y="0.0" type="line"/>
      <point x="270.0" y="0.0" type="line"/>
      <point x="341.0" y="507.6" type="line"/>
      <point x="362.6" y="662.4000000000001"/>
      <point x="479.6" y="797.2"/>
      <point x="632.8" y="797.2" type="curve"/>
      <point x="774.8" y="797.2"/>
      <point x="856.4" y="675.6"/>
      <point x="834.2" y="520.4" type="curve"/>
      <point x="761.6" y="0.0" type="line"/>
      <point x="1001.5999999999999" y="0.0" type="line"/>
    </contour>
  </outline>
</glyph>
<glyph name="o" format="2">
  <advance width="1120.0"/>
  <unicode hex="006F"/>
  <outline>
    <contour>
      <point x="499.4" y="-26.0" type="curve" smooth="yes"/>
      <point x="768.4" y="-26.0"/>
      <point x="1018.4" y="203.6"/>
      <point x="1058.4" y="486.6" type="curve" smooth="yes"/>
      <point x="1100.4" y="785.6"/>
      <point x="903.6" y="1028.0"/>
      <point x="620.6" y="1028.0" type="curve" smooth="yes"/>
      <point x="351.6" y="1028.0"/>
      <point x="101.6" y="798.4"/>
      <point x="61.6" y="513.4" type="curve" smooth="yes"/>
      <point x="19.6" y="216.4"/>
      <point x="216.4" y="-26.0"/>
    </contour>
    <contour>
      <point x="506.2" y="214.0" type="curve" smooth="yes"/>
      <point x="372.4" y="214.0"/>
      <point x="276.6" y="332.4"/>
      <point x="298.4" y="486.6" type="curve" smooth="yes"/>
      <point x="320.8" y="648.0"/>
      <point x="460.40000000000003" y="788.0"/>
      <point x="614.2" y="788.0" type="curve" smooth="yes"/>
      <point x="749.6" y="788.0"/>
      <point x="843.4" y="664.0"/>
      <point x="821.6" y="513.4" type="curve" smooth="yes"/>
      <point x="799.2" y="352.4"/>
      <point x="660.8000000000001" y="214.0"/>
    </contour>
  </outline>
</glyph>
<glyph name="p" format="2">
  <advance width="1257.0"/>
  <unicode hex="0070"/>
  <outline>
    <contour>
      <point x="219.6" y="-500.0" type="line"/>
      <point x="312.6" y="132.0" type="line"/>
      <point x="364.2" y="40.4"/>
      <point x="453.6" y="-28.0"/>
      <point x="590.6" y="-28.0" type="curve"/>
      <point x="874.8" y="-28.0"/>
      <point x="1135.2" y="201.6"/>
      <point x="1175.6000000000001" y="486.6" type="curve"/>
      <point x="1217.2" y="783.6"/>
      <point x="1010.0" y="1026.0"/>
      <point x="711.4000000000001" y="1026.0" type="curve"/>
      <point x="589.2" y="1026.0"/>
      <point x="485.59999999999997" y="967.6"/>
      <point x="408.4" y="876.0" type="curve"/>
      <point x="430.6" y="1000.0" type="line"/>
      <point x="190.0" y="1000.0" type="line"/>
      <point x="-21.0" y="-500.0" type="line"/>
    </contour>
    <contour>
      <point x="702.8" y="795.2" type="curve"/>
      <point x="853.6" y="795.2"/>
      <point x="955.8" y="668.0"/>
      <point x="934.0" y="513.4" type="curve"/>
      <point x="910.6" y="341.59999999999997"/>
      <point x="755.2" y="204.39999999999998"/>
      <point x="593.2" y="204.39999999999998" type="curve"/>
      <point x="443.6" y="204.39999999999998"/>
      <point x="356.4" y="330.4"/>
      <point x="379.2" y="486.6" type="curve"/>
      <point x="402.2" y="656.0"/>
      <point x="541.2" y="795.2"/>
    </contour>
  </outline>
</glyph>
<glyph name="q" format="2">
  <advance width="1257.0"/>
  <unicode hex="0071"/>
  <outline>
    <contour>
      <point x="545.4" y="-28.0" type="curve"/>
      <point x="667.6" y="-28.0"/>
      <point x="770.6" y="30.400000000000002"/>
      <point x="848.2" y="122.0" type="curve"/>
      <point x="756.2" y="-500.0" type="line"/>
      <point x="996.2" y="-500.0" type="line"/>
      <point x="1207.2" y="1000.0" type="line"/>
      <point x="967.2" y="1000.0" type="line"/>
      <point x="944.2" y="866.0" type="line"/>
      <point x="892.0" y="957.6"/>
      <point x="803.2" y="1026.0"/>
      <point x="666.6" y="1026.0" type="curve"/>
      <point x="383.6" y="1026.0"/>
      <point x="121.6" y="796.4"/>
      <point x="81.6" y="513.4" type="curve"/>
      <point x="39.6" y="214.4"/>
      <point x="248.4" y="-28.0"/>
    </contour>
    <contour>
      <point x="663.6" y="795.2" type="curve"/>
      <point x="813.6" y="795.2"/>
      <point x="900.1999999999999" y="669.1999999999999"/>
      <point x="878.0" y="513.4" type="curve"/>
      <point x="854.6" y="343.59999999999997"/>
      <point x="718.4" y="204.39999999999998"/>
      <point x="554.4000000000001" y="204.39999999999998" type="curve"/>
      <point x="405.20000000000005" y="204.39999999999998"/>
      <point x="301.6" y="328.4"/>
      <point x="324.4" y="486.6" type="curve"/>
      <point x="347.8" y="655.2"/>
      <point x="499.6" y="795.2"/>
    </contour>
  </outline>
</glyph>
<glyph name="r" format="2">
  <advance width="794.5"/>
  <unicode hex="0072"/>
  <outline>
    <contour>
      <point x="767.6" y="760.6" type="curve"/>
      <point x="830.6" y="1011.2" type="line"/>
      <point x="793.6" y="1023.2"/>
      <point x="751.2" y="1026.4"/>
      <point x="699.4000000000001" y="1026.4" type="curve" smooth="yes"/>
      <point x="588.8000000000001" y="1026.4"/>
      <point x="489.8" y="973.6"/>
      <point x="410.2" y="884.8" type="curve"/>
      <point x="430.6" y="998.4" type="line"/>
      <point x="190.0" y="998.4" type="line"/>
      <point x="50.0" y="0.0" type="line"/>
      <point x="291.6" y="0.0" type="line"/>
      <point x="362.6" y="506.0" type="line" smooth="yes"/>
      <point x="384.20000000000005" y="662.4000000000001"/>
      <point x="499.6" y="795.6"/>
      <point x="653.1999999999999" y="795.6" type="curve" smooth="yes"/>
      <point x="696.4" y="795.6"/>
      <point x="736.4000000000001" y="784.6"/>
    </contour>
  </outline>
</glyph>
<glyph name="s" format="2">
  <advance width="888.5"/>
  <unicode hex="0073"/>
  <outline>
    <contour>
      <point x="366.4" y="-17.2" type="curve" smooth="yes"/>
      <point x="563.4" y="-32.6"/>
      <point x="770.2" y="92.0"/>
      <point x="796.4" y="277.4" type="curve" smooth="yes"/>
      <point x="825.4" y="455.20000000000005"/>
      <point x="669.0" y="550.6"/>
      <point x="494.0" y="605.2" type="curve" smooth="yes"/>
      <point x="424.20000000000005" y="632.4"/>
      <point x="325.2" y="635.6"/>
      <point x="335.4" y="706.6" type="curve" smooth="yes"/>
      <point x="347.4" y="793.6"/>
      <point x="434.2" y="833.8000000000001"/>
      <point x="532.0" y="830.0" type="curve" smooth="yes"/>
      <point x="595.4000000000001" y="824.6"/>
      <point x="654.8" y="787.4"/>
      <point x="675.8" y="738.1999999999999" type="curve"/>
      <point x="874.1999999999999" y="839.4000000000001" type="line"/>
      <point x="812.8" y="958.2"/>
      <point x="680.2" y="1034.0"/>
      <point x="514.4000000000001" y="1034.0" type="curve" smooth="yes"/>
      <point x="326.20000000000005" y="1034.0"/>
      <point x="139.6" y="917.6"/>
      <point x="112.4" y="727.4" type="curve" smooth="yes"/>
      <point x="86.60000000000001" y="541.1999999999999"/>
      <point x="244.79999999999998" y="438.6"/>
      <point x="437.4" y="401.0" type="curve" smooth="yes"/>
      <point x="502.2" y="382.8"/>
      <point x="587.4" y="370.4"/>
      <point x="577.6" y="301.4" type="curve" smooth="yes"/>
      <point x="567.2" y="224.4"/>
      <point x="478.40000000000003" y="185.6"/>
      <point x="394.0" y="185.6" type="curve" smooth="yes"/>
      <point x="310.40000000000003" y="185.6"/>
      <point x="246.20000000000002" y="234.4"/>
      <point x="227.6" y="278.0" type="curve"/>
      <point x="20.2" y="201.8" type="line"/>
      <point x="61.60000000000001" y="74.2"/>
      <point x="204.79999999999998" y="-7.4"/>
    </contour>
  </outline>
</glyph>
<glyph name="t" format="2">
  <advance width="715.0"/>
  <unicode hex="0074"/>
  <outline>
    <contour>
      <point x="692.4" y="760.0" type="line"/>
      <point x="725.6" y="1000.0" type="line"/>
      <point x="529.6" y="1000.0" type="line"/>
      <point x="575.6" y="1331.6" type="line"/>
      <point x="335.59999999999997" y="1331.6" type="line"/>
      <point x="289.6" y="1000.0" type="line"/>
      <point x="140.8" y="1000.0" type="line"/>
      <point x="107.2" y="760.0" type="line"/>
      <point x="256.40000000000003" y="760.0" type="line"/>
      <point x="149.2" y="0.0" type="line"/>
      <point x="389.2" y="0.0" type="line"/>
      <point x="496.40000000000003" y="760.0" type="line"/>
    </contour>
  </outline>
</glyph>
<glyph name="u" format="2">
  <advance width="1211.5"/>
  <unicode hex="0075"/>
  <outline>
    <contour>
      <point x="119.0" y="490.4" type="line"/>
      <point x="82.0" y="210.0"/>
      <point x="229.6" y="-27.6"/>
      <point x="512.6" y="-27.6" type="curve"/>
      <point x="623.6" y="-27.6"/>
      <point x="722.1999999999999" y="26.8"/>
      <point x="801.4" y="115.60000000000001" type="curve"/>
      <point x="780.6" y="0.0" type="line"/>
      <point x="1021.5999999999999" y="0.0" type="line"/>
      <point x="1161.6" y="1000.0" type="line"/>
      <point x="921.6" y="1000.0" type="line"/>
      <point x="850.6" y="494.4" type="line"/>
      <point x="829.0" y="338.0"/>
      <point x="711.6" y="205.2"/>
      <point x="558.8000000000001" y="205.2" type="curve"/>
      <point x="416.8" y="205.2"/>
      <point x="335.2" y="325.20000000000005"/>
      <point x="357.4" y="481.6" type="curve"/>
      <point x="430.0" y="1000.0" type="line"/>
      <point x="190.0" y="1000.0" type="line"/>
    </contour>
  </outline>
</glyph>
<glyph name="v" format="2">
  <advance width="1158.0"/>
  <unicode hex="0076"/>
  <outline>
    <contour>
      <point x="665.2" y="0.0" type="line"/>
      <point x="1170.6" y="1001.2" type="line"/>
      <point x="910.4" y="1001.2" type="line"/>
      <point x="543.4000000000001" y="276.4" type="line"/>
      <point x="384.4" y="1001.2" type="line"/>
      <point x="132.6" y="1001.2" type="line"/>
      <point x="356.0" y="0.0" type="line"/>
    </contour>
  </outline>
</glyph>
<glyph name="w" format="2">
  <advance width="1702.0"/>
  <unicode hex="0077"/>
  <outline>
    <contour>
      <point x="563.6" y="0.0" type="line"/>
      <point x="876.1999999999999" y="656.4" type="line"/>
      <point x="1001.1999999999999" y="0.0" type="line"/>
      <point x="1239.1999999999998" y="0.0" type="line"/>
      <point x="1714.6" y="1000.4" type="line"/>
      <point x="1475.2" y="1000.4" type="line"/>
      <point x="1162.6" y="346.4" type="line"/>
      <point x="1038.4" y="1000.4" type="line"/>
      <point x="800.4" y="1000.4" type="line"/>
      <point x="489.4" y="346.4" type="line"/>
      <point x="363.59999999999997" y="1000.4" type="line"/>
      <point x="132.6" y="1000.4" type="line"/>
      <point x="326.0" y="0.0" type="line"/>
    </contour>
  </outline>
</glyph>
<glyph name="x" format="2">
  <advance width="1188.0"/>
  <unicode hex="0078"/>
  <outline>
    <contour>
      <point x="7.4" y="0.0" type="line"/>
      <point x="308.2" y="0.0" type="line"/>
      <point x="570.6" y="299.2" type="line"/>
      <point x="744.2" y="0.0" type="line"/>
      <point x="1035.4" y="0.0" type="line"/>
      <point x="742.0" y="502.0" type="line"/>
      <point x="1177.4" y="1001.2" type="line"/>
      <point x="876.6" y="1001.2" type="line"/>
      <point x="617.6" y="707.2" type="line"/>
      <point x="446.59999999999997" y="1001.2" type="line"/>
      <point x="155.39999999999998" y="1001.2" type="line"/>
      <point x="446.0" y="502.0" type="line"/>
    </contour>
  </outline>
</glyph>
<glyph name="y" format="2">
  <advance width="1141.0"/>
  <unicode hex="0079"/>
  <outline>
    <contour>
      <point x="874.0" y="1000.0" type="line"/>
      <point x="532.2" y="328.4" type="line"/>
      <point x="411.2" y="1000.0" type="line"/>
      <point x="152.6" y="1000.0" type="line"/>
      <point x="369.6" y="0.4" type="line"/>
      <point x="116.6" y="-500.0" type="line"/>
      <point x="375.20000000000005" y="-500.0" type="line"/>
      <point x="1133.4" y="1000.0" type="line"/>
    </contour>
  </outline>
</glyph>
<glyph name="z" format="2">
  <advance width="1084.0"/>
  <unicode hex="007A"/>
  <outline>
    <contour>
      <point x="1007.8000000000001" y="760.0" type="line"/>
      <point x="1039.2" y="1000.0" type="line"/>
      <point x="185.2" y="1000.0" type="line"/>
      <point x="151.6" y="760.0" type="line"/>
      <point x="657.4" y="760.0" type="line"/>
      <point x="76.2" y="240.0" type="line"/>
      <point x="45.2" y="0.0" type="line"/>
      <point x="899.2" y="0.0" type="line"/>
      <point x="932.4000000000001" y="240.0" type="line"/>
      <point x="426.59999999999997" y="240.0" type="line"/>
    </contour>
  </outline>
</glyph>
<glyph name="braceleft" format="2">
  <advance width="820.0"/>
  <unicode hex="007B"/>
  <outline>
    <contour>
      <point x="533.6" y="-112.4" type="curve" smooth="yes"/>
      <point x="634.0" y="-112.4" type="line"/>
      <point x="667.6" y="127.6" type="line"/>
      <point x="554.4" y="127.6" type="line" smooth="yes"/>
      <point x="493.59999999999997" y="127.6"/>
      <point x="457.20000000000005" y="170.0"/>
      <point x="465.6" y="231.2" type="curve" smooth="yes"/>
      <point x="500.6" y="485.20000000000005" type="line" smooth="yes"/>
      <point x="506.40000000000003" y="554.4000000000001"/>
      <point x="446.6" y="575.2"/>
      <point x="425.59999999999997" y="630.2" type="curve" smooth="yes"/>
      <point x="463.0" y="694.4"/>
      <point x="531.2" y="721.6"/>
      <point x="544.6" y="789.6" type="curve" smooth="yes"/>
      <point x="579.6" y="1043.6" type="line" smooth="yes"/>
      <point x="588.4" y="1104.4"/>
      <point x="652.6" y="1160.0"/>
      <point x="713.4" y="1160.0" type="curve" smooth="yes"/>
      <point x="812.4" y="1160.0" type="line"/>
      <point x="846.0" y="1400.0" type="line"/>
      <point x="733.2" y="1400.0" type="line" smooth="yes"/>
      <point x="539.2" y="1400.0"/>
      <point x="368.6" y="1248.4"/>
      <point x="341.6" y="1056.4" type="curve" smooth="yes"/>
      <point x="307.20000000000005" y="810.4" type="line" smooth="yes"/>
      <point x="296.4" y="745.1999999999999"/>
      <point x="152.4" y="730.0"/>
      <point x="142.2" y="657.0" type="curve" smooth="yes"/>
      <point x="129.6" y="566.0"/>
      <point x="271.2" y="561.6"/>
      <point x="262.20000000000005" y="488.4" type="curve" smooth="yes"/>
      <point x="227.20000000000002" y="244.0" type="line" smooth="yes"/>
      <point x="200.20000000000002" y="50.4"/>
      <point x="339.6" y="-112.4"/>
    </contour>
  </outline>
</glyph>
<glyph name="braceright" format="2">
  <advance width="820.0"/>
  <unicode hex="007D"/>
  <outline>
    <contour>
      <point x="14.0" y="-112.4" type="line"/>
      <point x="126.80000000000001" y="-112.4" type="line" smooth="yes"/>
      <point x="320.79999999999995" y="-112.4"/>
      <point x="491.79999999999995" y="37.6"/>
      <point x="518.8" y="231.2" type="curve" smooth="yes"/>
      <point x="552.8" y="475.6" type="line" smooth="yes"/>
      <point x="564.6" y="548.4000000000001"/>
      <point x="707.4" y="553.2"/>
      <point x="718.4" y="630.2" type="curve" smooth="yes"/>
      <point x="730.8" y="717.2"/>
      <point x="590.4" y="732.0"/>
      <point x="598.4" y="797.6" type="curve" smooth="yes"/>
      <point x="632.8" y="1043.6" type="line" smooth="yes"/>
      <point x="659.8" y="1235.6"/>
      <point x="520.4" y="1400.0"/>
      <point x="326.4" y="1400.0" type="curve" smooth="yes"/>
      <point x="226.0" y="1400.0" type="line"/>
      <point x="192.4" y="1160.0" type="line"/>
      <point x="306.2" y="1160.0" type="line" smooth="yes"/>
      <point x="366.59999999999997" y="1160.0"/>
      <point x="403.2" y="1117.6000000000001"/>
      <point x="394.4" y="1056.4" type="curve" smooth="yes"/>
      <point x="359.4" y="802.4" type="line"/>
      <point x="353.59999999999997" y="734.4"/>
      <point x="414.59999999999997" y="706.8"/>
      <point x="435.4" y="656.6" type="curve" smooth="yes"/>
      <point x="396.2" y="587.6"/>
      <point x="329.79999999999995" y="567.6"/>
      <point x="316.0" y="498.0" type="curve"/>
      <point x="280.4" y="244.0" type="line" smooth="yes"/>
      <point x="271.59999999999997" y="183.20000000000002"/>
      <point x="208.40000000000003" y="127.6"/>
      <point x="147.6" y="127.6" type="curve" smooth="yes"/>
      <point x="47.6" y="127.6" type="line"/>
    </contour>
  </outline>
</glyph>
<glyph name="asciitilde" format="2">
  <advance width="1302.0"/>
  <unicode hex="007E"/>
  <outline>
    <contour>
      <point x="957.5999999999999" y="398.8" type="curve" smooth="yes"/>
      <point x="1131.6000000000001" y="398.8"/>
      <point x="1253.3999999999999" y="551.2"/>
      <point x="1248.6000000000001" y="729.6" type="curve"/>
      <point x="1017.1999999999999" y="744.4" type="line"/>
      <point x="1015.4" y="680.4"/>
      <point x="970.0" y="618.4"/>
      <point x="897.8" y="618.4" type="curve" smooth="yes"/>
      <point x="762.0" y="618.4"/>
      <point x="586.8000000000001" y="801.2"/>
      <point x="408.4" y="801.2" type="curve" smooth="yes"/>
      <point x="232.4" y="801.2"/>
      <point x="76.2" y="642.4"/>
      <point x="79.6" y="466.79999999999995" type="curve"/>
      <point x="312.0" y="451.20000000000005" type="line"/>
      <point x="313.20000000000005" y="510.80000000000007"/>
      <point x="355.4" y="576.4"/>
      <point x="427.2" y="575.6" type="curve" smooth="yes"/>
      <point x="557.8" y="576.4"/>
      <point x="776.8" y="398.8"/>
    </contour>
  </outline>
</glyph>
<glyph name="exclamdown" format="2">
  <advance width="436.0"/>
  <unicode hex="00A1"/>
  <outline>
    <contour>
      <point x="262.6" y="1026.0" type="curve"/>
      <point x="202.0" y="1026.0"/>
      <point x="147.2" y="978.0"/>
      <point x="138.2" y="914.1999999999999" type="curve"/>
      <point x="127.6" y="839.6"/>
      <point x="180.4" y="778.4"/>
      <point x="255.0" y="778.4" type="curve"/>
      <point x="317.20000000000005" y="778.4"/>
      <point x="372.0" y="826.4000000000001"/>
      <point x="380.4" y="887.0" type="curve"/>
      <point x="391.0" y="965.2"/>
      <point x="339.20000000000005" y="1026.0"/>
    </contour>
    <contour>
      <point x="315.0" y="580.0" type="line"/>
      <point x="112.6" y="580.0" type="line"/>
      <point x="-24.400000000000006" y="-400.0" type="line"/>
      <point x="178.0" y="-400.0" type="line"/>
    </contour>
  </outline>
</glyph>
<glyph name="cent" format="2">
  <advance width="1092.0"/>
  <unicode hex="00A2"/>
  <outline>
    <contour>
      <point x="427.79999999999995" y="0.0" type="line"/>
      <point x="593.6" y="0.0" type="line"/>
      <point x="628.6" y="204.4" type="line"/>
      <point x="779.4000000000001" y="227.6"/>
      <point x="913.6" y="311.4"/>
      <point x="1006.2" y="434.6" type="curve"/>
      <point x="808.2" y="565.4" type="line"/>
      <point x="751.0" y="491.4"/>
      <point x="654.6" y="438.0"/>
      <point x="560.2" y="438.0" type="curve" smooth="yes"/>
      <point x="424.2" y="438.0"/>
      <point x="326.6" y="549.2"/>
      <point x="346.4" y="688.6" type="curve" smooth="yes"/>
      <point x="367.8" y="839.2"/>
      <point x="510.6" y="964.0"/>
      <point x="661.2" y="964.0" type="curve" smooth="yes"/>
      <point x="742.1999999999999" y="964.0"/>
      <point x="818.6" y="921.4"/>
      <point x="857.2" y="847.4" type="curve"/>
      <point x="1073.8" y="956.6" type="line"/>
      <point x="1014.8000000000001" y="1079.4"/>
      <point x="898.6" y="1171.6000000000001"/>
      <point x="754.6" y="1194.4" type="curve"/>
      <point x="790.6" y="1400.0" type="line"/>
      <point x="624.4" y="1400.0" type="line"/>
      <point x="590.4" y="1197.6" type="line"/>
      <point x="347.8" y="1158.4"/>
      <point x="144.4" y="956.4"/>
      <point x="110.6" y="715.4" type="curve" smooth="yes"/>
      <point x="74.2" y="459.2"/>
      <point x="233.2" y="248.0"/>
      <point x="463.79999999999995" y="207.6" type="curve"/>
    </contour>
  </outline>
</glyph>
<glyph name="sterling" format="2">
  <advance width="1194.0"/>
  <unicode hex="00A3"/>
  <outline>
    <contour>
      <point x="34.0" y="0.0" type="line"/>
      <point x="1024.4" y="0.0" type="line"/>
      <point x="1058.0" y="240.0" type="line"/>
      <point x="523.6" y="233.6" type="line"/>
      <point x="549.6" y="251.6"/>
      <point x="583.8" y="301.20000000000005"/>
      <point x="589.6" y="343.4" type="curve" smooth="yes"/>
      <point x="630.4" y="627.4000000000001"/>
      <point x="341.2" y="651.4000000000001"/>
      <point x="375.6" y="896.6" type="curve" smooth="yes"/>
      <point x="397.6" y="1055.1999999999998"/>
      <point x="547.1999999999999" y="1186.0"/>
      <point x="706.2" y="1186.0" type="curve" smooth="yes"/>
      <point x="852.4" y="1186.0"/>
      <point x="954.2" y="1068.0"/>
      <point x="932.2" y="916.4" type="curve"/>
      <point x="1170.6" y="903.6" type="line"/>
      <point x="1210.8" y="1188.0"/>
      <point x="1004.4000000000001" y="1426.0"/>
      <point x="712.6" y="1426.0" type="curve" smooth="yes"/>
      <point x="436.4" y="1426.0"/>
      <point x="178.4" y="1199.6000000000001"/>
      <point x="139.8" y="923.4" type="curve" smooth="yes"/>
      <point x="107.2" y="693.6"/>
      <point x="334.2" y="588.6"/>
      <point x="359.8" y="440.4" type="curve" smooth="yes"/>
      <point x="388.4" y="318.40000000000003"/>
      <point x="197.6" y="240.0"/>
      <point x="61.2" y="240.0" type="curve"/>
    </contour>
    <contour>
      <point x="96.4" y="446.0" type="line"/>
      <point x="865.2" y="446.0" type="line"/>
      <point x="888.4000000000001" y="611.2" type="line"/>
      <point x="119.6" y="611.2" type="line"/>
    </contour>
  </outline>
</glyph>
<glyph name="currency" format="2">
  <advance width="1025.0"/>
  <unicode hex="00A4"/>
  <outline>
    <contour>
      <point x="168.6" y="267.4" type="line"/>
      <point x="318.59999999999997" y="398.59999999999997" type="line"/>
      <point x="422.2" y="323.0"/>
      <point x="565.6" y="317.40000000000003"/>
      <point x="693.6" y="390.2" type="curve"/>
      <point x="802.0" y="267.4" type="line"/>
      <point x="929.2" y="384.2" type="line"/>
      <point x="821.6" y="504.8" type="line"/>
      <point x="912.8" y="619.2"/>
      <point x="926.8" y="769.2"/>
      <point x="868.4" y="883.6" type="curve"/>
      <point x="1017.8000000000001" y="1017.4" type="line"/>
      <point x="914.2" y="1132.6" type="line"/>
      <point x="762.2" y="1001.4" type="line"/>
      <point x="662.4" y="1071.0"/>
      <point x="513.2" y="1077.0"/>
      <point x="392.2" y="1006.2" type="curve"/>
      <point x="281.4" y="1132.6" type="line"/>
      <point x="152.6" y="1017.4" type="line"/>
      <point x="265.2" y="891.1999999999999" type="line"/>
      <point x="173.6" y="778.4"/>
      <point x="160.0" y="632.4"/>
      <point x="215.0" y="519.1999999999999" type="curve"/>
      <point x="63.4" y="384.2" type="line"/>
    </contour>
    <contour>
      <point x="502.20000000000005" y="503.8" type="curve" smooth="yes"/>
      <point x="403.40000000000003" y="502.2"/>
      <point x="332.0" y="583.8000000000001"/>
      <point x="346.79999999999995" y="685.2" type="curve" smooth="yes"/>
      <point x="361.59999999999997" y="793.8000000000001"/>
      <point x="465.0" y="893.4"/>
      <point x="583.4000000000001" y="891.8" type="curve" smooth="yes"/>
      <point x="679.6" y="890.2"/>
      <point x="753.4" y="818.6"/>
      <point x="738.0" y="712.4" type="curve" smooth="yes"/>
      <point x="721.6" y="596.1999999999999"/>
      <point x="615.8" y="505.4"/>
    </contour>
  </outline>
</glyph>
<glyph name="yen" format="2">
  <advance width="1331.0"/>
  <unicode hex="00A5"/>
  <outline>
    <contour>
      <point x="475.6" y="0.0" type="line"/>
      <point x="715.6" y="0.0" type="line"/>
      <point x="736.2" y="149.6" type="line"/>
      <point x="980.1999999999999" y="149.6" type="line"/>
      <point x="1003.3999999999999" y="314.8" type="line"/>
      <point x="759.4" y="314.8" type="line"/>
      <point x="774.2" y="415.6" type="line"/>
      <point x="1018.1999999999999" y="415.6" type="line"/>
      <point x="1041.0" y="580.8" type="line"/>
      <point x="797.0" y="580.8" type="line"/>
      <point x="806.2" y="631.6" type="line"/>
      <point x="1395.2" y="1400.0" type="line"/>
      <point x="1106.6000000000001" y="1400.0" type="line"/>
      <point x="715.6" y="892.4" type="line"/>
      <point x="471.8" y="1400.0" type="line"/>
      <point x="194.39999999999998" y="1400.0" type="line"/>
      <point x="566.2" y="631.6" type="line"/>
      <point x="556.4" y="580.8" type="line"/>
      <point x="313.0" y="580.8" type="line"/>
      <point x="290.20000000000005" y="415.6" type="line"/>
      <point x="534.2" y="415.6" type="line"/>
      <point x="519.4" y="314.8" type="line"/>
      <point x="275.40000000000003" y="314.8" type="line"/>
      <point x="252.20000000000002" y="149.6" type="line"/>
      <point x="496.20000000000005" y="149.6" type="line"/>
    </contour>
  </outline>
</glyph>
<glyph name="brokenbar" format="2">
  <advance width="480.0"/>
  <unicode hex="00A6"/>
  <outline>
    <contour>
      <point x="113.0" y="448.0" type="line"/>
      <point x="7.0" y="-302.0" type="line"/>
      <point x="247.0" y="-302.0" type="line"/>
      <point x="353.0" y="448.0" type="line"/>
    </contour>
    <contour>
      <point x="246.0" y="1400.0" type="line"/>
      <point x="141.0" y="650.0" type="line"/>
      <point x="381.0" y="650.0" type="line"/>
      <point x="486.0" y="1400.0" type="line"/>
    </contour>
  </outline>
</glyph>
<glyph name="section" format="2">
  <advance width="1101.0"/>
  <unicode hex="00A7"/>
  <outline>
    <contour>
      <point x="433.20000000000005" y="-373.2" type="curve" smooth="yes"/>
      <point x="622.4" y="-373.2"/>
      <point x="809.0" y="-256.4"/>
      <point x="835.2" y="-66.60000000000001" type="curve" smooth="yes"/>
      <point x="848.6" y="30.0"/>
      <point x="811.4" y="97.6"/>
      <point x="740.1999999999999" y="136.8" type="curve"/>
      <point x="869.4" y="214.0"/>
      <point x="959.6" y="345.20000000000005"/>
      <point x="979.2" y="486.20000000000005" type="curve" smooth="yes"/>
      <point x="1013.6" y="732.0"/>
      <point x="873.2" y="904.6"/>
      <point x="642.1999999999999" y="948.1999999999999" type="curve" smooth="yes"/>
      <point x="567.0" y="966.0"/>
      <point x="477.4" y="976.0"/>
      <point x="487.59999999999997" y="1045.4" type="curve" smooth="yes"/>
      <point x="499.59999999999997" y="1132.4"/>
      <point x="586.8000000000001" y="1172.6"/>
      <point x="685.2" y="1169.1999999999998" type="curve" smooth="yes"/>
      <point x="747.6" y="1163.8"/>
      <point x="807.4000000000001" y="1126.2"/>
      <point x="829.0" y="1077.3999999999999" type="curve"/>
      <point x="1026.3999999999999" y="1178.2" type="line"/>
      <point x="965.0" y="1297.4"/>
      <point x="832.4" y="1373.2"/>
      <point x="667.6" y="1373.2" type="curve" smooth="yes"/>
      <point x="478.4" y="1373.2"/>
      <point x="292.2" y="1256.4"/>
      <point x="265.6" y="1066.6000000000001" type="curve" smooth="yes"/>
      <point x="252.2" y="969.6"/>
      <point x="289.4" y="902.0"/>
      <point x="359.4" y="864.4000000000001" type="curve"/>
      <point x="230.6" y="786.4"/>
      <point x="141.6" y="654.0"/>
      <point x="121.6" y="513.0" type="curve" smooth="yes"/>
      <point x="89.4" y="285.59999999999997"/>
      <point x="231.40000000000003" y="82.6"/>
      <point x="454.6" y="52.800000000000004" type="curve" smooth="yes"/>
      <point x="528.4" y="38.2"/>
      <point x="623.4" y="25.599999999999998"/>
      <point x="613.6" y="-45.400000000000006" type="curve" smooth="yes"/>
      <point x="601.2" y="-132.39999999999998"/>
      <point x="514.4" y="-172.6"/>
      <point x="415.6" y="-169.20000000000002" type="curve" smooth="yes"/>
      <point x="353.2" y="-163.79999999999998"/>
      <point x="293.8" y="-126.2"/>
      <point x="272.20000000000005" y="-77.39999999999999" type="curve"/>
      <point x="74.39999999999999" y="-178.2" type="line"/>
      <point x="136.2" y="-297.4"/>
      <point x="268.4" y="-373.2"/>
    </contour>
    <contour>
      <point x="514.2" y="265.6" type="curve" smooth="yes"/>
      <point x="389.59999999999997" y="265.6"/>
      <point x="311.8" y="362.0"/>
      <point x="329.6" y="486.20000000000005" type="curve" smooth="yes"/>
      <point x="347.20000000000005" y="611.6"/>
      <point x="468.4" y="734.4"/>
      <point x="580.6" y="734.4" type="curve" smooth="yes"/>
      <point x="709.2" y="734.4"/>
      <point x="789.8000000000001" y="647.1999999999999"/>
      <point x="770.8000000000001" y="511.4" type="curve" smooth="yes"/>
      <point x="753.0" y="385.2"/>
      <point x="634.0" y="265.6"/>
    </contour>
  </outline>
</glyph>
<glyph name="copyright" format="2">
  <advance width="1902.5"/>
  <unicode hex="00A9"/>
  <outline>
    <contour>
      <point x="849.6" y="-315.2" type="curve" smooth="yes"/>
      <point x="1324.4" y="-315.2"/>
      <point x="1761.2" y="67.6"/>
      <point x="1828.2" y="542.2" type="curve" smooth="yes"/>
      <point x="1897.4" y="1032.0"/>
      <point x="1555.6" y="1426.0"/>
      <point x="1067.0" y="1426.0" type="curve" smooth="yes"/>
      <point x="592.4000000000001" y="1426.0"/>
      <point x="156.6" y="1043.6000000000001"/>
      <point x="89.6" y="569.0" type="curve" smooth="yes"/>
      <point x="21.4" y="80.4"/>
      <point x="361.59999999999997" y="-315.2"/>
    </contour>
    <contour>
      <point x="856.6" y="-75.2" type="curve" smooth="yes"/>
      <point x="522.2" y="-75.2"/>
      <point x="277.0" y="192.39999999999998"/>
      <point x="325.8" y="542.2" type="curve" smooth="yes"/>
      <point x="375.2" y="891.2"/>
      <point x="698.8" y="1185.2"/>
      <point x="1060.6000000000001" y="1186.0" type="curve" smooth="yes"/>
      <point x="1403.6000000000001" y="1187.2"/>
      <point x="1640.2" y="908.4"/>
      <point x="1592.4" y="569.0" type="curve" smooth="yes"/>
      <point x="1543.0" y="221.20000000000002"/>
      <point x="1219.0" y="-75.2"/>
    </contour>
    <component base="c" xOffset="401.6" yOffset="55.6"/>
  </outline>
</glyph>
<glyph name="logicalnot" format="2">
  <advance width="1021.0"/>
  <unicode hex="00AC"/>
  <outline>
    <contour>
      <point x="671.2" y="290.2" type="line"/>
      <point x="911.2" y="290.2" type="line"/>
      <point x="998.8000000000001" y="910.2" type="line"/>
      <point x="137.6" y="910.2" type="line"/>
      <point x="104.4" y="670.2" type="line"/>
      <point x="725.2" y="670.2" type="line"/>
    </contour>
  </outline>
</glyph>
<glyph name="registered" format="2">
  <advance width="1119.5"/>
  <unicode hex="00AE"/>
  <outline>
    <contour>
      <point x="558.8000000000001" y="401.2" type="curve" smooth="yes"/>
      <point x="824.6" y="401.6"/>
      <point x="1076.1999999999998" y="616.4000000000001"/>
      <point x="1114.0" y="888.2" type="curve" smooth="yes"/>
      <point x="1152.8" y="1163.6"/>
      <point x="960.1999999999999" y="1400.4"/>
      <point x="672.2" y="1400.4" type="curve" smooth="yes"/>
      <point x="402.59999999999997" y="1400.4"/>
      <point x="155.8" y="1182.4"/>
      <point x="118.6" y="915.0" type="curve" smooth="yes"/>
      <point x="78.8" y="632.4"/>
      <point x="275.4" y="401.6"/>
    </contour>
    <contour>
      <point x="556.4000000000001" y="573.6" type="curve" smooth="yes"/>
      <point x="382.4" y="573.6"/>
      <point x="262.79999999999995" y="713.6"/>
      <point x="287.2" y="888.2" type="curve" smooth="yes"/>
      <point x="313.4" y="1075.1999999999998"/>
      <point x="488.2" y="1228.0"/>
      <point x="674.6" y="1228.0" type="curve" smooth="yes"/>
      <point x="849.8" y="1228.0"/>
      <point x="969.8000000000001" y="1088.0"/>
      <point x="945.4000000000001" y="915.0" type="curve" smooth="yes"/>
      <point x="918.8000000000001" y="726.4"/>
      <point x="744.0" y="573.6"/>
    </contour>
    <contour>
      <point x="450.4" y="702.0" type="line"/>
      <point x="548.0" y="702.0" type="line"/>
      <point x="570.4" y="859.6" type="line"/>
      <point x="594.2" y="859.6" type="line"/>
      <point x="664.6" y="702.0" type="line"/>
      <point x="771.4" y="702.0" type="line"/>
      <point x="700.4000000000001" y="872.0" type="line"/>
      <point x="748.2" y="892.4"/>
      <point x="775.8000000000001" y="934.4000000000001"/>
      <point x="782.2" y="979.4000000000001" type="curve" smooth="yes"/>
      <point x="793.4000000000001" y="1060.4"/>
      <point x="739.8" y="1127.2"/>
      <point x="668.2" y="1127.2" type="curve" smooth="yes"/>
      <point x="510.4" y="1127.2" type="line"/>
    </contour>
    <contour>
      <point x="583.4" y="957.2" type="line"/>
      <point x="593.6" y="1029.6" type="line"/>
      <point x="668.6" y="1029.6" type="line" smooth="yes"/>
      <point x="685.0" y="1029.6"/>
      <point x="690.2" y="1020.0"/>
      <point x="688.4" y="1006.6" type="curve" smooth="yes"/>
      <point x="684.8000000000001" y="979.6"/>
      <point x="661.4" y="957.2"/>
      <point x="644.6" y="957.2" type="curve" smooth="yes"/>
    </contour>
  </outline>
</glyph>
<glyph name="macron" format="2">
  <advance width="1200.0"/>
  <unicode hex="00AF"/>
  <outline>
    <contour>
      <point x="390.0" y="1412.0" type="line"/>
      <point x="356.4" y="1172.0" type="line"/>
      <point x="1032.4" y="1172.0" type="line"/>
      <point x="1066.0" y="1412.0" type="line"/>
    </contour>
  </outline>
</glyph>
<glyph name="degree" format="2">
  <advance width="905.5"/>
  <unicode hex="00B0"/>
  <outline>
    <contour>
      <point x="496.40000000000003" y="708.0" type="curve" smooth="yes"/>
      <point x="689.8" y="708.0"/>
      <point x="875.8000000000001" y="861.2"/>
      <point x="905.0" y="1066.6" type="curve" smooth="yes"/>
      <point x="933.6" y="1271.1999999999998"/>
      <point x="793.2" y="1452.0"/>
      <point x="573.4" y="1452.0" type="curve" smooth="yes"/>
      <point x="372.8" y="1452.0"/>
      <point x="191.2" y="1288.4"/>
      <point x="163.6" y="1093.4" type="curve" smooth="yes"/>
      <point x="135.0" y="889.1999999999999"/>
      <point x="278.2" y="708.0"/>
    </contour>
    <contour>
      <point x="503.20000000000005" y="948.0" type="curve" smooth="yes"/>
      <point x="436.20000000000005" y="948.0"/>
      <point x="390.4" y="999.6"/>
      <point x="399.4" y="1066.6" type="curve" smooth="yes"/>
      <point x="411.4" y="1147.6"/>
      <point x="486.0" y="1212.0"/>
      <point x="567.0" y="1212.0" type="curve" smooth="yes"/>
      <point x="632.4" y="1212.0"/>
      <point x="678.2" y="1160.4"/>
      <point x="669.2" y="1093.4" type="curve" smooth="yes"/>
      <point x="657.2" y="1012.4"/>
      <point x="582.6" y="948.0"/>
    </contour>
  </outline>
</glyph>
<glyph name="plusminus" format="2">
  <advance width="1160.0"/>
  <unicode hex="00B1"/>
  <outline>
    <contour>
      <point x="442.4" y="375.2" type="line"/>
      <point x="682.4" y="375.2" type="line"/>
      <point x="735.8" y="755.2" type="line"/>
      <point x="1115.8" y="755.2" type="line"/>
      <point x="1149.4" y="995.2" type="line"/>
      <point x="769.4" y="995.2" type="line"/>
      <point x="822.4" y="1375.2" type="line"/>
      <point x="582.4" y="1375.2" type="line"/>
      <point x="529.4" y="995.2" type="line"/>
      <point x="149.4" y="995.2" type="line"/>
      <point x="115.8" y="755.2" type="line"/>
      <point x="495.8" y="755.2" type="line"/>
    </contour>
    <contour>
      <point x="10.0" y="0.4" type="line"/>
      <point x="1010.0" y="0.4" type="line"/>
      <point x="1043.6" y="240.39999999999998" type="line"/>
      <point x="43.6" y="240.39999999999998" type="line"/>
    </contour>
  </outline>
</glyph>
<glyph name="twosuperior" format="2">
  <advance width="712.75"/>
  <unicode hex="00B2"/>
  <outline>
    <contour>
      <point x="141.0" y="818.0" type="line"/>
      <point x="604.8" y="818.0" type="line"/>
      <point x="624.5999999999999" y="962.0" type="line"/>
      <point x="426.20000000000005" y="957.2" type="line"/>
      <point x="533.4" y="1035.2"/>
      <point x="657.4" y="1128.4"/>
      <point x="671.2" y="1228.8" type="curve"/>
      <point x="690.4" y="1366.4"/>
      <point x="593.4" y="1468.0"/>
      <point x="456.40000000000003" y="1468.0" type="curve"/>
      <point x="332.0" y="1468.0"/>
      <point x="219.4" y="1379.6000000000001"/>
      <point x="201.2" y="1248.6000000000001" type="curve"/>
      <point x="343.2" y="1235.8" type="line"/>
      <point x="350.4" y="1287.6000000000001"/>
      <point x="405.20000000000005" y="1333.2"/>
      <point x="464.40000000000003" y="1333.2" type="curve"/>
      <point x="507.59999999999997" y="1333.2"/>
      <point x="537.6" y="1300.8000000000002"/>
      <point x="528.2" y="1255.0" type="curve"/>
      <point x="454.40000000000003" y="1117.2"/>
      <point x="275.0" y="1025.6000000000001"/>
      <point x="153.8" y="950.2" type="curve"/>
    </contour>
  </outline>
</glyph>
<glyph name="threesuperior" format="2">
  <advance width="576.0"/>
  <unicode hex="00B3"/>
  <outline>
    <contour>
      <point x="344.4" y="798.0" type="curve" smooth="yes"/>
      <point x="454.59999999999997" y="798.0"/>
      <point x="556.6" y="877.4000000000001"/>
      <point x="572.6" y="990.6" type="curve" smooth="yes"/>
      <point x="582.4" y="1055.1999999999998"/>
      <point x="564.6" y="1106.6000000000001"/>
      <point x="531.1999999999999" y="1140.8" type="curve"/>
      <point x="568.2" y="1177.1999999999998"/>
      <point x="588.0" y="1222.8"/>
      <point x="593.8000000000001" y="1263.6" type="curve" smooth="yes"/>
      <point x="610.4" y="1382.0"/>
      <point x="525.6" y="1467.6"/>
      <point x="406.2" y="1467.6" type="curve" smooth="yes"/>
      <point x="302.20000000000005" y="1467.6"/>
      <point x="208.4" y="1395.2"/>
      <point x="193.20000000000002" y="1283.4" type="curve"/>
      <point x="334.59999999999997" y="1270.6" type="line"/>
      <point x="339.2" y="1302.1999999999998"/>
      <point x="376.59999999999997" y="1332.4"/>
      <point x="414.6" y="1332.4" type="curve" smooth="yes"/>
      <point x="438.8" y="1332.4"/>
      <point x="457.20000000000005" y="1315.0"/>
      <point x="453.6" y="1290.4" type="curve" smooth="yes"/>
      <point x="446.8" y="1243.6000000000001"/>
      <point x="407.59999999999997" y="1195.4"/>
      <point x="328.0" y="1195.4" type="curve"/>
      <point x="327.6" y="1098.8" type="line"/>
      <point x="409.2" y="1098.8"/>
      <point x="438.4" y="1058.8000000000002"/>
      <point x="432.8" y="1017.4" type="curve" smooth="yes"/>
      <point x="425.6" y="969.1999999999999"/>
      <point x="382.2" y="933.2"/>
      <point x="336.4" y="933.2" type="curve" smooth="yes"/>
      <point x="301.40000000000003" y="933.2"/>
      <point x="280.0" y="956.0"/>
      <point x="285.6" y="997.6" type="curve"/>
      <point x="144.2" y="1010.4" type="line"/>
      <point x="127.2" y="890.6"/>
      <point x="218.6" y="798.0"/>
    </contour>
  </outline>
</glyph>
<glyph name="paragraph" format="2">
  <advance width="1050.0"/>
  <unicode hex="00B6"/>
  <outline>
    <contour>
      <point x="307.0" y="-302.0" type="line"/>
      <point x="547.0" y="-302.0" type="line"/>
      <point x="786.0" y="1400.0" type="line"/>
      <point x="539.6" y="1400.0" type="line" smooth="yes"/>
      <point x="351.6" y="1400.0"/>
      <point x="185.6" y="1254.0"/>
      <point x="160.6" y="1073.0" type="curve" smooth="yes"/>
      <point x="132.6" y="876.4"/>
      <point x="269.4" y="718.0"/>
      <point x="457.4" y="718.0" type="curve"/>
    </contour>
    <contour>
      <point x="617.0" y="-302.0" type="line"/>
      <point x="857.0" y="-302.0" type="line"/>
      <point x="1096.0" y="1400.0" type="line"/>
      <point x="856.0" y="1400.0" type="line"/>
    </contour>
  </outline>
</glyph>
<glyph name="periodcentered" format="2">
  <advance width="407.5"/>
  <unicode hex="00B7"/>
  <outline>
    <contour>
      <point x="213.6" y="476.4" type="curve" smooth="yes"/>
      <point x="274.6" y="476.4"/>
      <point x="330.6" y="524.4"/>
      <point x="340.0" y="586.6" type="curve" smooth="yes"/>
      <point x="349.6" y="661.2"/>
      <point x="296.6" y="723.6"/>
      <point x="221.2" y="723.6" type="curve" smooth="yes"/>
      <point x="159.4" y="723.6"/>
      <point x="104.6" y="674.4"/>
      <point x="95.6" y="613.8" type="curve" smooth="yes"/>
      <point x="85.0" y="537.1999999999999"/>
      <point x="137.4" y="476.4"/>
    </contour>
  </outline>
</glyph>
<glyph name="onesuperior" format="2">
  <advance width="449.75"/>
  <unicode hex="00B9"/>
  <outline>
    <contour>
      <point x="206.6" y="818.0" type="line"/>
      <point x="350.6" y="818.0" type="line"/>
      <point x="438.6" y="1449.0" type="line"/>
      <point x="248.8" y="1449.0" type="line"/>
      <point x="208.6" y="1305.0" type="line"/>
      <point x="275.20000000000005" y="1305.0" type="line"/>
    </contour>
  </outline>
</glyph>
<glyph name="questiondown" format="2">
  <advance width="1094.0"/>
  <unicode hex="00BF"/>
  <outline>
    <contour>
      <point x="415.4" y="-426.4" type="curve" smooth="yes"/>
      <point x="657.6" y="-426.4"/>
      <point x="881.4" y="-230.4"/>
      <point x="916.0" y="17.6" type="curve"/>
      <point x="677.6" y="30.4" type="line"/>
      <point x="661.2" y="-86.0"/>
      <point x="545.6" y="-186.4"/>
      <point x="422.2" y="-186.4" type="curve" smooth="yes"/>
      <point x="312.40000000000003" y="-186.4"/>
      <point x="235.6" y="-99.2"/>
      <point x="251.4" y="10.600000000000001" type="curve" smooth="yes"/>
      <point x="263.6" y="100.0"/>
      <point x="320.2" y="175.20000000000002"/>
      <point x="396.40000000000003" y="207.6" type="curve" smooth="yes"/>
      <point x="533.6" y="283.0"/>
      <point x="625.6" y="414.20000000000005"/>
      <point x="647.0" y="563.6" type="curve"/>
      <point x="408.6" y="576.4" type="line"/>
      <point x="400.0" y="514.2"/>
      <point x="353.6" y="456.59999999999997"/>
      <point x="290.8" y="431.59999999999997" type="curve" smooth="yes"/>
      <point x="141.4" y="351.59999999999997"/>
      <point x="38.0" y="201.20000000000002"/>
      <point x="15.2" y="37.4" type="curve" smooth="yes"/>
      <point x="-21.0" y="-217.6"/>
      <point x="158.79999999999998" y="-426.4"/>
    </contour>
    <contour>
      <point x="562.6" y="778.4" type="curve" smooth="yes"/>
      <point x="624.4" y="778.4"/>
      <point x="679.2" y="826.4000000000001"/>
      <point x="687.2" y="887.0" type="curve" smooth="yes"/>
      <point x="698.2" y="965.2"/>
      <point x="646.0" y="1026.0"/>
      <point x="570.2" y="1026.0" type="curve" smooth="yes"/>
      <point x="509.20000000000005" y="1026.0"/>
      <point x="454.4" y="978.0"/>
      <point x="445.4" y="914.1999999999999" type="curve" smooth="yes"/>
      <point x="434.4" y="839.6"/>
      <point x="487.20000000000005" y="778.4"/>
    </contour>
  </outline>
</glyph>
<glyph name="AE" format="2">
  <advance width="1675.6"/>
  <unicode hex="00C6"/>
  <outline>
    <contour>
      <point x="7.4" y="0.0" type="line"/>
      <point x="266.0" y="0.0" type="line"/>
      <point x="392.20000000000005" y="250.0" type="line"/>
      <point x="804.2" y="250.0" type="line"/>
      <point x="769.2" y="0.0" type="line"/>
      <point x="1506.0" y="0.0" type="line"/>
      <point x="1539.6" y="240.0" type="line"/>
      <point x="1042.4" y="240.0" type="line"/>
      <point x="1090.2" y="580.0" type="line"/>
      <point x="1491.4" y="580.0" type="line"/>
      <point x="1524.6" y="820.0" type="line"/>
      <point x="1123.8" y="820.0" type="line"/>
      <point x="1171.6000000000001" y="1160.0" type="line"/>
      <point x="1668.4" y="1160.0" type="line"/>
      <point x="1702.0" y="1400.0" type="line"/>
      <point x="713.1999999999999" y="1400.0" type="line"/>
    </contour>
    <contour>
      <point x="513.8000000000001" y="490.0" type="line"/>
      <point x="852.2" y="1160.0" type="line"/>
      <point x="931.6" y="1160.0" type="line"/>
      <point x="837.8000000000001" y="490.0" type="line"/>
    </contour>
  </outline>
</glyph>
<glyph name="Eth" format="2">
  <advance width="1460.0"/>
  <unicode hex="00D0"/>
  <outline>
    <contour>
      <point x="167.6" y="0.0" type="line"/>
      <point x="636.0" y="0.0" type="line" smooth="yes"/>
      <point x="1021.9999999999999" y="0.0"/>
      <point x="1373.0" y="307.6"/>
      <point x="1426.3999999999999" y="686.6" type="curve" smooth="yes"/>
      <point x="1481.0" y="1079.6"/>
      <point x="1205.6" y="1400.0"/>
      <point x="819.6" y="1400.0" type="curve" smooth="yes"/>
      <point x="363.59999999999997" y="1400.0" type="line"/>
      <point x="289.2" y="870.0" type="line"/>
      <point x="152.0" y="870.0" type="line"/>
      <point x="118.8" y="630.0" type="line"/>
      <point x="255.6" y="630.0" type="line"/>
    </contour>
    <contour>
      <point x="440.8" y="240.0" type="line"/>
      <point x="495.59999999999997" y="630.0" type="line"/>
      <point x="773.6" y="630.0" type="line"/>
      <point x="807.2" y="870.0" type="line"/>
      <point x="529.2" y="870.0" type="line"/>
      <point x="570.0" y="1160.0" type="line"/>
      <point x="799.8000000000001" y="1160.0" type="line" smooth="yes"/>
      <point x="1050.6000000000001" y="1160.0"/>
      <point x="1224.8" y="961.6"/>
      <point x="1189.6" y="713.4" type="curve" smooth="yes"/>
      <point x="1153.6" y="455.2"/>
      <point x="912.0" y="240.0"/>
      <point x="656.8000000000001" y="240.0" type="curve" smooth="yes"/>
    </contour>
  </outline>
</glyph>
<glyph name="multiply" format="2">
  <advance width="1036.0"/>
  <unicode hex="00D7"/>
  <outline>
    <contour>
      <point x="206.6" y="161.6" type="line"/>
      <point x="511.6" y="430.4" type="line"/>
      <point x="743.0" y="161.6" type="line"/>
      <point x="932.2" y="331.2" type="line"/>
      <point x="700.4" y="600.0" type="line"/>
      <point x="1008.2" y="869.2" type="line"/>
      <point x="857.0" y="1038.4" type="line"/>
      <point x="550.4000000000001" y="769.6" type="line"/>
      <point x="320.6" y="1038.4" type="line"/>
      <point x="132.2" y="869.2" type="line"/>
      <point x="361.6" y="600.0" type="line"/>
      <point x="56.2" y="331.2" type="line"/>
    </contour>
  </outline>
</glyph>
<glyph name="Oslash" format="2">
  <advance width="1540.0"/>
  <unicode hex="00D8"/>
  <outline>
    <contour>
      <point x="363.2" y="-107.2" type="line"/>
      <point x="463.0" y="29.000000000000004" type="line"/>
      <point x="533.2" y="-4.6"/>
      <point x="614.0" y="-26.0"/>
      <point x="709.4" y="-26.0" type="curve" smooth="yes"/>
      <point x="1082.4" y="-26.0"/>
      <point x="1431.4" y="293.6"/>
      <point x="1486.4" y="686.6" type="curve" smooth="yes"/>
      <point x="1517.6" y="911.2"/>
      <point x="1448.4" y="1107.6000000000001"/>
      <point x="1322.2" y="1240.8" type="curve"/>
      <point x="1431.6" y="1387.2" type="line"/>
      <point x="1235.8" y="1507.2" type="line"/>
      <point x="1135.0" y="1372.6000000000001" type="line"/>
      <point x="1065.2" y="1405.0"/>
      <point x="984.0" y="1426.0"/>
      <point x="886.6" y="1426.0" type="curve" smooth="yes"/>
      <point x="513.6" y="1426.0"/>
      <point x="165.6" y="1106.4"/>
      <point x="109.6" y="713.4" type="curve" smooth="yes"/>
      <point x="78.4" y="489.59999999999997"/>
      <point x="149.6" y="292.8"/>
      <point x="274.6" y="160.8" type="curve"/>
      <point x="166.4" y="12.8" type="line"/>
    </contour>
    <contour>
      <point x="421.0" y="371.0" type="line"/>
      <point x="358.4" y="453.4"/>
      <point x="329.6" y="567.6"/>
      <point x="346.4" y="686.6" type="curve" smooth="yes"/>
      <point x="384.4" y="959.2"/>
      <point x="624.4" y="1186.0"/>
      <point x="880.2" y="1186.0" type="curve" smooth="yes"/>
      <point x="918.4" y="1186.0"/>
      <point x="961.2" y="1178.2"/>
      <point x="998.4" y="1162.2" type="curve"/>
    </contour>
    <contour>
      <point x="716.2" y="214.0" type="curve" smooth="yes"/>
      <point x="679.6" y="214.0"/>
      <point x="636.8" y="221.2"/>
      <point x="600.2" y="238.8" type="curve"/>
      <point x="1178.0" y="1029.4" type="line"/>
      <point x="1239.8" y="946.6"/>
      <point x="1266.4" y="832.4"/>
      <point x="1249.6" y="713.4" type="curve" smooth="yes"/>
      <point x="1211.6" y="441.2"/>
      <point x="971.6" y="214.0"/>
    </contour>
  </outline>
</glyph>
<glyph name="Thorn" format="2">
  <advance width="1105.0"/>
  <unicode hex="00DE"/>
  <outline>
    <contour>
      <point x="50.0" y="0.0" type="line"/>
      <point x="290.0" y="0.0" type="line"/>
      <point x="329.2" y="279.2" type="line"/>
      <point x="593.6" y="279.2" type="line" smooth="yes"/>
      <point x="813.6" y="279.2"/>
      <point x="1019.6" y="459.20000000000005"/>
      <point x="1051.6000000000001" y="686.6" type="curve" smooth="yes"/>
      <point x="1085.2" y="924.4000000000001"/>
      <point x="926.4" y="1121.2"/>
      <point x="698.8" y="1121.2" type="curve" smooth="yes"/>
      <point x="447.2" y="1121.2" type="line"/>
      <point x="486.0" y="1400.0" type="line"/>
      <point x="246.0" y="1400.0" type="line"/>
    </contour>
    <contour>
      <point x="362.4" y="519.2" type="line"/>
      <point x="418.0" y="914.0" type="line"/>
      <point x="657.8" y="914.0" type="line" smooth="yes"/>
      <point x="763.4" y="914.0"/>
      <point x="832.0" y="833.6"/>
      <point x="817.6" y="730.1999999999999" type="curve" smooth="yes"/>
      <point x="801.0" y="612.4"/>
      <point x="694.4" y="519.2"/>
      <point x="588.8" y="519.2" type="curve" smooth="yes"/>
    </contour>
  </outline>
</glyph>
<glyph name="germandbls" format="2">
  <advance width="1142.0"/>
  <unicode hex="00DF"/>
  <outline>
    <contour>
      <point x="50.0" y="0.0" type="line"/>
      <point x="290.0" y="0.0" type="line"/>
      <point x="423.6" y="954.4000000000001" type="line" smooth="yes"/>
      <point x="441.8" y="1083.1999999999998"/>
      <point x="567.0" y="1192.4"/>
      <point x="702.2" y="1192.4" type="curve" smooth="yes"/>
      <point x="795.0" y="1192.4"/>
      <point x="859.2" y="1113.6000000000001"/>
      <point x="845.6" y="1016.6" type="curve" smooth="yes"/>
      <point x="830.2" y="905.6"/>
      <point x="730.0" y="824.6"/>
      <point x="629.2" y="814.2" type="curve" smooth="yes"/>
      <point x="609.4" y="810.4" type="line"/>
      <point x="582.8" y="614.0" type="line"/>
      <point x="674.0" y="611.2" type="line" smooth="yes"/>
      <point x="792.6" y="606.4"/>
      <point x="870.6" y="525.6"/>
      <point x="856.8000000000001" y="422.2" type="curve" smooth="yes"/>
      <point x="840.4" y="304.4"/>
      <point x="722.6" y="205.6"/>
      <point x="603.4" y="205.6" type="curve" smooth="yes"/>
      <point x="526.6" y="205.6" type="line"/>
      <point x="532.2" y="0.0" type="line"/>
      <point x="611.6" y="0.0" type="line" smooth="yes"/>
      <point x="835.2" y="0.0"/>
      <point x="1034.0" y="161.6"/>
      <point x="1065.2" y="378.6" type="curve" smooth="yes"/>
      <point x="1084.4" y="519.6"/>
      <point x="1062.6" y="697.8"/>
      <point x="901.6" y="724.4" type="curve"/>
      <point x="1020.2" y="776.6"/>
      <point x="1068.8" y="896.0"/>
      <point x="1081.8" y="989.4000000000001" type="curve" smooth="yes"/>
      <point x="1114.6000000000001" y="1222.4"/>
      <point x="958.8000000000001" y="1399.6"/>
      <point x="731.6" y="1399.6" type="curve" smooth="yes"/>
      <point x="461.6" y="1399.6"/>
      <point x="215.6" y="1182.0"/>
      <point x="177.4" y="907.6" type="curve" smooth="yes"/>
    </contour>
  </outline>
</glyph>
<glyph name="ae" format="2">
  <advance width="1840.25"/>
  <unicode hex="00E6"/>
  <outline>
    <contour>
      <point x="426.4" y="-19.6" type="curve" smooth="yes"/>
      <point x="548.8000000000001" y="-19.6" type="line" smooth="yes"/>
      <point x="691.2" y="-19.6"/>
      <point x="792.6" y="36.0"/>
      <point x="883.2" y="147.60000000000002" type="curve"/>
      <point x="952.4" y="50.4"/>
      <point x="1070.8" y="-19.6"/>
      <point x="1221.0" y="-19.6" type="curve" smooth="yes"/>
      <point x="1413.6000000000001" y="-19.6"/>
      <point x="1599.2" y="98.0"/>
      <point x="1704.2" y="276.0" type="curve"/>
      <point x="1461.6" y="345.4" type="line"/>
      <point x="1404.8" y="271.0"/>
      <point x="1320.4" y="220.39999999999998"/>
      <point x="1227.4" y="220.39999999999998" type="curve" smooth="yes"/>
      <point x="1106.4" y="222.0"/>
      <point x="1034.4" y="302.4"/>
      <point x="1024.8000000000002" y="419.20000000000005" type="curve"/>
      <point x="1762.6000000000001" y="419.20000000000005" type="line"/>
      <point x="1851.6" y="742.4000000000001"/>
      <point x="1659.2" y="1034.4"/>
      <point x="1342.2" y="1034.4" type="curve" smooth="yes"/>
      <point x="1204.4" y="1034.4"/>
      <point x="1068.8" y="972.0"/>
      <point x="963.6" y="861.6" type="curve"/>
      <point x="910.0" y="966.0"/>
      <point x="798.4" y="1034.4"/>
      <point x="608.1999999999999" y="1034.4" type="curve" smooth="yes"/>
      <point x="435.2" y="1034.4"/>
      <point x="288.0" y="1012.1999999999999"/>
      <point x="175.20000000000002" y="856.1999999999999" type="curve"/>
      <point x="371.0" y="723.4000000000001" type="line"/>
      <point x="405.79999999999995" y="772.6"/>
      <point x="467.59999999999997" y="815.6"/>
      <point x="604.6" y="815.6" type="curve" smooth="yes"/>
      <point x="755.1999999999999" y="815.6"/>
      <point x="801.6" y="736.4"/>
      <point x="800.0" y="612.0" type="curve"/>
      <point x="383.4" y="605.6" type="line" smooth="yes"/>
      <point x="218.2" y="605.6"/>
      <point x="81.4" y="512.0"/>
      <point x="56.39999999999999" y="351.0" type="curve" smooth="yes"/>
      <point x="24.600000000000005" y="118.0"/>
      <point x="168.39999999999998" y="-19.6"/>
    </contour>
    <contour>
      <point x="477.0" y="130.4" type="curve" smooth="yes"/>
      <point x="347.79999999999995" y="130.4"/>
      <point x="266.59999999999997" y="182.0"/>
      <point x="281.8" y="298.6" type="curve" smooth="yes"/>
      <point x="298.0" y="402.0"/>
      <point x="390.6" y="425.6"/>
      <point x="500.6" y="425.6" type="curve" smooth="yes"/>
      <point x="765.2" y="425.6" type="line"/>
      <point x="756.2" y="360.4" type="line" smooth="yes"/>
      <point x="743.8" y="273.59999999999997"/>
      <point x="652.2" y="130.4"/>
    </contour>
    <contour>
      <point x="1045.8" y="599.2" type="line"/>
      <point x="1088.2" y="724.0"/>
      <point x="1208.8000000000002" y="824.4"/>
      <point x="1339.2" y="824.4" type="curve" smooth="yes"/>
      <point x="1456.4" y="824.4"/>
      <point x="1541.4" y="735.1999999999999"/>
      <point x="1547.3999999999999" y="612.0" type="curve"/>
    </contour>
  </outline>
</glyph>
<glyph name="igrave" format="2">
  <advance width="515.4"/>
  <unicode hex="00EC"/>
  <outline>
    <contour>
      <point x="225.0" y="1000.0" type="line"/>
      <point x="85.0" y="0.0" type="line"/>
      <point x="325.0" y="0.0" type="line"/>
      <point x="465.0" y="1000.0" type="line"/>
    </contour>
    <component base="grave" xOffset="-302.6"/>
  </outline>
</glyph>
<glyph name="icircumflex" format="2">
  <advance width="477.6"/>
  <unicode hex="00EE"/>
  <outline>
    <contour>
      <point x="190.2" y="1000.0" type="line"/>
      <point x="50.199999999999996" y="0.0" type="line"/>
      <point x="290.20000000000005" y="0.0" type="line"/>
      <point x="430.20000000000005" y="1000.0" type="line"/>
    </contour>
    <component base="circumflexcomb" xOffset="-377.4"/>
  </outline>
</glyph>
<glyph name="divide" format="2">
  <advance width="1160.0"/>
  <unicode hex="00F7"/>
  <outline>
    <contour>
      <point x="77.4" y="480.0" type="line"/>
      <point x="1077.4" y="480.0" type="line"/>
      <point x="1110.6" y="720.0" type="line"/>
      <point x="110.6" y="720.0" type="line"/>
    </contour>
    <contour>
      <point x="650.2" y="1093.6" type="curve"/>
      <point x="581.4000000000001" y="1093.6"/>
      <point x="523.0" y="1038.4"/>
      <point x="514.2" y="974.1999999999999" type="curve"/>
      <point x="502.8" y="894.4"/>
      <point x="557.6" y="828.0"/>
      <point x="639.2" y="828.0" type="curve"/>
      <point x="704.8" y="828.0"/>
      <point x="765.6" y="881.6"/>
      <point x="774.4" y="947.0" type="curve"/>
      <point x="785.8" y="1025.6"/>
      <point x="728.6" y="1093.6"/>
    </contour>
    <contour>
      <point x="548.8" y="371.6" type="curve"/>
      <point x="480.0" y="371.6"/>
      <point x="421.6" y="317.2"/>
      <point x="412.8" y="252.20000000000002" type="curve"/>
      <point x="401.40000000000003" y="172.4"/>
      <point x="456.59999999999997" y="106.4"/>
      <point x="538.2" y="106.4" type="curve"/>
      <point x="603.4" y="106.4"/>
      <point x="665.4000000000001" y="159.6"/>
      <point x="674.2" y="225.0" type="curve"/>
      <point x="685.6" y="304.0"/>
      <point x="627.2" y="371.6"/>
    </contour>
  </outline>
</glyph>
<glyph name="oslash" format="2">
  <advance width="1120.0"/>
  <unicode hex="00F8"/>
  <outline>
    <contour>
      <point x="264.2" y="-74.4" type="line"/>
      <point x="327.40000000000003" y="10.200000000000001" type="line"/>
      <point x="375.0" y="-11.4"/>
      <point x="431.2" y="-26.0"/>
      <point x="499.4" y="-26.0" type="curve" smooth="yes"/>
      <point x="768.4" y="-26.0"/>
      <point x="1018.4" y="203.6"/>
      <point x="1058.4" y="486.6" type="curve" smooth="yes"/>
      <point x="1080.6" y="648.4000000000001"/>
      <point x="1032.4" y="788.8000000000001"/>
      <point x="946.4000000000001" y="884.8000000000001" type="curve"/>
      <point x="1017.4000000000001" y="979.6" type="line"/>
      <point x="857.2" y="1077.2" type="line"/>
      <point x="791.4000000000001" y="992.6" type="line"/>
      <point x="745.8000000000001" y="1014.1999999999999"/>
      <point x="688.4" y="1028.0"/>
      <point x="620.6" y="1028.0" type="curve" smooth="yes"/>
      <point x="351.6" y="1028.0"/>
      <point x="101.6" y="798.4"/>
      <point x="61.6" y="513.4" type="curve" smooth="yes"/>
      <point x="39.4" y="354.0"/>
      <point x="88.0" y="213.6"/>
      <point x="174.4" y="117.60000000000001" type="curve"/>
      <point x="103.39999999999999" y="23.2" type="line"/>
    </contour>
    <contour>
      <point x="311.0" y="309.20000000000005" type="line"/>
      <point x="282.4" y="354.4"/>
      <point x="269.8" y="412.4"/>
      <point x="278.2" y="473.0" type="curve" smooth="yes"/>
      <point x="306.6" y="679.2"/>
      <point x="504.20000000000005" y="841.6"/>
      <point x="672.4000000000001" y="803.6" type="curve"/>
    </contour>
    <contour>
      <point x="448.59999999999997" y="198.79999999999998" type="curve"/>
      <point x="809.8" y="693.2" type="line"/>
      <point x="836.8" y="647.6"/>
      <point x="850.2" y="587.6"/>
      <point x="841.8" y="527.0" type="curve" smooth="yes"/>
      <point x="813.4" y="323.2"/>
      <point x="622.1999999999999" y="159.6"/>
    </contour>
  </outline>
</glyph>
<glyph name="thorn" format="2">
  <advance width="1257.0"/>
  <unicode hex="00FE"/>
  <outline>
    <contour>
      <point x="-21.0" y="-500.0" type="line"/>
      <point x="219.0" y="-500.0" type="line"/>
      <point x="312.6" y="132.0" type="line"/>
      <point x="364.2" y="40.4"/>
      <point x="453.6" y="-28.0"/>
      <point x="590.6" y="-28.0" type="curve" smooth="yes"/>
      <point x="874.8" y="-28.0"/>
      <point x="1135.2" y="201.6"/>
      <point x="1175.6000000000001" y="486.6" type="curve" smooth="yes"/>
      <point x="1217.2" y="783.6"/>
      <point x="1010.0" y="1026.0"/>
      <point x="711.4000000000001" y="1026.0" type="curve" smooth="yes"/>
      <point x="589.2" y="1026.0"/>
      <point x="485.59999999999997" y="967.6"/>
      <point x="408.4" y="876.0" type="curve"/>
      <point x="486.6" y="1400.0" type="line"/>
      <point x="246.0" y="1400.0" type="line"/>
    </contour>
    <contour>
      <point x="593.2" y="204.39999999999998" type="curve" smooth="yes"/>
      <point x="443.6" y="204.39999999999998"/>
      <point x="356.4" y="330.4"/>
      <point x="379.2" y="486.6" type="curve" smooth="yes"/>
      <point x="402.2" y="656.0"/>
      <point x="541.2" y="795.2"/>
      <point x="702.8" y="795.2" type="curve" smooth="yes"/>
      <point x="853.6" y="795.2"/>
      <point x="955.8" y="668.0"/>
      <point x="934.0" y="513.4" type="curve" smooth="yes"/>
      <point x="910.6" y="341.59999999999997"/>
      <point x="755.2" y="204.39999999999998"/>
    </contour>
  </outline>
</glyph>
<glyph name="idotless" format="2">
  <advance width="480.4"/>
  <unicode hex="0131"/>
  <outline>
    <contour>
      <point x="190.0" y="1000.0" type="line"/>
      <point x="50.0" y="0.0" type="line"/>
      <point x="290.0" y="0.0" type="line"/>
      <point x="430.0" y="1000.0" type="line"/>
    </contour>
  </outline>
</glyph>
<glyph name="OE" format="2">
  <advance width="2123.5"/>
  <unicode hex="0152"/>
  <outline>
    <contour>
      <point x="709.4" y="-26.0" type="curve" smooth="yes"/>
      <point x="882.0" y="-26.0"/>
      <point x="1054.2" y="50.199999999999996"/>
      <point x="1182.4" y="174.6" type="curve"/>
      <point x="1152.2" y="0.0" type="line"/>
      <point x="1953.6" y="0.0" type="line"/>
      <point x="1987.1999999999998" y="240.0" type="line"/>
      <point x="1426.4" y="240.0" type="line"/>
      <point x="1474.2" y="580.0" type="line"/>
      <point x="1938.6" y="580.0" type="line"/>
      <point x="1972.1999999999998" y="820.0" type="line"/>
      <point x="1507.8" y="820.0" type="line"/>
      <point x="1555.6000000000001" y="1160.0" type="line"/>
      <point x="2116.0" y="1160.0" type="line"/>
      <point x="2149.6" y="1400.0" type="line"/>
      <point x="1349.2" y="1400.0" type="line"/>
      <point x="1318.4" y="1216.6000000000001" type="line"/>
      <point x="1225.2" y="1341.3999999999999"/>
      <point x="1073.1999999999998" y="1426.0"/>
      <point x="886.6" y="1426.0" type="curve" smooth="yes"/>
      <point x="513.6" y="1426.0"/>
      <point x="165.6" y="1106.4"/>
      <point x="109.6" y="713.4" type="curve" smooth="yes"/>
      <point x="52.6" y="306.4"/>
      <point x="322.4" y="-26.0"/>
    </contour>
    <contour>
      <point x="716.2" y="214.0" type="curve" smooth="yes"/>
      <point x="475.59999999999997" y="214.0"/>
      <point x="309.6" y="426.4"/>
      <point x="346.4" y="686.6" type="curve" smooth="yes"/>
      <point x="384.4" y="959.2"/>
      <point x="624.4" y="1186.0"/>
      <point x="880.2" y="1186.0" type="curve" smooth="yes"/>
      <point x="1120.3999999999999" y="1186.0"/>
      <point x="1286.4" y="973.1999999999999"/>
      <point x="1249.6" y="713.4" type="curve" smooth="yes"/>
      <point x="1211.6" y="441.2"/>
      <point x="971.6" y="214.0"/>
    </contour>
  </outline>
</glyph>
<glyph name="oe" format="2">
  <advance width="1879.5"/>
  <unicode hex="0153"/>
  <outline>
    <contour>
      <point x="499.4" y="-26.0" type="curve" smooth="yes"/>
      <point x="648.4" y="-26.0"/>
      <point x="796.2" y="48.4"/>
      <point x="903.4" y="173.2" type="curve"/>
      <point x="967.4000000000001" y="58.4"/>
      <point x="1096.4" y="-26.0"/>
      <point x="1259.4" y="-26.0" type="curve" smooth="yes"/>
      <point x="1452.4" y="-26.0"/>
      <point x="1637.6" y="91.6"/>
      <point x="1742.6" y="269.6" type="curve"/>
      <point x="1500.3999999999999" y="339.0" type="line"/>
      <point x="1443.2" y="264.59999999999997"/>
      <point x="1359.2" y="214.0"/>
      <point x="1266.2" y="214.0" type="curve" smooth="yes"/>
      <point x="1145.2" y="215.6"/>
      <point x="1073.2" y="296.0"/>
      <point x="1063.2" y="412.4" type="curve"/>
      <point x="1801.4" y="412.4" type="line"/>
      <point x="1890.0" y="736.0"/>
      <point x="1697.6" y="1028.0"/>
      <point x="1380.6" y="1028.0" type="curve" smooth="yes"/>
      <point x="1231.6" y="1028.0"/>
      <point x="1084.2" y="953.6"/>
      <point x="976.6" y="828.4" type="curve"/>
      <point x="912.6" y="943.6"/>
      <point x="783.6" y="1028.0"/>
      <point x="620.6" y="1028.0" type="curve" smooth="yes"/>
      <point x="351.6" y="1028.0"/>
      <point x="101.6" y="798.4"/>
      <point x="61.6" y="513.4" type="curve" smooth="yes"/>
      <point x="19.6" y="216.4"/>
      <point x="216.4" y="-26.0"/>
    </contour>
    <contour>
      <point x="506.2" y="214.0" type="curve" smooth="yes"/>
      <point x="372.4" y="214.0"/>
      <point x="276.6" y="332.4"/>
      <point x="298.4" y="486.6" type="curve" smooth="yes"/>
      <point x="320.8" y="648.0"/>
      <point x="460.40000000000003" y="788.0"/>
      <point x="614.2" y="788.0" type="curve" smooth="yes"/>
      <point x="749.6" y="788.0"/>
      <point x="843.4" y="664.0"/>
      <point x="821.6" y="513.4" type="curve" smooth="yes"/>
      <point x="799.2" y="352.4"/>
      <point x="660.8000000000001" y="214.0"/>
    </contour>
    <contour>
      <point x="1084.2" y="592.4000000000001" type="line"/>
      <point x="1126.6" y="717.6"/>
      <point x="1247.2" y="818.0"/>
      <point x="1377.6" y="818.0" type="curve" smooth="yes"/>
      <point x="1494.8" y="818.0"/>
      <point x="1580.2" y="728.4"/>
      <point x="1586.2" y="605.6" type="curve"/>
    </contour>
  </outline>
</glyph>
<glyph name="caron" format="2">
  <advance width="677.0"/>
  <unicode hex="02C7"/>
  <outline>
    <contour>
      <point x="316.0" y="1166.0" type="line"/>
      <point x="552.4000000000001" y="1166.0" type="line"/>
      <point x="685.4000000000001" y="1400.0" type="line"/>
      <point x="525.1999999999999" y="1400.0" type="line"/>
      <point x="440.6" y="1251.6" type="line"/>
      <point x="401.2" y="1400.0" type="line"/>
      <point x="248.6" y="1400.0" type="line"/>
    </contour>
  </outline>
</glyph>
<glyph name="breve" format="2">
  <advance width="1144.0"/>
  <unicode hex="02D8"/>
  <outline>
    <contour>
      <point x="673.8" y="1128.0" type="curve" smooth="yes"/>
      <point x="849.4" y="1128.0"/>
      <point x="1012.0" y="1268.4"/>
      <point x="1038.4" y="1453.6" type="curve"/>
      <point x="889.6" y="1466.4" type="line"/>
      <point x="875.6" y="1364.4"/>
      <point x="774.6" y="1278.0"/>
      <point x="668.2" y="1278.0" type="curve" smooth="yes"/>
      <point x="576.2" y="1278.0"/>
      <point x="509.6" y="1352.4"/>
      <point x="524.4" y="1453.6" type="curve"/>
      <point x="375.6" y="1466.4" type="line"/>
      <point x="350.6" y="1284.4"/>
      <point x="485.4" y="1128.0"/>
    </contour>
  </outline>
</glyph>
<glyph name="ogonek" format="2">
  <advance width="1166.0"/>
  <unicode hex="02DB"/>
  <outline>
    <contour>
      <point x="514.2" y="-422.4" type="curve" smooth="yes"/>
      <point x="608.2" y="-422.4" type="line"/>
      <point x="633.6" y="-244.0" type="line"/>
      <point x="523.0" y="-244.0" type="line" smooth="yes"/>
      <point x="424.20000000000005" y="-244.0"/>
      <point x="348.0" y="-155.6"/>
      <point x="361.79999999999995" y="-57.99999999999999" type="curve" smooth="yes"/>
      <point x="378.4" y="62.0" type="line"/>
      <point x="200.0" y="62.0" type="line"/>
      <point x="185.6" y="-42.0" type="line" smooth="yes"/>
      <point x="156.4" y="-248.39999999999998"/>
      <point x="306.20000000000005" y="-422.4"/>
    </contour>
  </outline>
</glyph>
<glyph name="acutecomb" format="2">
  <unicode hex="0301"/>
  <outline>
    <contour>
      <point x="568.4" y="1138.0" type="line"/>
      <point x="697.4000000000001" y="1138.0" type="line"/>
      <point x="932.6" y="1426.0" type="line"/>
      <point x="688.4" y="1426.0" type="line"/>
    </contour>
  </outline>
</glyph>
<glyph name="circumflexcomb" format="2">
  <unicode hex="0302"/>
  <outline>
    <contour>
      <point x="625.1999999999999" y="1400.0" type="line"/>
      <point x="491.4" y="1166.0" type="line"/>
      <point x="652.0" y="1166.0" type="line"/>
      <point x="738.2" y="1314.4" type="line"/>
      <point x="776.0" y="1166.0" type="line"/>
      <point x="928.6" y="1166.0" type="line"/>
      <point x="861.6" y="1400.0" type="line"/>
    </contour>
  </outline>
</glyph>
<glyph name="tildecomb" format="2">
  <unicode hex="0303"/>
  <outline>
    <contour>
      <point x="911.6" y="1224.0" type="curve" smooth="yes"/>
      <point x="1045.2" y="1224.0"/>
      <point x="1134.4" y="1341.1999999999998"/>
      <point x="1104.2" y="1503.6" type="curve"/>
      <point x="960.0" y="1470.0" type="line"/>
      <point x="968.6" y="1433.6000000000001"/>
      <point x="959.0" y="1377.2"/>
      <point x="912.2" y="1377.2" type="curve" smooth="yes"/>
      <point x="876.2" y="1377.2"/>
      <point x="718.6" y="1520.0"/>
      <point x="614.6" y="1520.0" type="curve" smooth="yes"/>
      <point x="474.20000000000005" y="1520.0"/>
      <point x="393.2" y="1399.6000000000001"/>
      <point x="425.0" y="1245.6000000000001" type="curve"/>
      <point x="565.4" y="1271.1999999999998" type="line"/>
      <point x="558.8" y="1315.1999999999998"/>
      <point x="572.2" y="1341.6"/>
      <point x="594.0" y="1353.6" type="curve" smooth="yes"/>
      <point x="631.6" y="1394.0"/>
      <point x="804.0" y="1224.0"/>
    </contour>
  </outline>
</glyph>
<glyph name="dotaccentcomb" format="2">
  <unicode hex="0307"/>
  <outline>
    <contour>
      <point x="630.0" y="1150.4" type="curve" smooth="yes"/>
      <point x="692.4" y="1150.4"/>
      <point x="747.2" y="1196.4"/>
      <point x="755.6" y="1260.6" type="curve" smooth="yes"/>
      <point x="766.2" y="1337.1999999999998"/>
      <point x="713.4" y="1397.6"/>
      <point x="638.2" y="1397.6" type="curve" smooth="yes"/>
      <point x="573.4" y="1397.6"/>
      <point x="519.6" y="1350.0"/>
      <point x="510.6" y="1287.4" type="curve" smooth="yes"/>
      <point x="499.6" y="1209.6000000000001"/>
      <point x="552.4" y="1150.4"/>
    </contour>
  </outline>
</glyph>
<glyph name="dieresiscomb" format="2">
  <unicode hex="0308"/>
  <outline>
    <contour>
      <point x="630.4" y="1150.4" type="curve" smooth="yes"/>
      <point x="693.2" y="1150.4"/>
      <point x="748.4" y="1196.4"/>
      <point x="756.4" y="1260.6" type="curve" smooth="yes"/>
      <point x="767.4" y="1336.4"/>
      <point x="714.2" y="1398.0"/>
      <point x="638.6" y="1398.0" type="curve" smooth="yes"/>
      <point x="574.2" y="1398.0"/>
      <point x="519.6" y="1349.6000000000001"/>
      <point x="510.6" y="1287.4" type="curve" smooth="yes"/>
      <point x="499.6" y="1209.6000000000001"/>
      <point x="553.2" y="1150.4"/>
    </contour>
    <contour>
      <point x="1023.6" y="1150.4" type="curve" smooth="yes"/>
      <point x="1086.0" y="1150.4"/>
      <point x="1141.2" y="1196.4"/>
      <point x="1149.6000000000001" y="1260.6" type="curve" smooth="yes"/>
      <point x="1160.2" y="1336.4"/>
      <point x="1107.4" y="1398.0"/>
      <point x="1031.8" y="1398.0" type="curve" smooth="yes"/>
      <point x="967.4" y="1398.0"/>
      <point x="912.4000000000001" y="1349.6000000000001"/>
      <point x="903.4000000000001" y="1287.4" type="curve" smooth="yes"/>
      <point x="892.8000000000001" y="1209.6000000000001"/>
      <point x="946.0" y="1150.4"/>
    </contour>
  </outline>
</glyph>
<glyph name="ringcomb" format="2">
  <unicode hex="030A"/>
  <outline>
    <contour>
      <point x="682.1999999999999" y="1097.2" type="curve" smooth="yes"/>
      <point x="776.4" y="1097.2"/>
      <point x="863.4000000000001" y="1173.6"/>
      <point x="877.2" y="1270.1999999999998" type="curve" smooth="yes"/>
      <point x="892.0" y="1376.4"/>
      <point x="815.6" y="1466.4"/>
      <point x="706.6" y="1466.4" type="curve" smooth="yes"/>
      <point x="612.4000000000001" y="1466.4"/>
      <point x="525.4" y="1389.6000000000001"/>
      <point x="512.2" y="1297.0" type="curve" smooth="yes"/>
      <point x="496.8" y="1188.4"/>
      <point x="573.6" y="1097.2"/>
    </contour>
    <contour>
      <point x="668.0" y="1191.6" type="curve" smooth="yes"/>
      <point x="625.0" y="1191.6"/>
      <point x="596.4" y="1225.1999999999998"/>
      <point x="602.8" y="1270.1999999999998" type="curve" smooth="yes"/>
      <point x="610.4" y="1325.1999999999998"/>
      <point x="663.8" y="1371.6"/>
      <point x="720.1999999999999" y="1371.6" type="curve" smooth="yes"/>
      <point x="763.8" y="1371.6"/>
      <point x="792.4" y="1338.0"/>
      <point x="786.6" y="1297.0" type="curve" smooth="yes"/>
      <point x="778.4" y="1238.0"/>
      <point x="725.0" y="1191.6"/>
    </contour>
  </outline>
</glyph>
<glyph name="cedillacomb" format="2">
  <unicode hex="0327"/>
  <outline>
    <contour>
      <point x="287.0" y="-306.0" type="line"/>
      <point x="393.79999999999995" y="-306.0" type="line" smooth="yes"/>
      <point x="601.8" y="-306.0"/>
      <point x="785.6" y="-145.20000000000002"/>
      <point x="814.8" y="61.6" type="curve" smooth="yes"/>
      <point x="829.2" y="168.4" type="line"/>
      <point x="650.8000000000001" y="168.4" type="line"/>
      <point x="637.0" y="71.60000000000001" type="line" smooth="yes"/>
      <point x="623.2" y="-26.0"/>
      <point x="507.4" y="-127.6"/>
      <point x="408.6" y="-127.6" type="curve" smooth="yes"/>
      <point x="311.4" y="-127.6" type="line"/>
    </contour>
  </outline>
</glyph>
<glyph name="mu" format="2">
  <advance width="1131.5"/>
  <unicode hex="03BC"/>
  <outline>
    <contour>
      <point x="-51.0" y="-432.0" type="line"/>
      <point x="189.0" y="-432.0" type="line"/>
      <point x="263.6" y="54.6" type="line"/>
      <point x="312.20000000000005" y="6.6"/>
      <point x="381.2" y="-27.6"/>
      <point x="472.6" y="-27.6" type="curve" smooth="yes"/>
      <point x="583.6" y="-27.6"/>
      <point x="682.1999999999999" y="26.8"/>
      <point x="761.4" y="115.60000000000001" type="curve"/>
      <point x="740.6" y="0.0" type="line"/>
      <point x="981.5999999999999" y="0.0" type="line"/>
      <point x="1121.6" y="1000.0" type="line"/>
      <point x="881.6" y="1000.0" type="line"/>
      <point x="810.6" y="494.4" type="line" smooth="yes"/>
      <point x="789.0" y="338.0"/>
      <point x="671.6" y="205.2"/>
      <point x="518.8000000000001" y="205.2" type="curve" smooth="yes"/>
      <point x="376.8" y="205.2"/>
      <point x="295.2" y="325.20000000000005"/>
      <point x="317.4" y="481.6" type="curve" smooth="yes"/>
      <point x="390.0" y="1000.0" type="line"/>
      <point x="150.0" y="1000.0" type="line"/>
    </contour>
  </outline>
</glyph>
<glyph name="Germandbls" format="2">
  <advance width="1202.0"/>
  <unicode hex="1E9E"/>
  <outline>
    <contour>
      <point x="50.0" y="0.0" type="line"/>
      <point x="290.0" y="0.0" type="line"/>
      <point x="423.6" y="954.4000000000001" type="line" smooth="yes"/>
      <point x="441.8" y="1083.1999999999998"/>
      <point x="568.2" y="1192.4"/>
      <point x="686.6" y="1192.4" type="curve" smooth="yes"/>
      <point x="782.2" y="1192.4"/>
      <point x="866.0" y="1188.0"/>
      <point x="855.4" y="1107.0" type="curve" smooth="yes"/>
      <point x="847.0" y="1044.4"/>
      <point x="617.4" y="838.4"/>
      <point x="601.6" y="708.0" type="curve" smooth="yes"/>
      <point x="588.6" y="611.2" type="line"/>
      <point x="673.6" y="611.2" type="line" smooth="yes"/>
      <point x="793.1999999999999" y="611.2"/>
      <point x="936.6" y="565.6"/>
      <point x="916.8000000000001" y="422.59999999999997" type="curve" smooth="yes"/>
      <point x="894.4" y="264.4"/>
      <point x="722.6" y="205.6"/>
      <point x="603.4" y="205.6" type="curve" smooth="yes"/>
      <point x="526.6" y="205.6" type="line"/>
      <point x="548.0" y="0.0" type="line"/>
      <point x="611.6" y="0.0" type="line" smooth="yes"/>
      <point x="835.2" y="0.0"/>
      <point x="1091.2" y="136.39999999999998"/>
      <point x="1127.4" y="393.4" type="curve" smooth="yes"/>
      <point x="1153.4" y="580.0"/>
      <point x="988.4" y="764.0"/>
      <point x="804.4" y="726.6" type="curve"/>
      <point x="994.4" y="922.8000000000001"/>
      <point x="1081.4" y="990.0"/>
      <point x="1093.0" y="1075.4" type="curve" smooth="yes"/>
      <point x="1119.2" y="1259.6"/>
      <point x="942.4" y="1399.6"/>
      <point x="732.4000000000001" y="1399.6" type="curve" smooth="yes"/>
      <point x="463.6" y="1399.6"/>
      <point x="215.6" y="1182.0"/>
      <point x="177.0" y="907.1999999999999" type="curve" smooth="yes"/>
    </contour>
  </outline>
</glyph>
<glyph name="endash" format="2">
  <advance width="1240.0"/>
  <unicode hex="2013"/>
  <outline>
    <contour>
      <point x="150.6" y="720.0" type="line"/>
      <point x="117.4" y="480.0" type="line"/>
      <point x="1117.4" y="480.0" type="line"/>
      <point x="1150.6" y="720.0" type="line"/>
    </contour>
  </outline>
</glyph>
<glyph name="emdash" format="2">
  <advance width="2040.0"/>
  <unicode hex="2014"/>
  <outline>
    <contour>
      <point x="150.6" y="720.0" type="line"/>
      <point x="117.4" y="480.0" type="line"/>
      <point x="1917.4" y="480.0" type="line"/>
      <point x="1950.6" y="720.0" type="line"/>
    </contour>
  </outline>
</glyph>
<glyph name="quoteleft" format="2">
  <advance width="402.0"/>
  <unicode hex="2018"/>
  <unicode hex="02BB"/>
  <outline>
    <contour>
      <point x="111.4" y="878.0" type="line"/>
      <point x="353.6" y="878.0" type="line"/>
      <point x="489.0" y="1400.0" type="line"/>
      <point x="326.4" y="1400.0" type="line"/>
    </contour>
  </outline>
</glyph>
<glyph name="dagger" format="2">
  <advance width="856.0"/>
  <unicode hex="2020"/>
  <outline>
    <contour>
      <point x="155.2" y="1035.2" type="line"/>
      <point x="383.2" y="1035.2" type="line"/>
      <point x="317.6" y="570.0" type="line"/>
      <point x="557.6" y="570.0" type="line"/>
      <point x="623.2" y="1035.2" type="line"/>
      <point x="851.2" y="1035.2" type="line"/>
      <point x="884.4" y="1275.2" type="line"/>
      <point x="656.4" y="1275.2" type="line"/>
      <point x="689.0" y="1500.0" type="line"/>
      <point x="449.0" y="1500.0" type="line"/>
      <point x="416.4" y="1275.2" type="line"/>
      <point x="188.4" y="1275.2" type="line"/>
    </contour>
  </outline>
</glyph>
<glyph name="daggerdbl" format="2">
  <advance width="856.0"/>
  <unicode hex="2021"/>
  <outline>
    <contour>
      <point x="112.4" y="732.0" type="line"/>
      <point x="340.4" y="732.0" type="line"/>
      <point x="316.0" y="560.0" type="line"/>
      <point x="556.0" y="560.0" type="line"/>
      <point x="580.4" y="732.0" type="line"/>
      <point x="808.4" y="732.0" type="line"/>
      <point x="841.6" y="970.0" type="line"/>
      <point x="613.6" y="970.0" type="line"/>
      <point x="633.6" y="1110.0" type="line"/>
      <point x="861.6" y="1110.0" type="line"/>
      <point x="895.2" y="1350.0" type="line"/>
      <point x="667.2" y="1350.0" type="line"/>
      <point x="689.0" y="1500.0" type="line"/>
      <point x="449.0" y="1500.0" type="line"/>
      <point x="427.2" y="1350.0" type="line"/>
      <point x="199.2" y="1350.0" type="line"/>
      <point x="165.6" y="1110.0" type="line"/>
      <point x="393.6" y="1110.0" type="line"/>
      <point x="373.6" y="970.0" type="line"/>
      <point x="145.6" y="970.0" type="line"/>
    </contour>
  </outline>
</glyph>
<glyph name="bullet" format="2">
  <advance width="490.0"/>
  <unicode hex="2022"/>
  <outline>
    <contour>
      <point x="249.0" y="435.2" type="curve" smooth="yes"/>
      <point x="333.2" y="435.2"/>
      <point x="410.2" y="501.20000000000005"/>
      <point x="422.4" y="587.0" type="curve" smooth="yes"/>
      <point x="435.6" y="684.4000000000001"/>
      <point x="366.8" y="765.2"/>
      <point x="268.2" y="765.2" type="curve" smooth="yes"/>
      <point x="183.20000000000002" y="765.2"/>
      <point x="108.2" y="697.6"/>
      <point x="95.6" y="614.1999999999999" type="curve" smooth="yes"/>
      <point x="81.8" y="514.0"/>
      <point x="149.6" y="435.2"/>
    </contour>
  </outline>
</glyph>
<glyph name="perthousand" format="2">
  <advance width="2142.0"/>
  <unicode hex="2030"/>
  <outline>
    <contour>
      <point x="134.6" y="0.0" type="line"/>
      <point x="416.2" y="0.0" type="line"/>
      <point x="1421.2" y="1400.0" type="line"/>
      <point x="1138.6000000000001" y="1400.0" type="line"/>
    </contour>
    <contour>
      <point x="433.4" y="795.2" type="curve"/>
      <point x="585.4000000000001" y="795.2"/>
      <point x="733.8000000000001" y="916.4000000000001"/>
      <point x="757.0" y="1078.6" type="curve"/>
      <point x="781.2" y="1250.0"/>
      <point x="659.4" y="1389.6"/>
      <point x="490.2" y="1389.6" type="curve"/>
      <point x="336.59999999999997" y="1389.6"/>
      <point x="187.8" y="1269.2"/>
      <point x="165.6" y="1105.4" type="curve"/>
      <point x="140.8" y="932.4"/>
      <point x="263.8" y="795.2"/>
    </contour>
    <contour>
      <point x="429.59999999999997" y="960.0" type="curve"/>
      <point x="362.4" y="960.0"/>
      <point x="317.2" y="1012.0"/>
      <point x="326.59999999999997" y="1078.6" type="curve"/>
      <point x="337.2" y="1159.6"/>
      <point x="413.2" y="1224.4"/>
      <point x="494.2" y="1224.4" type="curve"/>
      <point x="559.6" y="1224.4"/>
      <point x="605.4" y="1172.4"/>
      <point x="596.0" y="1105.4" type="curve"/>
      <point x="584.4" y="1025.2"/>
      <point x="508.8" y="960.0"/>
    </contour>
    <contour>
      <point x="1050.6" y="9.200000000000003" type="curve"/>
      <point x="1207.6000000000001" y="9.200000000000003"/>
      <point x="1353.6000000000001" y="137.2"/>
      <point x="1375.2" y="293.0" type="curve"/>
      <point x="1398.4" y="458.4"/>
      <point x="1284.2" y="605.2"/>
      <point x="1107.4" y="605.2" type="curve"/>
      <point x="955.4" y="605.2"/>
      <point x="806.1999999999999" y="482.0"/>
      <point x="783.0" y="320.2" type="curve"/>
      <point x="759.8" y="156.0"/>
      <point x="877.2" y="9.200000000000003"/>
    </contour>
    <contour>
      <point x="1046.6" y="174.0" type="curve"/>
      <point x="981.1999999999999" y="174.0"/>
      <point x="934.6" y="227.6"/>
      <point x="944.4" y="293.0" type="curve"/>
      <point x="955.6" y="373.6"/>
      <point x="1031.6" y="440.0"/>
      <point x="1110.8" y="440.0" type="curve"/>
      <point x="1177.6" y="440.0"/>
      <point x="1223.1999999999998" y="386.4"/>
      <point x="1214.1999999999998" y="320.2" type="curve"/>
      <point x="1203.1999999999998" y="240.4"/>
      <point x="1127.1999999999998" y="174.0"/>
    </contour>
    <contour>
      <point x="1708.1999999999998" y="9.200000000000003" type="curve"/>
      <point x="1865.2" y="9.200000000000003"/>
      <point x="2011.2" y="137.2"/>
      <point x="2032.8" y="293.0" type="curve"/>
      <point x="2056.0" y="458.4"/>
      <point x="1941.8" y="605.2"/>
      <point x="1765.0" y="605.2" type="curve"/>
      <point x="1612.6000000000001" y="605.2"/>
      <point x="1463.8" y="482.0"/>
      <point x="1440.6" y="320.2" type="curve"/>
      <point x="1417.4" y="156.0"/>
      <point x="1534.8" y="9.200000000000003"/>
    </contour>
    <contour>
      <point x="1704.1999999999998" y="174.0" type="curve"/>
      <point x="1638.8" y="174.0"/>
      <point x="1592.2" y="227.6"/>
      <point x="1601.6000000000001" y="293.0" type="curve"/>
      <point x="1613.2" y="373.6"/>
      <point x="1689.2" y="440.0"/>
      <point x="1768.3999999999999" y="440.0" type="curve"/>
      <point x="1835.2" y="440.0"/>
      <point x="1880.8" y="386.4"/>
      <point x="1871.4" y="320.2" type="curve"/>
      <point x="1860.8" y="240.4"/>
      <point x="1784.8" y="174.0"/>
    </contour>
  </outline>
</glyph>
<glyph name="primeReversed" format="2">
  <advance width="542.0"/>
  <unicode hex="2035"/>
  <outline>
    <contour>
      <point x="316.6" y="878.0" type="line"/>
      <point x="474.4" y="878.0" type="line"/>
      <point x="486.0" y="1400.0" type="line"/>
      <point x="248.6" y="1400.0" type="line"/>
    </contour>
  </outline>
</glyph>
<glyph name="guilsinglleft" format="2">
  <advance width="765.0"/>
  <unicode hex="2039"/>
  <outline>
    <contour>
      <point x="389.2" y="261.0" type="line"/>
      <point x="628.6" y="261.0" type="line"/>
      <point x="380.4" y="601.0" type="line"/>
      <point x="729.4000000000001" y="939.0" type="line"/>
      <point x="479.4" y="939.0" type="line"/>
      <point x="134.0" y="601.0" type="line"/>
    </contour>
  </outline>
</glyph>
<glyph name="guilsinglright" format="2">
  <advance width="765.0"/>
  <unicode hex="203A"/>
  <outline>
    <contour>
      <point x="63.8" y="261.0" type="line"/>
      <point x="314.4" y="261.0" type="line"/>
      <point x="659.2" y="601.0" type="line"/>
      <point x="404.59999999999997" y="939.0" type="line"/>
      <point x="164.2" y="939.0" type="line"/>
      <point x="412.4" y="601.0" type="line"/>
    </contour>
  </outline>
</glyph>
<glyph name="fraction" format="2">
  <advance width="1007.0"/>
  <unicode hex="2044"/>
  <unicode hex="2215"/>
  <outline>
    <contour>
      <point x="-72.6" y="0.0" type="line"/>
      <point x="131.39999999999998" y="0.0" type="line"/>
      <point x="1136.4" y="1400.0" type="line"/>
      <point x="931.8" y="1400.0" type="line"/>
    </contour>
  </outline>
</glyph>
<glyph name="zerosuperior" format="2">
  <advance width="648.0"/>
  <unicode hex="2070"/>
  <outline>
    <contour>
      <point x="379.4" y="798.0" type="curve"/>
      <point x="511.4" y="798.0"/>
      <point x="637.4" y="935.2"/>
      <point x="663.4" y="1120.1999999999998" type="curve"/>
      <point x="691.4" y="1317.6"/>
      <point x="592.6" y="1468.0"/>
      <point x="446.6" y="1468.0" type="curve"/>
      <point x="314.6" y="1468.0"/>
      <point x="188.6" y="1330.4"/>
      <point x="162.6" y="1147.0" type="curve"/>
      <point x="134.6" y="948.0"/>
      <point x="233.4" y="798.0"/>
    </contour>
    <contour>
      <point x="371.4" y="933.2" type="curve"/>
      <point x="310.0" y="933.2"/>
      <point x="291.4" y="1034.1999999999998"/>
      <point x="303.4" y="1120.1999999999998" type="curve"/>
      <point x="316.4" y="1212.0"/>
      <point x="375.20000000000005" y="1333.2"/>
      <point x="454.6" y="1333.2" type="curve"/>
      <point x="513.8000000000001" y="1333.2"/>
      <point x="534.6" y="1230.6000000000001"/>
      <point x="522.6" y="1147.0" type="curve"/>
      <point x="510.6" y="1060.3999999999999"/>
      <point x="446.40000000000003" y="933.2"/>
    </contour>
  </outline>
</glyph>
<glyph name="foursuperior" format="2">
  <advance width="690.5"/>
  <unicode hex="2074"/>
  <outline>
    <contour>
      <point x="388.0" y="818.0" type="line"/>
      <point x="532.0" y="818.0" type="line"/>
      <point x="545.6" y="917.2" type="line"/>
      <point x="605.4" y="917.2" type="line"/>
      <point x="625.1999999999999" y="1061.2" type="line"/>
      <point x="565.4" y="1061.2" type="line"/>
      <point x="620.0" y="1449.0" type="line"/>
      <point x="454.40000000000003" y="1449.0" type="line"/>
      <point x="176.4" y="1090.4" type="line"/>
      <point x="154.6" y="917.2" type="line"/>
      <point x="401.6" y="917.2" type="line"/>
    </contour>
    <contour>
      <point x="319.4" y="1061.2" type="line"/>
      <point x="463.40000000000003" y="1248.8" type="line"/>
      <point x="434.40000000000003" y="1061.2" type="line"/>
    </contour>
  </outline>
</glyph>
<glyph name="fivesuperior" format="2">
  <advance width="697.0"/>
  <unicode hex="2075"/>
  <outline>
    <contour>
      <point x="373.40000000000003" y="798.0" type="curve" smooth="yes"/>
      <point x="495.59999999999997" y="798.0"/>
      <point x="607.2" y="883.6"/>
      <point x="624.2" y="1006.2" type="curve" smooth="yes"/>
      <point x="645.6" y="1157.1999999999998"/>
      <point x="544.4000000000001" y="1258.0"/>
      <point x="377.8" y="1251.2" type="curve"/>
      <point x="398.6" y="1323.0" type="line"/>
      <point x="609.0" y="1323.0" type="line"/>
      <point x="626.6" y="1449.0" type="line"/>
      <point x="283.6" y="1449.0" type="line"/>
      <point x="207.79999999999998" y="1093.4" type="line"/>
      <point x="279.2" y="1106.2"/>
      <point x="367.4" y="1112.6"/>
      <point x="416.40000000000003" y="1111.4" type="curve" smooth="yes"/>
      <point x="459.8" y="1106.6000000000001"/>
      <point x="489.59999999999997" y="1075.2"/>
      <point x="484.0" y="1033.3999999999999" type="curve" smooth="yes"/>
      <point x="475.8" y="977.6"/>
      <point x="421.8" y="933.2"/>
      <point x="365.40000000000003" y="933.2" type="curve" smooth="yes"/>
      <point x="321.59999999999997" y="933.2"/>
      <point x="293.4" y="964.4000000000001"/>
      <point x="299.6" y="1013.2" type="curve"/>
      <point x="158.2" y="1026.3999999999999" type="line"/>
      <point x="139.6" y="896.8"/>
      <point x="238.0" y="798.0"/>
    </contour>
  </outline>
</glyph>
<glyph name="sixsuperior" format="2">
  <advance width="706.0"/>
  <unicode hex="2076"/>
  <outline>
    <contour>
      <point x="384.4" y="798.0" type="curve" smooth="yes"/>
      <point x="503.2" y="798.0"/>
      <point x="615.0" y="879.4"/>
      <point x="632.4" y="1004.0" type="curve" smooth="yes"/>
      <point x="649.6" y="1125.1999999999998"/>
      <point x="578.1999999999999" y="1223.0"/>
      <point x="454.4" y="1242.8" type="curve"/>
      <point x="609.6" y="1446.0" type="line"/>
      <point x="437.40000000000003" y="1451.4" type="line"/>
      <point x="203.2" y="1126.6000000000001"/>
      <point x="180.0" y="1099.3999999999999"/>
      <point x="170.6" y="1032.4" type="curve" smooth="yes"/>
      <point x="152.0" y="896.1999999999999"/>
      <point x="245.8" y="798.0"/>
    </contour>
    <contour>
      <point x="376.4" y="933.2" type="curve" smooth="yes"/>
      <point x="342.40000000000003" y="933.2"/>
      <point x="309.20000000000005" y="949.2"/>
      <point x="308.20000000000005" y="993.2" type="curve" smooth="yes"/>
      <point x="310.8" y="1047.6"/>
      <point x="360.4" y="1106.4"/>
      <point x="428.0" y="1106.4" type="curve" smooth="yes"/>
      <point x="463.6" y="1106.4"/>
      <point x="493.59999999999997" y="1082.4"/>
      <point x="494.8" y="1043.2" type="curve" smooth="yes"/>
      <point x="492.59999999999997" y="983.8"/>
      <point x="435.8" y="933.2"/>
    </contour>
  </outline>
</glyph>
<glyph name="sevensuperior" format="2">
  <advance width="667.5"/>
  <unicode hex="2077"/>
  <outline>
    <contour>
      <point x="193.6" y="818.0" type="line"/>
      <point x="363.2" y="818.0" type="line"/>
      <point x="711.4" y="1306.6" type="line"/>
      <point x="728.6" y="1446.8" type="line"/>
      <point x="253.0" y="1446.8" type="line"/>
      <point x="232.6" y="1302.8" type="line"/>
      <point x="539.2" y="1302.8" type="line"/>
    </contour>
  </outline>
</glyph>
<glyph name="eightsuperior" format="2">
  <advance width="625.25"/>
  <unicode hex="2078"/>
  <outline>
    <contour>
      <point x="367.2" y="798.0" type="curve" smooth="yes"/>
      <point x="481.59999999999997" y="798.0"/>
      <point x="582.2" y="873.6"/>
      <point x="598.2" y="986.8000000000001" type="curve" smooth="yes"/>
      <point x="607.2" y="1052.3999999999999"/>
      <point x="587.4000000000001" y="1105.8"/>
      <point x="559.0" y="1139.2" type="curve"/>
      <point x="597.6" y="1177.3999999999999"/>
      <point x="617.4" y="1222.4"/>
      <point x="623.2" y="1262.0" type="curve" smooth="yes"/>
      <point x="639.8" y="1382.4"/>
      <point x="553.2" y="1469.6"/>
      <point x="434.59999999999997" y="1469.6" type="curve" smooth="yes"/>
      <point x="329.6" y="1469.6"/>
      <point x="235.2" y="1395.6000000000001"/>
      <point x="219.6" y="1289.2" type="curve" smooth="yes"/>
      <point x="212.6" y="1235.6000000000001"/>
      <point x="228.0" y="1188.2"/>
      <point x="248.6" y="1159.6000000000001" type="curve"/>
      <point x="201.20000000000002" y="1116.6000000000001"/>
      <point x="175.6" y="1065.2"/>
      <point x="168.2" y="1013.6" type="curve" smooth="yes"/>
      <point x="150.6" y="886.8"/>
      <point x="240.8" y="798.0"/>
    </contour>
    <contour>
      <point x="359.2" y="931.6" type="curve" smooth="yes"/>
      <point x="326.2" y="931.6"/>
      <point x="304.0" y="954.4000000000001"/>
      <point x="308.6" y="986.8000000000001" type="curve" smooth="yes"/>
      <point x="315.2" y="1034.3999999999999"/>
      <point x="359.79999999999995" y="1073.2"/>
      <point x="405.2" y="1073.2" type="curve" smooth="yes"/>
      <point x="440.2" y="1073.2"/>
      <point x="462.59999999999997" y="1047.2"/>
      <point x="457.4" y="1013.6" type="curve" smooth="yes"/>
      <point x="451.2" y="967.6"/>
      <point x="406.6" y="931.6"/>
    </contour>
    <contour>
      <point x="399.4" y="1217.2" type="curve" smooth="yes"/>
      <point x="374.2" y="1217.2"/>
      <point x="357.2" y="1237.4"/>
      <point x="360.4" y="1262.0" type="curve" smooth="yes"/>
      <point x="365.59999999999997" y="1302.6000000000001"/>
      <point x="403.4" y="1333.2"/>
      <point x="442.0" y="1333.2" type="curve" smooth="yes"/>
      <point x="468.59999999999997" y="1333.2"/>
      <point x="487.0" y="1315.8000000000002"/>
      <point x="482.4" y="1289.2" type="curve" smooth="yes"/>
      <point x="477.6" y="1250.6000000000001"/>
      <point x="439.4" y="1217.2"/>
    </contour>
  </outline>
</glyph>
<glyph name="ninesuperior" format="2">
  <advance width="658.25"/>
  <unicode hex="2079"/>
  <outline>
    <contour>
      <point x="200.8" y="818.0" type="line"/>
      <point x="371.59999999999997" y="818.0" type="line"/>
      <point x="598.2" y="1123.8" type="line"/>
      <point x="616.2" y="1153.0"/>
      <point x="625.6" y="1182.1999999999998"/>
      <point x="630.1999999999999" y="1204.8" type="curve" smooth="yes"/>
      <point x="671.8000000000001" y="1342.8"/>
      <point x="579.4000000000001" y="1468.0"/>
      <point x="427.59999999999997" y="1468.0" type="curve" smooth="yes"/>
      <point x="317.4" y="1468.0"/>
      <point x="216.4" y="1396.4"/>
      <point x="190.2" y="1289.2" type="curve" smooth="yes"/>
      <point x="147.20000000000002" y="1162.4"/>
      <point x="224.0" y="1030.3999999999999"/>
      <point x="355.79999999999995" y="1023.6" type="curve"/>
    </contour>
    <contour>
      <point x="384.4" y="1158.0" type="curve" smooth="yes"/>
      <point x="356.4" y="1158.0"/>
      <point x="317.40000000000003" y="1173.8"/>
      <point x="318.40000000000003" y="1221.6000000000001" type="curve" smooth="yes"/>
      <point x="320.8" y="1278.0"/>
      <point x="370.8" y="1333.2"/>
      <point x="435.59999999999997" y="1333.2" type="curve" smooth="yes"/>
      <point x="468.40000000000003" y="1333.2"/>
      <point x="501.40000000000003" y="1308.6000000000001"/>
      <point x="502.0" y="1273.0" type="curve" smooth="yes"/>
      <point x="499.59999999999997" y="1212.4"/>
      <point x="443.59999999999997" y="1158.0"/>
    </contour>
  </outline>
</glyph>
<glyph name="zeroinferior" format="2">
  <advance width="648.0"/>
  <unicode hex="2080"/>
  <outline>
    <contour>
      <point x="262.8" y="-31.0" type="curve"/>
      <point x="395.4" y="-31.0"/>
      <point x="521.6" y="114.6"/>
      <point x="548.0" y="299.6" type="curve"/>
      <point x="575.6" y="496.40000000000003"/>
      <point x="477.8" y="655.6"/>
      <point x="332.4" y="655.6" type="curve"/>
      <point x="199.8" y="655.6"/>
      <point x="73.2" y="509.2"/>
      <point x="48.2" y="326.4" type="curve"/>
      <point x="19.2" y="127.4"/>
      <point x="117.4" y="-31.0"/>
    </contour>
    <contour>
      <point x="256.0" y="113.0" type="curve"/>
      <point x="195.6" y="113.0"/>
      <point x="175.6" y="213.6"/>
      <point x="188.0" y="299.6" type="curve"/>
      <point x="200.6" y="390.8"/>
      <point x="260.40000000000003" y="511.6"/>
      <point x="339.2" y="511.6" type="curve"/>
      <point x="399.0" y="511.6"/>
      <point x="419.6" y="409.40000000000003"/>
      <point x="408.2" y="326.4" type="curve"/>
      <point x="395.2" y="239.20000000000002"/>
      <point x="332.0" y="113.0"/>
    </contour>
  </outline>
</glyph>
<glyph name="oneinferior" format="2">
  <advance width="449.75"/>
  <unicode hex="2081"/>
  <outline>
    <contour>
      <point x="91.6" y="0.0" type="line"/>
      <point x="235.60000000000002" y="0.0" type="line"/>
      <point x="323.6" y="631.0" type="line"/>
      <point x="133.8" y="631.0" type="line"/>
      <point x="93.6" y="487.0" type="line"/>
      <point x="160.2" y="487.0" type="line"/>
    </contour>
  </outline>
</glyph>
<glyph name="twoinferior" format="2">
  <advance width="712.75"/>
  <unicode hex="2082"/>
  <outline>
    <contour>
      <point x="26.0" y="0.0" type="line"/>
      <point x="489.79999999999995" y="0.0" type="line"/>
      <point x="509.59999999999997" y="144.0" type="line"/>
      <point x="311.20000000000005" y="139.2" type="line"/>
      <point x="418.40000000000003" y="218.2"/>
      <point x="542.4" y="310.4"/>
      <point x="556.2" y="411.4" type="curve"/>
      <point x="575.4" y="548.4000000000001"/>
      <point x="479.0" y="659.2"/>
      <point x="342.6" y="659.2" type="curve"/>
      <point x="217.6" y="659.2"/>
      <point x="104.4" y="561.6"/>
      <point x="86.8" y="431.59999999999997" type="curve"/>
      <point x="228.2" y="418.4" type="line"/>
      <point x="235.4" y="470.59999999999997"/>
      <point x="291.20000000000005" y="515.2"/>
      <point x="349.40000000000003" y="515.2" type="curve"/>
      <point x="393.59999999999997" y="515.2"/>
      <point x="422.6" y="483.79999999999995"/>
      <point x="413.20000000000005" y="437.59999999999997" type="curve"/>
      <point x="340.0" y="300.2"/>
      <point x="160.0" y="208.20000000000002"/>
      <point x="38.8" y="132.2" type="curve"/>
    </contour>
  </outline>
</glyph>
<glyph name="threeinferior" format="2">
  <advance width="576.0"/>
  <unicode hex="2083"/>
  <outline>
    <contour>
      <point x="227.8" y="-31.0" type="curve" smooth="yes"/>
      <point x="338.2" y="-31.0"/>
      <point x="441.6" y="57.6"/>
      <point x="457.2" y="169.39999999999998" type="curve" smooth="yes"/>
      <point x="467.0" y="234.39999999999998"/>
      <point x="449.2" y="285.4"/>
      <point x="415.79999999999995" y="320.59999999999997" type="curve"/>
      <point x="453.4" y="357.40000000000003"/>
      <point x="472.6" y="401.59999999999997"/>
      <point x="478.40000000000003" y="443.4" type="curve" smooth="yes"/>
      <point x="495.6" y="561.8000000000001"/>
      <point x="411.2" y="655.6"/>
      <point x="292.4" y="655.6" type="curve" smooth="yes"/>
      <point x="187.4" y="655.6"/>
      <point x="93.4" y="574.6"/>
      <point x="77.4" y="463.59999999999997" type="curve"/>
      <point x="219.20000000000002" y="450.4" type="line"/>
      <point x="223.4" y="481.40000000000003"/>
      <point x="262.2" y="511.6"/>
      <point x="299.2" y="511.6" type="curve" smooth="yes"/>
      <point x="324.40000000000003" y="511.6"/>
      <point x="342.20000000000005" y="494.2"/>
      <point x="338.6" y="470.59999999999997" type="curve" smooth="yes"/>
      <point x="332.0" y="423.79999999999995"/>
      <point x="292.2" y="375.2"/>
      <point x="212.60000000000002" y="375.2" type="curve"/>
      <point x="213.20000000000002" y="277.6" type="line"/>
      <point x="293.4" y="277.6"/>
      <point x="323.0" y="237.6"/>
      <point x="317.4" y="196.6" type="curve" smooth="yes"/>
      <point x="311.2" y="148.6"/>
      <point x="267.4" y="113.0"/>
      <point x="221.0" y="113.0" type="curve" smooth="yes"/>
      <point x="187.0" y="113.0"/>
      <point x="164.6" y="135.79999999999998"/>
      <point x="170.8" y="176.39999999999998" type="curve"/>
      <point x="28.4" y="189.6" type="line"/>
      <point x="11.8" y="70.4"/>
      <point x="102.19999999999999" y="-31.0"/>
    </contour>
  </outline>
</glyph>
<glyph name="fourinferior" format="2">
  <advance width="690.5"/>
  <unicode hex="2084"/>
  <outline>
    <contour>
      <point x="273.0" y="0.0" type="line"/>
      <point x="417.0" y="0.0" type="line"/>
      <point x="430.6" y="99.2" type="line"/>
      <point x="490.4" y="99.2" type="line"/>
      <point x="510.2" y="243.2" type="line"/>
      <point x="450.4" y="243.2" type="line"/>
      <point x="505.0" y="631.0" type="line"/>
      <point x="339.40000000000003" y="631.0" type="line"/>
      <point x="61.4" y="272.4" type="line"/>
      <point x="39.6" y="99.2" type="line"/>
      <point x="286.6" y="99.2" type="line"/>
    </contour>
    <contour>
      <point x="204.4" y="243.2" type="line"/>
      <point x="348.40000000000003" y="430.8" type="line"/>
      <point x="319.40000000000003" y="243.2" type="line"/>
    </contour>
  </outline>
</glyph>
<glyph name="fiveinferior" format="2">
  <advance width="697.0"/>
  <unicode hex="2085"/>
  <outline>
    <contour>
      <point x="256.40000000000003" y="-31.0" type="curve"/>
      <point x="379.59999999999997" y="-31.0"/>
      <point x="491.40000000000003" y="62.800000000000004"/>
      <point x="508.40000000000003" y="185.39999999999998" type="curve"/>
      <point x="527.6" y="323.8"/>
      <point x="452.4" y="432.0"/>
      <point x="304.8" y="432.0" type="curve"/>
      <point x="269.2" y="430.4" type="line"/>
      <point x="281.6" y="500.2" type="line"/>
      <point x="493.6" y="500.2" type="line"/>
      <point x="511.20000000000005" y="627.4" type="line"/>
      <point x="168.2" y="627.4" type="line"/>
      <point x="85.0" y="279.6" type="line"/>
      <point x="294.6" y="288.0" type="line"/>
      <point x="345.0" y="288.0"/>
      <point x="374.2" y="255.0"/>
      <point x="368.59999999999997" y="212.6" type="curve"/>
      <point x="361.0" y="156.4"/>
      <point x="307.4" y="113.0"/>
      <point x="249.60000000000002" y="113.0" type="curve"/>
      <point x="207.2" y="113.0"/>
      <point x="177.6" y="143.6"/>
      <point x="185.2" y="192.39999999999998" type="curve"/>
      <point x="42.8" y="205.6" type="line"/>
      <point x="24.2" y="75.60000000000001"/>
      <point x="121.6" y="-31.0"/>
    </contour>
  </outline>
</glyph>
<glyph name="sixinferior" format="2">
  <advance width="682.0"/>
  <unicode hex="2086"/>
  <outline>
    <contour>
      <point x="267.8" y="-31.0" type="curve" smooth="yes"/>
      <point x="387.2" y="-31.0"/>
      <point x="499.6" y="59.199999999999996"/>
      <point x="517.4" y="183.2" type="curve" smooth="yes"/>
      <point x="534.2" y="305.0"/>
      <point x="462.8" y="403.2"/>
      <point x="338.59999999999997" y="421.59999999999997" type="curve"/>
      <point x="494.2" y="626.6" type="line"/>
      <point x="322.4" y="632.0" type="line"/>
      <point x="88.2" y="306.79999999999995"/>
      <point x="64.6" y="279.2"/>
      <point x="55.2" y="212.6" type="curve" smooth="yes"/>
      <point x="36.6" y="75.60000000000001"/>
      <point x="129.4" y="-31.0"/>
    </contour>
    <contour>
      <point x="261.0" y="113.0" type="curve" smooth="yes"/>
      <point x="228.00000000000003" y="113.0"/>
      <point x="193.79999999999998" y="128.4"/>
      <point x="193.79999999999998" y="172.0" type="curve" smooth="yes"/>
      <point x="197.0" y="226.39999999999998"/>
      <point x="244.99999999999997" y="285.6"/>
      <point x="312.6" y="285.6" type="curve" smooth="yes"/>
      <point x="348.6" y="285.6"/>
      <point x="378.2" y="262.2"/>
      <point x="379.40000000000003" y="222.4" type="curve" smooth="yes"/>
      <point x="377.2" y="163.0"/>
      <point x="321.4" y="113.0"/>
    </contour>
  </outline>
</glyph>
<glyph name="seveninferior" format="2">
  <advance width="667.5"/>
  <unicode hex="2087"/>
  <outline>
    <contour>
      <point x="75.6" y="0.0" type="line"/>
      <point x="245.59999999999997" y="0.0" type="line"/>
      <point x="596.4" y="490.8" type="line"/>
      <point x="613.6" y="631.0" type="line"/>
      <point x="138.0" y="631.0" type="line"/>
      <point x="118.2" y="487.0" type="line"/>
      <point x="425.2" y="487.0" type="line"/>
    </contour>
  </outline>
</glyph>
<glyph name="eightinferior" format="2">
  <advance width="625.25"/>
  <unicode hex="2088"/>
  <outline>
    <contour>
      <point x="250.2" y="-31.0" type="curve" smooth="yes"/>
      <point x="365.2" y="-31.0"/>
      <point x="466.80000000000007" y="53.800000000000004"/>
      <point x="482.40000000000003" y="165.6" type="curve" smooth="yes"/>
      <point x="491.80000000000007" y="231.6"/>
      <point x="471.59999999999997" y="286.59999999999997"/>
      <point x="443.6" y="318.40000000000003" type="curve"/>
      <point x="482.2" y="357.20000000000005"/>
      <point x="502.4" y="401.6"/>
      <point x="508.2" y="441.20000000000005" type="curve" smooth="yes"/>
      <point x="525.0" y="562.6"/>
      <point x="438.40000000000003" y="656.0"/>
      <point x="320.2" y="656.0" type="curve" smooth="yes"/>
      <point x="215.2" y="656.0"/>
      <point x="120.2" y="575.4"/>
      <point x="104.60000000000001" y="468.40000000000003" type="curve" smooth="yes"/>
      <point x="97.2" y="414.4"/>
      <point x="112.60000000000001" y="368.0"/>
      <point x="133.2" y="339.20000000000005" type="curve"/>
      <point x="86.80000000000001" y="296.79999999999995"/>
      <point x="60.2" y="244.4"/>
      <point x="52.4" y="192.8" type="curve" smooth="yes"/>
      <point x="35.2" y="66.60000000000001"/>
      <point x="124.4" y="-31.0"/>
    </contour>
    <contour>
      <point x="243.39999999999998" y="110.8" type="curve" smooth="yes"/>
      <point x="211.2" y="110.8"/>
      <point x="188.6" y="133.6"/>
      <point x="193.2" y="165.6" type="curve" smooth="yes"/>
      <point x="199.4" y="213.6"/>
      <point x="244.39999999999998" y="252.4"/>
      <point x="289.79999999999995" y="252.4" type="curve" smooth="yes"/>
      <point x="324.40000000000003" y="252.4"/>
      <point x="347.2" y="226.4"/>
      <point x="341.59999999999997" y="192.8" type="curve" smooth="yes"/>
      <point x="335.4" y="146.4"/>
      <point x="291.2" y="110.8"/>
    </contour>
    <contour>
      <point x="283.59999999999997" y="396.4" type="curve" smooth="yes"/>
      <point x="258.8" y="396.4"/>
      <point x="241.79999999999998" y="417.6"/>
      <point x="245.39999999999998" y="441.20000000000005" type="curve" smooth="yes"/>
      <point x="250.6" y="481.8"/>
      <point x="288.59999999999997" y="512.0"/>
      <point x="326.59999999999997" y="512.0" type="curve" smooth="yes"/>
      <point x="354.2" y="512.0"/>
      <point x="371.6" y="494.59999999999997"/>
      <point x="367.4" y="468.40000000000003" type="curve" smooth="yes"/>
      <point x="362.2" y="430.4"/>
      <point x="324.0" y="396.4"/>
    </contour>
  </outline>
</glyph>
<glyph name="nineinferior" format="2">
  <advance width="658.5"/>
  <unicode hex="2089"/>
  <outline>
    <contour>
      <point x="85.80000000000001" y="0.0" type="line"/>
      <point x="256.59999999999997" y="0.0" type="line"/>
      <point x="485.2" y="308.6" type="line"/>
      <point x="594.4000000000001" y="465.4"/>
      <point x="497.59999999999997" y="659.2"/>
      <point x="314.2" y="659.2" type="curve" smooth="yes"/>
      <point x="203.39999999999998" y="659.2"/>
      <point x="101.8" y="579.4"/>
      <point x="76.2" y="472.2" type="curve" smooth="yes"/>
      <point x="32.199999999999996" y="345.4"/>
      <point x="109.0" y="212.39999999999998"/>
      <point x="240.79999999999998" y="205.6" type="curve"/>
    </contour>
    <contour>
      <point x="269.4" y="341.0" type="curve" smooth="yes"/>
      <point x="242.4" y="341.0"/>
      <point x="202.4" y="355.8"/>
      <point x="203.4" y="404.0" type="curve" smooth="yes"/>
      <point x="205.79999999999998" y="460.0"/>
      <point x="256.4" y="515.2"/>
      <point x="320.59999999999997" y="515.2" type="curve" smooth="yes"/>
      <point x="354.0" y="515.2"/>
      <point x="386.40000000000003" y="490.59999999999997"/>
      <point x="387.0" y="455.0" type="curve" smooth="yes"/>
      <point x="384.59999999999997" y="394.79999999999995"/>
      <point x="329.2" y="341.0"/>
    </contour>
  </outline>
</glyph>
<glyph name="euro" format="2">
  <advance width="1122.5"/>
  <unicode hex="20AC"/>
  <outline>
    <contour>
      <point x="976.8000000000001" y="-16.2" type="curve"/>
      <point x="998.6000000000001" y="234.2" type="line"/>
      <point x="773.2" y="175.39999999999998"/>
      <point x="584.4000000000001" y="275.4"/>
      <point x="520.4" y="478.2" type="curve"/>
      <point x="795.4" y="484.0" type="line"/>
      <point x="818.6" y="649.2" type="line"/>
      <point x="498.20000000000005" y="649.2" type="line"/>
      <point x="510.4" y="748.0" type="line"/>
      <point x="832.4" y="748.0" type="line"/>
      <point x="855.6" y="913.2" type="line"/>
      <point x="585.6" y="907.4000000000001" type="line"/>
      <point x="701.4000000000001" y="1105.8"/>
      <point x="927.2" y="1230.4"/>
      <point x="1143.6000000000001" y="1170.0" type="curve"/>
      <point x="1164.4" y="1415.4" type="line"/>
      <point x="817.6" y="1475.4"/>
      <point x="469.6" y="1265.6000000000001"/>
      <point x="322.2" y="919.6" type="curve"/>
      <point x="137.6" y="913.2" type="line"/>
      <point x="114.4" y="748.0" type="line"/>
      <point x="270.0" y="748.0" type="line"/>
      <point x="256.2" y="649.2" type="line"/>
      <point x="100.6" y="649.2" type="line"/>
      <point x="77.4" y="484.0" type="line"/>
      <point x="265.8" y="490.4" type="line"/>
      <point x="319.4" y="150.4"/>
      <point x="609.6" y="-76.6"/>
    </contour>
  </outline>
</glyph>
<glyph name="leftArrow" format="2">
  <advance width="1405.0"/>
  <unicode hex="2190"/>
  <outline>
    <contour>
      <point x="576.4" y="219.6" type="line"/>
      <point x="764.2" y="389.2" type="line"/>
      <point x="554.6" y="630.0" type="line"/>
      <point x="1343.2" y="630.0" type="line"/>
      <point x="1376.8" y="870.0" type="line"/>
      <point x="593.4000000000001" y="870.0" type="line"/>
      <point x="866.2" y="1111.2" type="line"/>
      <point x="715.4" y="1280.4" type="line"/>
      <point x="115.0" y="750.0" type="line"/>
    </contour>
  </outline>
</glyph>
<glyph name="upArrow" format="2">
  <advance width="1221.5"/>
  <unicode hex="2191"/>
  <outline>
    <contour>
      <point x="438.4" y="126.4" type="line"/>
      <point x="678.4000000000001" y="126.4" type="line"/>
      <point x="791.2" y="913.2" type="line"/>
      <point x="1001.4" y="673.2" type="line"/>
      <point x="1190.1999999999998" y="843.2" type="line"/>
      <point x="728.8000000000001" y="1373.6" type="line"/>
      <point x="128.6" y="843.2" type="line"/>
      <point x="279.4" y="673.2" type="line"/>
      <point x="551.2" y="913.2" type="line"/>
    </contour>
  </outline>
</glyph>
<glyph name="rightArrow" format="2">
  <advance width="1406.5"/>
  <unicode hex="2192"/>
  <outline>
    <contour>
      <point x="760.6" y="219.6" type="line"/>
      <point x="1361.4" y="750.0" type="line"/>
      <point x="900.6" y="1280.4" type="line"/>
      <point x="712.2" y="1111.2" type="line"/>
      <point x="919.8000000000001" y="870.0" type="line"/>
      <point x="131.6" y="870.0" type="line"/>
      <point x="98.4" y="630.0" type="line"/>
      <point x="881.4" y="630.0" type="line"/>
      <point x="610.2" y="389.2" type="line"/>
    </contour>
  </outline>
</glyph>
<glyph name="downArrow" format="2">
  <advance width="1220.0"/>
  <unicode hex="2193"/>
  <outline>
    <contour>
      <point x="561.2" y="127.2" type="line"/>
      <point x="1162.4" y="657.6" type="line"/>
      <point x="1011.4" y="827.2" type="line"/>
      <point x="739.2" y="587.6" type="line"/>
      <point x="851.6" y="1373.2" type="line"/>
      <point x="611.6" y="1373.2" type="line"/>
      <point x="499.2" y="587.6" type="line"/>
      <point x="290.20000000000005" y="827.2" type="line"/>
      <point x="102.4" y="657.6" type="line"/>
    </contour>
  </outline>
</glyph>
<glyph name="leftRightArrow" format="2">
  <advance width="1836.5"/>
  <unicode hex="2194"/>
  <outline>
    <contour>
      <point x="576.4" y="219.6" type="line"/>
      <point x="764.2" y="389.2" type="line"/>
      <point x="554.6" y="630.0" type="line"/>
      <point x="1311.3999999999999" y="630.0" type="line"/>
      <point x="1040.2" y="389.2" type="line"/>
      <point x="1190.6" y="219.6" type="line"/>
      <point x="1791.4" y="750.0" type="line"/>
      <point x="1330.6" y="1280.4" type="line"/>
      <point x="1142.2" y="1111.2" type="line"/>
      <point x="1349.8" y="870.0" type="line"/>
      <point x="593.4000000000001" y="870.0" type="line"/>
      <point x="866.2" y="1111.2" type="line"/>
      <point x="715.4" y="1280.4" type="line"/>
      <point x="115.0" y="750.0" type="line"/>
    </contour>
  </outline>
</glyph>
<glyph name="upDownArrow" format="2">
  <advance width="1221.5"/>
  <unicode hex="2195"/>
  <outline>
    <contour>
      <point x="532.6" y="-88.39999999999999" type="line"/>
      <point x="1133.1999999999998" y="442.4" type="line"/>
      <point x="982.4" y="612.4" type="line"/>
      <point x="710.1999999999999" y="372.0" type="line"/>
      <point x="820.6" y="1128.0" type="line"/>
      <point x="1030.8" y="888.0" type="line"/>
      <point x="1220.0" y="1058.0" type="line"/>
      <point x="758.6" y="1588.4" type="line"/>
      <point x="158.4" y="1058.0" type="line"/>
      <point x="308.8" y="888.0" type="line"/>
      <point x="580.6" y="1128.0" type="line"/>
      <point x="470.2" y="372.0" type="line"/>
      <point x="260.40000000000003" y="612.4" type="line"/>
      <point x="71.6" y="442.4" type="line"/>
    </contour>
  </outline>
</glyph>
<glyph name="northWestArrow" format="2">
  <advance width="1126.0"/>
  <unicode hex="2196"/>
  <outline>
    <contour>
      <point x="848.6" y="267.4" type="line"/>
      <point x="1037.4" y="436.6" type="line"/>
      <point x="556.4" y="992.6" type="line"/>
      <point x="899.0" y="992.6" type="line"/>
      <point x="933.2" y="1232.6" type="line"/>
      <point x="183.2" y="1232.6" type="line"/>
      <point x="77.6" y="482.6" type="line"/>
      <point x="317.6" y="482.6" type="line"/>
      <point x="368.2" y="823.4" type="line"/>
    </contour>
  </outline>
</glyph>
<glyph name="northEastArrow" format="2">
  <advance width="1125.5"/>
  <unicode hex="2197"/>
  <outline>
    <contour>
      <point x="221.79999999999998" y="268.0" type="line"/>
      <point x="853.2" y="822.4" type="line"/>
      <point x="803.2" y="482.0" type="line"/>
      <point x="1043.1999999999998" y="482.0" type="line"/>
      <point x="1148.1999999999998" y="1232.0" type="line"/>
      <point x="396.6" y="1232.0" type="line"/>
      <point x="363.0" y="992.0" type="line"/>
      <point x="702.4" y="992.0" type="line"/>
      <point x="71.4" y="437.6" type="line"/>
    </contour>
  </outline>
</glyph>
<glyph name="southEastArrow" format="2">
  <advance width="1125.5"/>
  <unicode hex="2198"/>
  <outline>
    <contour>
      <point x="263.0" y="268.0" type="line"/>
      <point x="1012.9999999999999" y="268.0" type="line"/>
      <point x="1118.0" y="1018.0" type="line"/>
      <point x="878.0" y="1018.0" type="line"/>
      <point x="828.4" y="677.6" type="line"/>
      <point x="347.40000000000003" y="1232.0" type="line"/>
      <point x="159.2" y="1062.4" type="line"/>
      <point x="639.6" y="508.0" type="line"/>
      <point x="296.6" y="508.0" type="line"/>
    </contour>
  </outline>
</glyph>
<glyph name="southWestArrow" format="2">
  <advance width="1125.5"/>
  <unicode hex="2199"/>
  <outline>
    <contour>
      <point x="47.4" y="268.0" type="line"/>
      <point x="797.4" y="268.0" type="line"/>
      <point x="831.0" y="508.0" type="line"/>
      <point x="493.20000000000005" y="508.0" type="line"/>
      <point x="1124.8" y="1062.4" type="line"/>
      <point x="973.8" y="1232.0" type="line"/>
      <point x="342.8" y="677.6" type="line"/>
      <point x="393.4" y="1018.0" type="line"/>
      <point x="152.4" y="1018.0" type="line"/>
    </contour>
  </outline>
</glyph>
